<?xml version="1.0" encoding="UTF-8"?>
<svg version="1.1" xmlns="http://www.w3.org/2000/svg" width="256" height="256">
<path d="M0 0 C84.48 0 168.96 0 256 0 C256 84.48 256 168.96 256 256 C171.52 256 87.04 256 0 256 C0 171.52 0 87.04 0 0 Z " fill="#FDFDFD" transform="translate(0,0)"/>
<path d="M0 0 C19.8 0 39.6 0 60 0 C58.35 1.98 56.7 3.96 55 6 C79.75 6.495 79.75 6.495 105 7 C105 9.64 105 12.28 105 15 C85.53 15 66.06 15 46 15 C47.65 12.69 49.3 10.38 51 8 C34.17 8 17.34 8 0 8 C0 5.36 0 2.72 0 0 Z " fill="#384C87" transform="translate(72,84)"/>
<path d="M0 0 C14.52 0 29.04 0 44 0 C42.35 1.98 40.7 3.96 39 6 C59.79 6.33 80.58 6.66 102 7 C101 11 101 11 99 15 C76.23 15 53.46 15 30 15 C31.65 12.69 33.3 10.38 35 8 C23.78 8 12.56 8 1 8 C0.67 5.36 0.34 2.72 0 0 Z " fill="#334885" transform="translate(73,99)"/>
<path d="M0 0 C23.1 0 46.2 0 70 0 C68.35 1.98 66.7 3.96 65 6 C81.335 6.495 81.335 6.495 98 7 C99 9 99 9 99 15 C84.81 15 70.62 15 56 15 C57.65 13.02 59.3 11.04 61 9 C29.32 8.505 29.32 8.505 -3 8 C-1 2 -1 2 0 0 Z " fill="#1C2956" transform="translate(77,69)"/>
<path d="M0 0 C7.92 0 15.84 0 24 0 C22.35 1.98 20.7 3.96 19 6 C42.1 6.33 65.2 6.66 89 7 C86.45079264 13.37301839 86.45079264 13.37301839 84 15 C80.82991028 15.36076355 80.82991028 15.36076355 76.86645508 15.34057617 C75.78315163 15.34123329 75.78315163 15.34123329 74.67796326 15.34190369 C72.29154395 15.33981414 69.90582777 15.31647613 67.51953125 15.29296875 C65.86472457 15.28737336 64.20991292 15.283103 62.55509949 15.28010559 C58.20006586 15.26865224 53.84533249 15.23918098 49.49041748 15.20599365 C45.04638735 15.17530326 40.60230869 15.16160247 36.15820312 15.14648438 C27.43866431 15.11431162 18.71936951 15.06310952 10 15 C11.65 12.69 13.3 10.38 15 8 C11.04 8 7.08 8 3 8 C0 2.25 0 2.25 0 0 Z " fill="#304583" transform="translate(78,114)"/>
<path d="M0 0 C0.69051956 0.0143811 1.38103912 0.02876221 2.09248352 0.0435791 C2.82443939 0.042995 3.55639526 0.04241089 4.31053162 0.04180908 C6.7296239 0.0445956 9.14748352 0.07571229 11.56636047 0.10705566 C13.24358446 0.11451609 14.92081716 0.12020996 16.59805298 0.12420654 C21.01237558 0.13947866 25.42617167 0.17877368 29.84028625 0.22302246 C34.34460833 0.26394138 38.84901548 0.28221031 43.35346985 0.30236816 C52.1915918 0.34526671 61.02932298 0.41353686 69.86714172 0.49768066 C68.21714172 2.47768066 66.56714172 4.45768066 64.86714172 6.49768066 C65.61479797 6.47705566 66.36245422 6.45643066 67.13276672 6.43518066 C68.11761047 6.45580566 69.10245422 6.47643066 70.11714172 6.49768066 C71.09167297 6.49768066 72.06620422 6.49768066 73.07026672 6.49768066 C75.86714172 7.49768066 75.86714172 7.49768066 79.86714172 15.49768066 C71.94714172 15.49768066 64.02714172 15.49768066 55.86714172 15.49768066 C57.51714172 13.51768066 59.16714172 11.53768066 60.86714172 9.49768066 C37.43714172 9.16768066 14.00714172 8.83768066 -10.13285828 8.49768066 C-5.90959696 0.05115804 -5.90959696 0.05115804 0 0 Z " fill="#192654" transform="translate(92.13285827636719,53.5023193359375)"/>
<path d="M0 0 C2.4375 1.6875 2.4375 1.6875 4.4375 4.6875 C5.33660536 13.87666155 4.09113885 23.48986759 3.4375 32.6875 C0.4675 32.6875 -2.5025 32.6875 -5.5625 32.6875 C-5.57708252 31.97094238 -5.59166504 31.25438477 -5.60668945 30.51611328 C-5.68099 27.28102017 -5.77770861 24.04697981 -5.875 20.8125 C-5.89755859 19.68457031 -5.92011719 18.55664062 -5.94335938 17.39453125 C-5.9965332 15.77998047 -5.9965332 15.77998047 -6.05078125 14.1328125 C-6.07696533 13.13781738 -6.10314941 12.14282227 -6.13012695 11.11767578 C-6.27281006 10.31571777 -6.41549316 9.51375977 -6.5625 8.6875 C-10.08074511 6.34200326 -11.42025694 6.10758597 -15.5625 6.6875 C-18.51888787 8.78216046 -20.26598839 10.48729292 -21.15039062 14.06713867 C-21.50214775 16.88043323 -21.71721114 19.6693059 -21.875 22.5 C-21.94783203 23.47904297 -22.02066406 24.45808594 -22.09570312 25.46679688 C-22.27171491 27.87229132 -22.41986853 30.27979571 -22.5625 32.6875 C-25.8625 32.6875 -29.1625 32.6875 -32.5625 32.6875 C-31.9025 21.7975 -31.2425 10.9075 -30.5625 -0.3125 C-27.5925 -0.3125 -24.6225 -0.3125 -21.5625 -0.3125 C-21.2325 0.6775 -20.9025 1.6675 -20.5625 2.6875 C-19.799375 2.0275 -19.03625 1.3675 -18.25 0.6875 C-12.77173207 -2.96901612 -5.91668373 -2.17983085 0 0 Z " fill="#132457" transform="translate(129.5625,176.3125)"/>
<path d="M0 0 C0.79857422 -0.020625 1.59714844 -0.04125 2.41992188 -0.0625 C7.12820923 -0.09370654 10.2465126 0.17331349 14.0625 3.25 C15.51073511 6.14647022 15.06769634 8.56164917 14.94140625 11.7890625 C14.89306641 13.09101563 14.84472656 14.39296875 14.79492188 15.734375 C14.73839606 17.11458804 14.68175392 18.49479632 14.625 19.875 C14.57177707 21.26300219 14.51903668 22.65102297 14.46679688 24.0390625 C14.33678837 27.44292141 14.20181117 30.84651117 14.0625 34.25 C11.0925 34.25 8.1225 34.25 5.0625 34.25 C5.0625 28.97 5.0625 23.69 5.0625 18.25 C3.103125 18.889375 1.14375 19.52875 -0.875 20.1875 C-1.97714844 20.54714844 -3.07929688 20.90679687 -4.21484375 21.27734375 C-6.81873475 21.98856668 -6.81873475 21.98856668 -7.9375 23.25 C-8.10416667 25.75 -8.10416667 25.75 -7.9375 28.25 C-6.44006881 29.74743119 -4.94925761 29.58202693 -2.875 29.8125 C-1.575625 29.956875 -0.27625 30.10125 1.0625 30.25 C0.7325 31.9 0.4025 33.55 0.0625 35.25 C-10.87036835 35.8777245 -10.87036835 35.8777245 -15.125 33.375 C-17.46974722 30.62598602 -17.89907883 29.58938697 -18.3125 25.9375 C-17.9375 22.25 -17.9375 22.25 -15.875 19.5 C-9.93645596 14.95132797 -3.04017197 13.26504376 4.0625 11.25 C3.7325 9.6 3.4025 7.95 3.0625 6.25 C-2.38443314 6.15311779 -7.57654667 6.12137825 -12.9375 7.25 C-12.9375 5.27 -12.9375 3.29 -12.9375 1.25 C-8.60032158 0.03566305 -4.47799948 0.02877429 0 0 Z " fill="#162759" transform="translate(189.9375,174.75)"/>
<path d="M0 0 C8.58 0 17.16 0 26 0 C26 8 26 8 24.96191406 10.0222168 C24.48463867 10.49312744 24.00736328 10.96403809 23.515625 11.44921875 C22.99226563 11.98740234 22.46890625 12.52558594 21.9296875 13.08007812 C21.37539062 13.61052734 20.82109375 14.14097656 20.25 14.6875 C19.17054098 15.77341512 18.09239167 16.86063391 17.015625 17.94921875 C16.53383789 18.41674561 16.05205078 18.88427246 15.55566406 19.3659668 C13.56682432 21.45499762 11.80184548 23.74769315 10 26 C14.95 26.33 19.9 26.66 25 27 C25 28.98 25 30.96 25 33 C16.09 33 7.18 33 -2 33 C-2 25 -2 25 -0.49609375 22.75 C0.18324219 22.1725 0.86257812 21.595 1.5625 21 C4.5157235 18.3405252 7.26707088 15.69073628 9.875 12.6875 C10.42929688 12.05199219 10.98359375 11.41648438 11.5546875 10.76171875 C13.1704772 8.85141692 13.1704772 8.85141692 15 6 C10.05 6 5.1 6 0 6 C0 4.02 0 2.04 0 0 Z " fill="#112356" transform="translate(141,176)"/>
<path d="M0 0 C8.58 0 17.16 0 26 0 C26 8 26 8 24.49609375 10.25 C23.81675781 10.8275 23.13742188 11.405 22.4375 12 C18.81416277 15.25649847 15.61298406 18.63786512 12.4453125 22.3359375 C11.34597202 23.60166464 10.1854566 24.8145434 9 26 C14.28 26.33 19.56 26.66 25 27 C25 28.98 25 30.96 25 33 C16.09 33 7.18 33 -2 33 C-2 25 -2 25 -0.96191406 22.9777832 C-0.48463867 22.50687256 -0.00736328 22.03596191 0.484375 21.55078125 C1.00773437 21.01259766 1.53109375 20.47441406 2.0703125 19.91992188 C2.90175781 19.12424805 2.90175781 19.12424805 3.75 18.3125 C4.82945902 17.22658488 5.90760833 16.13936609 6.984375 15.05078125 C7.46616211 14.58325439 7.94794922 14.11572754 8.44433594 13.6340332 C10.43317568 11.54500238 12.19815452 9.25230685 14 7 C7.07 6.505 7.07 6.505 0 6 C0 4.02 0 2.04 0 0 Z " fill="#112356" transform="translate(47,176)"/>
<path d="M0 0 C19.47 0 38.94 0 59 0 C54 6 54 6 52 7 C50.3351936 7.09039906 48.66676579 7.11755257 46.99951172 7.11352539 C45.43811966 7.11341209 45.43811966 7.11341209 43.84518433 7.11329651 C42.71807037 7.10813522 41.59095642 7.10297394 40.4296875 7.09765625 C39.27832306 7.0962413 38.12695862 7.09482635 36.94070435 7.09336853 C33.25211014 7.08775716 29.56357595 7.0752027 25.875 7.0625 C23.37890712 7.05748647 20.8828133 7.05292331 18.38671875 7.04882812 C12.25779191 7.03778403 6.12890024 7.0210348 0 7 C0 4.69 0 2.38 0 0 Z " fill="#1B2855" transform="translate(73,84)"/>
<path d="M0 0 C10.45832274 -0.0304025 20.91664029 -0.05090448 31.375 -0.0625 C32.14167118 -0.06335602 32.90834236 -0.06421204 33.698246 -0.06509399 C56.14545247 -0.08726075 78.57050216 -0.00053283 101 1 C102 3 102 3 102 9 C87.81 9 73.62 9 59 9 C60.65 7.02 62.3 5.04 64 3 C32.32 2.505 32.32 2.505 0 2 C0 1.34 0 0.68 0 0 Z " fill="#3C4F87" transform="translate(74,75)"/>
<path d="M0 0 C3.3 0 6.6 0 10 0 C9.67 10.89 9.34 21.78 9 33 C5.7 33 2.4 33 -1 33 C-0.67 22.11 -0.34 11.22 0 0 Z " fill="#142659" transform="translate(80,176)"/>
<path d="M0 0 C17.49 0 34.98 0 53 0 C49.86372651 3.13627349 48.24842352 3.81907784 44.125 5.125 C43.09632813 5.45757812 42.06765625 5.79015625 41.0078125 6.1328125 C29.1847219 9.54154771 15.94085714 9.23514286 4.69921875 3.91015625 C3.09381239 3.00610978 1.53837046 2.01392599 0 1 C0 0.67 0 0.34 0 0 Z " fill="#354985" transform="translate(98,136)"/>
<path d="M0 0 C0 0.33 0 0.66 0 1 C-17.49 1 -34.98 1 -53 1 C-40.40565154 -11.59434846 -13.83983915 -9.54922739 0 0 Z " fill="#2C3863" transform="translate(151,46)"/>
<path d="M0 0 C14.52 0 29.04 0 44 0 C39 6 39 6 37 7 C34.30106819 7.08675538 31.62830769 7.11557897 28.9296875 7.09765625 C27.73534592 7.09553383 27.73534592 7.09553383 26.51687622 7.09336853 C23.9695462 7.08776345 21.42230353 7.07521014 18.875 7.0625 C17.14974085 7.05748565 15.42448033 7.05292263 13.69921875 7.04882812 C9.46611209 7.03779237 5.23307086 7.02052436 1 7 C0.67 4.69 0.34 2.38 0 0 Z " fill="#1D2956" transform="translate(73,99)"/>
<path d="M0 0 C9.44114904 -0.02328345 18.88228802 -0.04099603 28.32345963 -0.05181217 C32.70848869 -0.05700624 37.09349795 -0.06403993 41.47851562 -0.07543945 C45.71901389 -0.0863929 49.95949324 -0.09230294 54.20000458 -0.09487724 C55.80891975 -0.09670923 57.41783402 -0.10028606 59.02674103 -0.10573006 C62.70879987 -0.11768088 66.38872272 -0.11366651 70.07043457 -0.05813599 C72.58147247 -0.02098642 75.09331845 -0.01576457 77.60437012 -0.05197144 C78.67046509 -0.0328067 79.73656006 -0.01364197 80.83496094 0.00610352 C81.74566345 0.00522232 82.65636597 0.00434113 83.59466553 0.00343323 C86 1 86 1 90 9 C82.08 9 74.16 9 66 9 C67.65 7.02 69.3 5.04 71 3 C47.57 2.67 24.14 2.34 0 2 C0 1.34 0 0.68 0 0 Z " fill="#46568A" transform="translate(82,60)"/>
<path d="M0 0 C24.75 0 49.5 0 75 0 C74.34 0.99 73.68 1.98 73 3 C70.03955078 3.35403442 70.03955078 3.35403442 66.1953125 3.32470703 C65.49597595 3.32353882 64.7966394 3.32237061 64.07611084 3.32116699 C61.7587753 3.31396478 59.4421706 3.28574033 57.125 3.2578125 C55.51839861 3.24967924 53.91178917 3.24301492 52.30517578 3.23776245 C48.0708895 3.22061939 43.83692146 3.18635299 39.6027832 3.14770508 C32.82496002 3.08857952 26.0469747 3.05469209 19.26898193 3.02193832 C16.89685572 3.00794146 14.52488912 2.98635284 12.15283203 2.96365356 C10.70345165 2.95363225 9.25407017 2.94376657 7.8046875 2.93408203 C6.53608887 2.92281281 5.26749023 2.91154358 3.96044922 2.89993286 C1.06910447 2.79180495 1.06910447 2.79180495 -1 4 C-0.67 2.68 -0.34 1.36 0 0 Z " fill="#24305C" transform="translate(87,54)"/>
<path d="M0 0 C7.92 0 15.84 0 24 0 C19 6 19 6 17 7 C14.69278756 7.20012995 12.37754271 7.31288327 10.0625 7.375 C8.81597656 7.42398438 7.56945312 7.47296875 6.28515625 7.5234375 C3 7 3 7 1.05859375 4.6015625 C0 2 0 2 0 0 Z " fill="#1B2856" transform="translate(78,114)"/>
<path d="M0 0 C2 2 2 2 2.375 4.9375 C2 8 2 8 0.3125 9.9375 C-2.61449654 11.28233625 -3.98584989 11.03115662 -7 10 C-9 8 -9 8 -9.375 5.0625 C-9 2 -9 2 -7.3125 0.0625 C-4.38550346 -1.28233625 -3.01415011 -1.03115662 0 0 Z " fill="#8990A9" transform="translate(215,168)"/>
<path d="M0 0 C0.66 0.33 1.32 0.66 2 1 C3.7325 0.7215625 3.7325 0.7215625 5.5 0.4375 C6.655 0.293125 7.81 0.14875 9 0 C9.66 0.66 10.32 1.32 11 2 C10.625 5.125 10.625 5.125 10 8 C6.25 9.125 6.25 9.125 4 8 C3.67 8.99 3.34 9.98 3 11 C2.67 10.34 2.34 9.68 2 9 C1.34 9 0.68 9 0 9 C-0.33 8.34 -0.66 7.68 -1 7 C-2.32 7.33 -3.64 7.66 -5 8 C-4.34 6.35 -3.68 4.7 -3 3 C-2.34 3 -1.68 3 -1 3 C-0.67 2.01 -0.34 1.02 0 0 Z " fill="#868588" transform="translate(149,221)"/>
<path d="M0 0 C2.00720923 0.28674418 4.0085944 0.61866701 6 1 C6.95024979 4.69541586 6.95024979 7.30458414 6 11 C3.69 11 1.38 11 -1 11 C-1.02688151 9.35425434 -1.04634123 7.70838587 -1.0625 6.0625 C-1.07410156 5.14597656 -1.08570313 4.22945312 -1.09765625 3.28515625 C-1 1 -1 1 0 0 Z " fill="#A2A1A4" transform="translate(51,218)"/>
<path d="M0 0 C0.66 0 1.32 0 2 0 C2 0.99 2 1.98 2 3 C3.32 3.33 4.64 3.66 6 4 C5.01 4.33 4.02 4.66 3 5 C2.67 6.98 2.34 8.96 2 11 C0.0085944 11.38133299 -1.99279077 11.71325582 -4 12 C-5 11 -5 11 -5.09765625 8.93359375 C-5.08605469 8.10988281 -5.07445313 7.28617188 -5.0625 6.4375 C-5.05347656 5.61121094 -5.04445313 4.78492188 -5.03515625 3.93359375 C-5.02355469 3.29550781 -5.01195313 2.65742188 -5 2 C-3.68 2.33 -2.36 2.66 -1 3 C-0.67 2.01 -0.34 1.02 0 0 Z " fill="#C6C6C9" transform="translate(113,218)"/>
<path d="M0 0 C3.3 0 6.6 0 10 0 C10 2.31 10 4.62 10 7 C6.7 7 3.4 7 0 7 C0 4.69 0 2.38 0 0 Z " fill="#313F6C" transform="translate(81,163)"/>
<path d="M0 0 C0.66 0 1.32 0 2 0 C2 3.63 2 7.26 2 11 C-3 12 -3 12 -6 10 C-6.3125 7.5 -6.3125 7.5 -6 5 C-5.34 4.34 -4.68 3.68 -4 3 C-2.68 3 -1.36 3 0 3 C0 2.01 0 1.02 0 0 Z " fill="#909093" transform="translate(100,218)"/>
<path d="M0 0 C0.33 0 0.66 0 1 0 C1 3.63 1 7.26 1 11 C-4 12 -4 12 -5.875 10.875 C-7 9 -7 9 -6.6875 6.3125 C-6.460625 5.549375 -6.23375 4.78625 -6 4 C-4.35 3.67 -2.7 3.34 -1 3 C-0.67 2.01 -0.34 1.02 0 0 Z " fill="#838386" transform="translate(198,218)"/>
<path d="M0 0 C2.00720923 0.28674418 4.0085944 0.61866701 6 1 C6.125 3.875 6.125 3.875 6 7 C5.34 7.66 4.68 8.32 4 9 C1.06546739 8.63318342 0.13562754 8.13562754 -2 6 C-1.44444444 1.44444444 -1.44444444 1.44444444 0 0 Z " fill="#BDBCBF" transform="translate(77,221)"/>
<path d="M0 0 C2.625 0.375 2.625 0.375 5 1 C5 2.32 5 3.64 5 5 C3.35 5.33 1.7 5.66 0 6 C1.65 6.33 3.3 6.66 5 7 C4.67 7.66 4.34 8.32 4 9 C-0.875 8.125 -0.875 8.125 -2 7 C-2.1875 4.5625 -2.1875 4.5625 -2 2 C-1.34 1.34 -0.68 0.68 0 0 Z " fill="#A1A1A5" transform="translate(185,221)"/>
<path d="M0 0 C0.99 0.33 1.98 0.66 3 1 C3 3.31 3 5.62 3 8 C2.01 8.33 1.02 8.66 0 9 C-0.33 8.34 -0.66 7.68 -1 7 C-2.32 7.33 -3.64 7.66 -5 8 C-4.34 6.35 -3.68 4.7 -3 3 C-2.34 3 -1.68 3 -1 3 C-0.67 2.01 -0.34 1.02 0 0 Z " fill="#C0C0C2" transform="translate(149,221)"/>
<path d="M0 0 C1.67542976 0.28604898 3.34385343 0.61781233 5 1 C5.33 2.32 5.66 3.64 6 5 C4.02 5 2.04 5 0 5 C-0.33 5.66 -0.66 6.32 -1 7 C-1.04254356 5.00045254 -1.04080783 2.99958364 -1 1 C-0.67 0.67 -0.34 0.34 0 0 Z " fill="#A2A2A6" transform="translate(124,221)"/>
<path d="M0 0 C7.92 0 15.84 0 24 0 C23.01 0.99 22.02 1.98 21 3 C20.67 2.67 20.34 2.34 20 2 C18.5112814 1.91330568 17.018555 1.89296506 15.52734375 1.90234375 C14.17866211 1.90717773 14.17866211 1.90717773 12.80273438 1.91210938 C11.38444336 1.92467773 11.38444336 1.92467773 9.9375 1.9375 C8.98810547 1.94201172 8.03871094 1.94652344 7.06054688 1.95117188 C4.70696935 1.9629989 2.35351523 1.97947975 0 2 C0 1.34 0 0.68 0 0 Z " fill="#273461" transform="translate(78,114)"/>
<path d="M0 0 C2.0625 0.4375 2.0625 0.4375 4 1 C3.67 2.65 3.34 4.3 3 6 C1.68 6 0.36 6 -1 6 C-1.042721 4.33388095 -1.04063832 2.66617115 -1 1 C-0.67 0.67 -0.34 0.34 0 0 Z " fill="#F4F4F6" transform="translate(194,222)"/>
<path d="M0 0 C1.98 0.495 1.98 0.495 4 1 C4 2.65 4 4.3 4 6 C2.35 5.67 0.7 5.34 -1 5 C-0.67 3.35 -0.34 1.7 0 0 Z " fill="#F0F0F2" transform="translate(154,222)"/>
<path d="M0 0 C0.66 0 1.32 0 2 0 C2 0.99 2 1.98 2 3 C3.32 3.33 4.64 3.66 6 4 C5.01 4.33 4.02 4.66 3 5 C2.67 6.98 2.34 8.96 2 11 C1.34 11 0.68 11 0 11 C0 7.37 0 3.74 0 0 Z " fill="#96969A" transform="translate(113,218)"/>
<path d="M0 0 C0.99 0.33 1.98 0.66 3 1 C3 2.65 3 4.3 3 6 C1.35 5.67 -0.3 5.34 -2 5 C-1.125 1.125 -1.125 1.125 0 0 Z " fill="#F5F5F7" transform="translate(97,222)"/>
<path d="M0 0 C1.65 0 3.3 0 5 0 C5 1.32 5 2.64 5 4 C3.35 4 1.7 4 0 4 C0 2.68 0 1.36 0 0 Z " fill="#E9EAED" transform="translate(51,224)"/>
<path d="M0 0 C2.475 0.99 2.475 0.99 5 2 C5.33 1.34 5.66 0.68 6 0 C6.33 1.32 6.66 2.64 7 4 C5.02 4 3.04 4 1 4 C0.67 4.66 0.34 5.32 0 6 C0 4.02 0 2.04 0 0 Z " fill="#8C8C92" transform="translate(60,222)"/>
<path d="M0 0 C2.375 -0.125 2.375 -0.125 5 0 C5.66 0.66 6.32 1.32 7 2 C6.625 4.625 6.625 4.625 6 7 C5.34 6.67 4.68 6.34 4 6 C4 4.68 4 3.36 4 2 C3.01 2 2.02 2 1 2 C0.34 2.66 -0.32 3.32 -1 4 C-0.67 2.68 -0.34 1.36 0 0 Z " fill="#F1F2F5" transform="translate(209,169)"/>
<path d="M0 0 C1.32 0.33 2.64 0.66 4 1 C2.25 4.875 2.25 4.875 0 6 C0 4.02 0 2.04 0 0 Z " fill="#5A6386" transform="translate(210,170)"/>
</svg>
