<?xml version="1.0" encoding="UTF-8"?>
<svg version="1.1" xmlns="http://www.w3.org/2000/svg" width="992" height="992">
<path d="M0 0 C327.36 0 654.72 0 992 0 C992 327.36 992 654.72 992 992 C664.64 992 337.28 992 0 992 C0 664.64 0 337.28 0 0 Z " fill="#FEFEFE" transform="translate(0,0)"/>
<path d="M0 0 C1.17064782 -0.0068354 2.34129564 -0.0136708 3.54741764 -0.02071333 C6.77975846 -0.03157647 10.0095045 -0.00672638 13.24153876 0.03351116 C16.73290653 0.06817155 20.22416097 0.05636008 23.71565247 0.05029297 C29.75903739 0.0461051 35.80172952 0.07113008 41.84494019 0.11619568 C50.58220198 0.1813089 59.31912996 0.20205693 68.05660808 0.21209961 C82.23356648 0.22959366 96.41015591 0.28279199 110.58691406 0.35852051 C124.35545002 0.43199177 138.12388563 0.48859987 151.89257812 0.52258301 C152.74177008 0.5246848 153.59096203 0.52678658 154.46588707 0.52895206 C158.72618167 0.53939263 162.98647698 0.54950223 167.24677277 0.55944729 C202.5708654 0.64233437 237.89452948 0.78319833 273.21826172 0.96203613 C272.38048832 5.22486171 270.17486783 7.37803753 267.12451172 10.31359863 C266.61778931 10.81370453 266.11106689 11.31381042 265.58898926 11.82907104 C263.97236658 13.42232619 262.34591742 15.00506058 260.71826172 16.58703613 C259.09238608 18.17784857 257.46866928 19.77078155 255.84753418 21.36642456 C254.83904439 22.35793783 253.82749256 23.34634808 252.81262207 24.33132935 C250.17524834 26.88635087 250.17524834 26.88635087 248.21826172 29.96203613 C248.81215195 29.93094757 249.40604218 29.89985901 250.01792908 29.86782837 C256.23039002 29.55676205 262.44062838 29.34646665 268.65893555 29.19299316 C270.97495401 29.12281569 273.290357 29.02743474 275.60424805 28.90588379 C294.27782653 27.94991225 294.27782653 27.94991225 299.1098938 31.25646973 C302.60651293 34.95779122 304.36832892 39.27724521 306.21826172 43.96203613 C307.06243561 45.43405789 307.93208179 46.89239228 308.84716797 48.32141113 C309.48525391 49.44031738 310.12333984 50.55922363 310.78076172 51.71203613 C311.12171875 52.29984863 311.46267578 52.88766113 311.81396484 53.49328613 C314.21826172 57.71169031 314.21826172 57.71169031 314.21826172 59.96203613 C313.02080322 59.95901993 311.82334473 59.95600372 310.58959961 59.95289612 C299.28988015 59.92899424 287.9907174 59.94186866 276.69107056 59.99050236 C270.88208256 60.01432899 265.07366781 60.02531843 259.26464844 60.00671387 C253.65569251 59.98922661 248.04776516 60.00579535 242.43893433 60.04571342 C240.30200981 60.0549885 238.16499598 60.05211103 236.02810669 60.03672981 C233.02785046 60.01723567 230.03082257 60.04143386 227.03076172 60.07556152 C226.15250229 60.05974533 225.27424286 60.04392914 224.36936951 60.02763367 C218.24544426 60.1611685 215.2238018 61.94912355 210.8717947 66.22608376 C210.32612882 66.79894804 209.78046293 67.37181232 209.21826172 67.96203613 C208.37851807 68.75907959 207.53877441 69.55612305 206.67358398 70.37731934 C205.9677417 71.08203369 205.26189941 71.78674805 204.53466797 72.51281738 C203.75285156 73.29334473 202.97103516 74.07387207 202.16552734 74.87805176 C201.37855469 75.6688916 200.59158203 76.45973145 199.78076172 77.27453613 C198.96671875 78.08471191 198.15267578 78.8948877 197.31396484 79.72961426 C196.54117187 80.50369629 195.76837891 81.27777832 194.97216797 82.07531738 C194.27422119 82.77439209 193.57627441 83.4734668 192.85717773 84.19372559 C191.14463494 85.87595782 191.14463494 85.87595782 190.21826172 87.96203613 C234.76826172 87.96203613 279.31826172 87.96203613 325.21826172 87.96203613 C331.26694846 109.13243972 331.26694846 109.13243972 331.21826172 117.96203613 C330.33919411 117.96073731 329.4601265 117.9594385 328.55442047 117.95810032 C307.15439895 117.92888553 285.75469705 117.93827195 264.35471344 117.99050236 C254.00575255 118.01483215 243.65708435 118.02614722 233.30810547 118.00671387 C224.28679519 117.98980675 215.26589432 117.99743088 206.24463797 118.03438371 C201.46879382 118.05309324 196.69364195 118.05960558 191.9178009 118.03672981 C187.41946547 118.01557115 182.92239634 118.02729397 178.42417145 118.06388092 C176.77628467 118.07155372 175.12829181 118.06736955 173.48047638 118.0502224 C163.19958581 117.7388274 163.19958581 117.7388274 154.33372498 122.3664856 C153.26235662 123.53570297 152.21872222 124.73159791 151.21826172 125.96203613 C150.37851807 126.75907959 149.53877441 127.55612305 148.67358398 128.37731934 C147.9677417 129.08203369 147.26189941 129.78674805 146.53466797 130.51281738 C145.75285156 131.29334473 144.97103516 132.07387207 144.16552734 132.87805176 C143.37855469 133.6688916 142.59158203 134.45973145 141.78076172 135.27453613 C140.96671875 136.08471191 140.15267578 136.8948877 139.31396484 137.72961426 C138.54117188 138.50369629 137.76837891 139.27777832 136.97216797 140.07531738 C135.9252478 141.12392944 135.9252478 141.12392944 134.85717773 142.19372559 C133.14463494 143.87595782 133.14463494 143.87595782 132.21826172 145.96203613 C198.54826172 145.96203613 264.87826172 145.96203613 333.21826172 145.96203613 C333.21826172 168.24598675 333.21826172 168.24598675 332.21826172 174.96203613 C330.33736093 176.84293693 327.6090401 176.0810271 325.10666078 176.08465588 C324.22011247 176.08085915 323.33356417 176.07706242 322.42015076 176.07315063 C321.48572382 176.07314965 320.55129687 176.07314867 319.58855397 176.07314765 C316.43181748 176.07210783 313.27513468 176.06407506 310.1184082 176.05627441 C307.86526018 176.05439671 305.61211166 176.05305098 303.35896301 176.05220032 C298.49330128 176.04991081 293.62764979 176.04517938 288.7619915 176.03900528 C281.06836585 176.03062439 273.37479039 176.03601986 265.6811676 176.04501343 C264.38426371 176.04648443 263.08735981 176.04795544 261.75115579 176.04947102 C259.09839307 176.052542 256.44563039 176.05566203 253.79286778 176.05883002 C246.96713731 176.06695467 240.1414067 176.07438997 233.31567383 176.0802002 C232.63049642 176.08078914 231.945319 176.08137808 231.23937864 176.08198486 C220.14824161 176.09084095 209.05722243 176.0779617 197.96610474 176.05790748 C186.57993464 176.03791224 175.19404718 176.04506485 163.80787903 176.07505405 C157.41459477 176.09091941 151.0218586 176.09410878 144.62859917 176.06729507 C138.61113285 176.04228106 132.59458456 176.04979223 126.57716179 176.0821743 C124.369705 176.08826774 122.16217769 176.0824183 119.95479202 176.06368065 C116.93717779 176.03983693 113.92275074 176.05914651 110.90525818 176.08901978 C109.59885829 176.06324818 109.59885829 176.06324818 108.26606649 176.03695595 C102.19283087 176.16194773 99.20134656 177.98187958 94.88517147 182.21664608 C94.33509125 182.79262479 93.78501104 183.36860351 93.21826172 183.96203613 C92.3482251 184.78937256 91.47818848 185.61670898 90.58178711 186.46911621 C89.83405029 187.2157251 89.08631348 187.96233398 88.31591797 188.73156738 C87.48898437 189.55721191 86.66205078 190.38285645 85.81005859 191.23352051 C84.97539062 192.07205566 84.14072266 192.91059082 83.28076172 193.77453613 C82.41902344 194.63240723 81.55728516 195.49027832 80.66943359 196.37414551 C79.85152344 197.19334473 79.03361328 198.01254395 78.19091797 198.85656738 C77.08115601 199.96802124 77.08115601 199.96802124 75.94897461 201.10192871 C74.15377504 202.85612683 74.15377504 202.85612683 73.21826172 204.96203613 C156.04826172 204.96203613 238.87826172 204.96203613 324.21826172 204.96203613 C323.09307754 212.83832536 323.09307754 212.83832536 321.40576172 216.95031738 C321.05255859 217.8210791 320.69935547 218.69184082 320.33544922 219.58898926 C319.96677734 220.47521973 319.59810547 221.3614502 319.21826172 222.27453613 C318.84958984 223.18010254 318.48091797 224.08566895 318.10107422 225.01867676 C315.46679488 231.46496981 315.46679488 231.46496981 314.21826172 233.96203613 C313.6478717 233.96149406 313.07748169 233.96095199 312.48980713 233.96039349 C278.67825328 233.9291481 244.86691572 233.93432776 211.05538911 233.9867611 C206.99493426 233.99302638 202.93447901 233.99898755 198.87402344 234.00476074 C197.66148626 234.0064924 197.66148626 234.0064924 196.42445338 234.00825905 C183.33833347 234.02622266 170.25233627 234.0195547 157.16621852 234.00377197 C143.73703046 233.9881242 130.30805198 233.9989741 116.87890053 234.03438371 C108.59333008 234.05539687 100.30828728 234.05578119 92.02272898 234.02971631 C86.33975064 234.0138193 80.65717912 234.02367812 74.97425932 234.05369628 C71.69598083 234.070255 68.41892224 234.07172733 65.14064217 234.0502224 C61.58230349 234.0286675 58.02670612 234.05012872 54.46850586 234.08229065 C52.92178947 234.05754224 52.92178947 234.05754224 51.34382629 234.03229386 C44.79324884 234.1511734 41.46464815 235.56523848 36.82124901 240.22584718 C36.2922632 240.79878954 35.7632774 241.37173189 35.21826172 241.96203613 C34.37851807 242.75907959 33.53877441 243.55612305 32.67358398 244.37731934 C31.9677417 245.08203369 31.26189941 245.78674805 30.53466797 246.51281738 C29.75285156 247.29334473 28.97103516 248.07387207 28.16552734 248.87805176 C27.37855469 249.6688916 26.59158203 250.45973145 25.78076172 251.27453613 C24.55969727 252.4897998 24.55969727 252.4897998 23.31396484 253.72961426 C22.54117188 254.50369629 21.76837891 255.27777832 20.97216797 256.07531738 C20.27422119 256.77439209 19.57627441 257.4734668 18.85717773 258.19372559 C17.14463494 259.87595782 17.14463494 259.87595782 16.21826172 261.96203613 C108.94826172 261.96203613 201.67826172 261.96203613 297.21826172 261.96203613 C295.2672419 265.86407577 292.96439563 269.06503119 290.28076172 272.46203613 C289.85730469 273.01117676 289.43384766 273.56031738 288.99755859 274.12609863 C288.05809206 275.32153964 287.08573827 276.49163865 286.08740711 277.63837814 C284.11060417 279.98490392 284.11060417 279.98490392 282.44587994 282.93892288 C279.19891089 287.60635404 276.26571443 291.16370606 270.59525132 292.6491766 C263.02354641 293.68640714 255.38698847 293.49737024 247.76224482 293.35482359 C244.26071408 293.30267233 240.75942435 293.32056108 237.25761414 293.32965088 C231.20082468 293.33592299 225.1455944 293.29849272 219.08919716 293.23079681 C210.33310619 293.13298891 201.57776396 293.10199148 192.82118597 293.08694091 C178.61237893 293.06072087 164.40440175 292.98098225 150.19604492 292.86730957 C136.39953748 292.75704709 122.60325598 292.67216276 108.80639648 292.62121582 C107.52931032 292.6164868 107.52931032 292.6164868 106.22642443 292.61166224 C101.95495845 292.59600102 97.68349087 292.58083671 93.41202223 292.5659194 C58.01351067 292.44165454 22.61596294 292.23041766 -12.78173828 291.96203613 C-11.93376337 287.58399549 -9.54796097 285.3425352 -6.43408203 282.32141113 C-5.9027919 281.79436584 -5.37150177 281.26732056 -4.82411194 280.7243042 C-3.12941003 279.04636426 -1.42456611 277.37916885 0.28076172 275.71203613 C1.43313917 274.57470869 2.58484024 273.43669547 3.73583984 272.29797363 C6.55553356 269.51131622 9.3843676 266.73424821 12.21826172 263.96203613 C11.62437149 263.98059662 11.03048126 263.9991571 10.41859436 264.01828003 C4.20436701 264.19853162 -2.00566166 264.2792834 -8.22241211 264.30383301 C-10.53789301 264.325819 -12.85328247 264.37268326 -15.16772461 264.44543457 C-33.84836708 265.00798349 -33.84836708 265.00798349 -38.681427 261.63705444 C-41.66963918 258.45362375 -43.44543644 254.87347218 -45.01332092 250.83311462 C-46.3233446 247.64323726 -48.11073559 244.75192792 -49.84423828 241.77453613 C-52.78173828 236.37246697 -52.78173828 236.37246697 -52.78173828 232.96203613 C-51.04550705 233.02984787 -51.04550705 233.02984787 -49.27420044 233.09902954 C-38.24614924 233.51205101 -27.22219267 233.78134467 -16.18716621 233.91800117 C-10.51542149 233.99264683 -4.85350952 234.11389567 0.81396484 234.35070801 C6.30810422 234.57841278 11.79111099 234.67187182 17.28979874 234.68102646 C19.36271032 234.70640767 21.43567766 234.7763366 23.50527573 234.89621353 C31.51364734 235.33721873 35.85643343 234.10854063 44.21826172 231.96203613 C52.79826172 223.38203613 61.37826172 214.80203613 70.21826172 205.96203613 C3.39326172 205.46703613 3.39326172 205.46703613 -64.78173828 204.96203613 C-70.78173828 182.46203613 -70.78173828 182.46203613 -70.78173828 174.96203613 C-69.91410921 174.98084902 -69.04648014 174.9996619 -68.15255928 175.01904488 C-46.9223162 175.47023207 -25.69428407 175.7736845 -4.45965767 175.91800117 C5.81042677 175.9912664 16.07557357 176.11227955 26.34326172 176.35070801 C35.30587218 176.55870431 44.26415897 176.67202091 53.22925961 176.67736995 C57.96734694 176.68335496 62.69489679 176.73279918 67.43038559 176.89621353 C71.91481937 177.0494544 76.3835959 177.07340753 80.87001228 177.00923729 C82.49157223 177.00682394 84.11401839 177.04684002 85.7329731 177.13875389 C92.40018949 177.49585932 95.18969302 176.25640753 102.21826172 173.96203613 C110.79826172 165.38203613 119.37826172 156.80203613 128.21826172 147.96203613 C28.72326172 147.46703613 28.72326172 147.46703613 -72.78173828 146.96203613 C-72.78173828 124.46203613 -72.78173828 124.46203613 -70.78173828 116.96203613 C-69.03191997 116.99025546 -69.03191997 116.99025546 -67.24675179 117.01904488 C-39.44033562 117.4615743 -11.63496142 117.76693047 16.17466759 117.90755243 C19.61107961 117.92504667 23.04748459 117.94367785 26.48388672 117.9630127 C27.16789866 117.96684215 27.8519106 117.97067161 28.55665018 117.97461711 C39.57578518 118.03900795 50.59175522 118.1950955 61.60933827 118.38620342 C72.94837144 118.58080336 84.28434939 118.67231046 95.62534821 118.67736995 C101.98315542 118.68337382 108.33313192 118.73360646 114.68902206 118.89621353 C120.69567915 119.0483993 126.6906172 119.07373465 132.69872856 119.00923729 C134.88131111 119.00680721 137.06452479 119.0474763 139.2451992 119.13875389 C147.33652997 119.45852985 151.82876588 118.19376422 160.21826172 115.96203613 C168.79826172 107.38203613 177.37826172 98.80203613 186.21826172 89.96203613 C61.97326172 89.46703613 61.97326172 89.46703613 -64.78173828 88.96203613 C-62.74343683 81.48826414 -60.66244629 74.78203472 -57.59423828 67.77453613 C-57.22621094 66.9179541 -56.85818359 66.06137207 -56.47900391 65.17883301 C-55.58634181 63.10368346 -54.68727029 61.03159364 -53.78173828 58.96203613 C-52.93323175 58.97367127 -52.93323175 58.97367127 -52.06758368 58.98554146 C-18.43071831 59.44343818 15.20448424 59.76329575 48.84414067 59.90755243 C52.89642408 59.92504743 56.94870153 59.94367856 61.00097656 59.9630127 C61.80760371 59.96684215 62.61423086 59.97067161 63.44530125 59.97461711 C76.45264931 60.03906966 89.45732414 60.19523673 102.46336 60.38620342 C115.84074155 60.58054699 129.21619337 60.67423973 142.59499705 60.67736995 C150.83153141 60.68238429 159.05983498 60.76289534 167.29439349 60.94476883 C172.96597537 61.06245897 178.63289585 61.08106083 184.30540912 61.02690215 C187.56747044 60.99852803 190.8122574 61.02365234 194.07280731 61.13875389 C195.87908978 61.19897948 195.87908978 61.19897948 197.72186279 61.26042175 C199.27864085 61.33309627 199.27864085 61.33309627 200.86686897 61.40723896 C224.54329837 59.70300925 224.03650372 52.14379413 244.21826172 31.96203613 C151.48826172 31.63203613 58.75826172 31.30203613 -36.78173828 30.96203613 C-33.10879098 25.45261518 -29.67831468 20.3558211 -25.40673828 15.39953613 C-24.97619141 14.88713379 -24.54564453 14.37473145 -24.10205078 13.84680176 C-23.21788172 12.80970229 -22.3179427 11.78580934 -21.40163994 10.77698851 C-20.28312561 9.523795 -19.20264893 8.23597215 -18.15526009 6.92275286 C-12.59283514 0.49332392 -8.27237718 -0.1775662 0 0 Z " fill="#253C7D" transform="translate(352.78173828125,208.0379638671875)"/>
<path d="M0 0 C1.17064782 -0.0068354 2.34129564 -0.0136708 3.54741764 -0.02071333 C6.77975846 -0.03157647 10.0095045 -0.00672638 13.24153876 0.03351116 C16.73290653 0.06817155 20.22416097 0.05636008 23.71565247 0.05029297 C29.75903739 0.0461051 35.80172952 0.07113008 41.84494019 0.11619568 C50.58220198 0.1813089 59.31912996 0.20205693 68.05660808 0.21209961 C82.23356648 0.22959366 96.41015591 0.28279199 110.58691406 0.35852051 C124.35545002 0.43199177 138.12388563 0.48859987 151.89257812 0.52258301 C152.74177008 0.5246848 153.59096203 0.52678658 154.46588707 0.52895206 C158.72618167 0.53939263 162.98647698 0.54950223 167.24677277 0.55944729 C202.5708654 0.64233437 237.89452948 0.78319833 273.21826172 0.96203613 C272.38048832 5.22486171 270.17486783 7.37803753 267.12451172 10.31359863 C266.61778931 10.81370453 266.11106689 11.31381042 265.58898926 11.82907104 C263.97236658 13.42232619 262.34591742 15.00506058 260.71826172 16.58703613 C259.09238608 18.17784857 257.46866928 19.77078155 255.84753418 21.36642456 C254.83904439 22.35793783 253.82749256 23.34634808 252.81262207 24.33132935 C250.17524834 26.88635087 250.17524834 26.88635087 248.21826172 29.96203613 C248.81215195 29.93094757 249.40604218 29.89985901 250.01792908 29.86782837 C256.23039002 29.55676205 262.44062838 29.34646665 268.65893555 29.19299316 C270.97495401 29.12281569 273.290357 29.02743474 275.60424805 28.90588379 C294.27782653 27.94991225 294.27782653 27.94991225 299.1098938 31.25646973 C302.60651293 34.95779122 304.36832892 39.27724521 306.21826172 43.96203613 C307.06243561 45.43405789 307.93208179 46.89239228 308.84716797 48.32141113 C309.48525391 49.44031738 310.12333984 50.55922363 310.78076172 51.71203613 C311.12171875 52.29984863 311.46267578 52.88766113 311.81396484 53.49328613 C314.21826172 57.71169031 314.21826172 57.71169031 314.21826172 59.96203613 C313.02080322 59.95901993 311.82334473 59.95600372 310.58959961 59.95289612 C299.28988015 59.92899424 287.9907174 59.94186866 276.69107056 59.99050236 C270.88208256 60.01432899 265.07366781 60.02531843 259.26464844 60.00671387 C253.65569251 59.98922661 248.04776516 60.00579535 242.43893433 60.04571342 C240.30200981 60.0549885 238.16499598 60.05211103 236.02810669 60.03672981 C233.02785046 60.01723567 230.03082257 60.04143386 227.03076172 60.07556152 C226.15250229 60.05974533 225.27424286 60.04392914 224.36936951 60.02763367 C218.24544426 60.1611685 215.2238018 61.94912355 210.8717947 66.22608376 C210.32612882 66.79894804 209.78046293 67.37181232 209.21826172 67.96203613 C208.37851807 68.75907959 207.53877441 69.55612305 206.67358398 70.37731934 C205.9677417 71.08203369 205.26189941 71.78674805 204.53466797 72.51281738 C203.75285156 73.29334473 202.97103516 74.07387207 202.16552734 74.87805176 C201.37855469 75.6688916 200.59158203 76.45973145 199.78076172 77.27453613 C198.96671875 78.08471191 198.15267578 78.8948877 197.31396484 79.72961426 C196.54117187 80.50369629 195.76837891 81.27777832 194.97216797 82.07531738 C194.27422119 82.77439209 193.57627441 83.4734668 192.85717773 84.19372559 C191.14463494 85.87595782 191.14463494 85.87595782 190.21826172 87.96203613 C234.76826172 87.96203613 279.31826172 87.96203613 325.21826172 87.96203613 C331.26694846 109.13243972 331.26694846 109.13243972 331.21826172 117.96203613 C330.33919411 117.96073731 329.4601265 117.9594385 328.55442047 117.95810032 C307.15439895 117.92888553 285.75469705 117.93827195 264.35471344 117.99050236 C254.00575255 118.01483215 243.65708435 118.02614722 233.30810547 118.00671387 C224.28679519 117.98980675 215.26589432 117.99743088 206.24463797 118.03438371 C201.46879382 118.05309324 196.69364195 118.05960558 191.9178009 118.03672981 C187.41946547 118.01557115 182.92239634 118.02729397 178.42417145 118.06388092 C176.77628467 118.07155372 175.12829181 118.06736955 173.48047638 118.0502224 C163.44917287 117.71276814 163.44917287 117.71276814 154.64898682 121.87272644 C152.02908517 124.68927475 149.90169608 127.80385999 147.69952393 130.95196533 C142.15399733 138.58059243 136.14720644 145.16264308 126.64793396 147.08155823 C113.90611529 148.95873104 100.82747513 148.32437673 87.99684811 147.98991489 C82.33328573 147.8637877 76.6694498 147.85305613 71.00469971 147.82940674 C60.30775418 147.76755752 49.61495943 147.60388947 38.91983151 147.40241694 C26.73155584 147.17786486 14.54306823 147.06865728 2.35323477 146.96850824 C-22.69404626 146.76017313 -47.73765845 146.40902784 -72.78173828 145.96203613 C-72.83641449 143.00344556 -72.87573226 140.0458961 -72.90673828 137.08703613 C-72.92349609 136.26461426 -72.94025391 135.44219238 -72.95751953 134.59484863 C-73.0051704 128.49553788 -72.18429097 122.89323698 -70.78173828 116.96203613 C-69.03191997 116.99025546 -69.03191997 116.99025546 -67.24675179 117.01904488 C-39.44033562 117.4615743 -11.63496142 117.76693047 16.17466759 117.90755243 C19.61107961 117.92504667 23.04748459 117.94367785 26.48388672 117.9630127 C27.16789866 117.96684215 27.8519106 117.97067161 28.55665018 117.97461711 C39.57578518 118.03900795 50.59175522 118.1950955 61.60933827 118.38620342 C72.94837144 118.58080336 84.28434939 118.67231046 95.62534821 118.67736995 C101.98315542 118.68337382 108.33313192 118.73360646 114.68902206 118.89621353 C120.69567915 119.0483993 126.6906172 119.07373465 132.69872856 119.00923729 C134.88131111 119.00680721 137.06452479 119.0474763 139.2451992 119.13875389 C147.33652997 119.45852985 151.82876588 118.19376422 160.21826172 115.96203613 C168.79826172 107.38203613 177.37826172 98.80203613 186.21826172 89.96203613 C61.97326172 89.46703613 61.97326172 89.46703613 -64.78173828 88.96203613 C-62.74343683 81.48826414 -60.66244629 74.78203472 -57.59423828 67.77453613 C-57.22621094 66.9179541 -56.85818359 66.06137207 -56.47900391 65.17883301 C-55.58634181 63.10368346 -54.68727029 61.03159364 -53.78173828 58.96203613 C-52.93323175 58.97367127 -52.93323175 58.97367127 -52.06758368 58.98554146 C-18.43071831 59.44343818 15.20448424 59.76329575 48.84414067 59.90755243 C52.89642408 59.92504743 56.94870153 59.94367856 61.00097656 59.9630127 C61.80760371 59.96684215 62.61423086 59.97067161 63.44530125 59.97461711 C76.45264931 60.03906966 89.45732414 60.19523673 102.46336 60.38620342 C115.84074155 60.58054699 129.21619337 60.67423973 142.59499705 60.67736995 C150.83153141 60.68238429 159.05983498 60.76289534 167.29439349 60.94476883 C172.96597537 61.06245897 178.63289585 61.08106083 184.30540912 61.02690215 C187.56747044 60.99852803 190.8122574 61.02365234 194.07280731 61.13875389 C195.87908978 61.19897948 195.87908978 61.19897948 197.72186279 61.26042175 C199.27864085 61.33309627 199.27864085 61.33309627 200.86686897 61.40723896 C224.54329837 59.70300925 224.03650372 52.14379413 244.21826172 31.96203613 C151.48826172 31.63203613 58.75826172 31.30203613 -36.78173828 30.96203613 C-33.10879098 25.45261518 -29.67831468 20.3558211 -25.40673828 15.39953613 C-24.97619141 14.88713379 -24.54564453 14.37473145 -24.10205078 13.84680176 C-23.21788172 12.80970229 -22.3179427 11.78580934 -21.40163994 10.77698851 C-20.28312561 9.523795 -19.20264893 8.23597215 -18.15526009 6.92275286 C-12.59283514 0.49332392 -8.27237718 -0.1775662 0 0 Z " fill="#1D2956" transform="translate(352.78173828125,208.0379638671875)"/>
<path d="M0 0 C6.79964383 5.69319291 11.39037496 12.25826926 13.203125 21.0234375 C13.4442274 25.39407691 13.39309919 29.77187154 13.390625 34.1484375 C13.39101776 34.81504395 13.39141052 35.48165039 13.39181519 36.16845703 C13.38147031 51.15312266 12.62499479 66.09222236 11.85166931 81.05328369 C11.80651688 81.92773132 11.76136444 82.80217896 11.71484375 83.703125 C11.6699733 84.57064392 11.62510284 85.43816284 11.57887268 86.33197021 C10.92409506 99.22300381 10.57891023 112.12147791 10.203125 125.0234375 C-2.006875 125.0234375 -14.216875 125.0234375 -26.796875 125.0234375 C-25.85406335 88.11909589 -25.85406335 88.11909589 -25.234375 76.3359375 C-24.84616591 68.31762685 -24.59778099 60.30043787 -24.484375 52.2734375 C-24.454646 51.20134033 -24.42491699 50.12924316 -24.39428711 49.0246582 C-24.33212883 40.68825132 -25.69042383 33.50872418 -31.359375 27.1484375 C-39.14946694 21.66218228 -48.4397195 19.6576043 -57.796875 21.0234375 C-67.07559656 23.62839535 -74.3480843 27.87111107 -79.734375 35.91796875 C-85.0925929 45.5069462 -86.62476937 55.21077316 -87.796875 66.0234375 C-87.8792189 66.75917999 -87.96156281 67.49492249 -88.04640198 68.25296021 C-88.73882261 74.73715686 -89.08562187 81.20380573 -89.33203125 87.71875 C-89.37500839 88.79220673 -89.41798553 89.86566345 -89.46226501 90.97164917 C-89.59743634 94.36380798 -89.72847442 97.75611148 -89.859375 101.1484375 C-89.95089753 103.46355253 -90.04269177 105.77865683 -90.13476562 108.09375 C-90.3591151 113.73684679 -90.57786159 119.38012106 -90.796875 125.0234375 C-103.336875 125.0234375 -115.876875 125.0234375 -128.796875 125.0234375 C-128.796875 118.39698955 -128.76660308 112.04912635 -128.17578125 105.49609375 C-128.11156479 104.74106064 -128.04734833 103.98602753 -127.98118591 103.20811462 C-127.77826738 100.83365645 -127.56899884 98.45981206 -127.359375 96.0859375 C-127.22287571 94.50329237 -127.08680557 92.92061017 -126.95117188 91.33789062 C-125.94444702 79.62534252 -125.94444702 79.62534252 -125.49365234 74.73193359 C-124.79950474 67.00100951 -124.51666113 59.28107383 -124.296875 51.5234375 C-123.90881199 37.82625066 -123.90881199 37.82625066 -123.30078125 31.1328125 C-122.63126866 23.68991928 -122.44764344 16.24062333 -122.234375 8.7734375 C-122.09 3.9059375 -121.945625 -0.9615625 -121.796875 -5.9765625 C-109.586875 -5.9765625 -97.376875 -5.9765625 -84.796875 -5.9765625 C-84.796875 0.2934375 -84.796875 6.5634375 -84.796875 13.0234375 C-83.53875 11.5178125 -82.280625 10.0121875 -80.984375 8.4609375 C-62.20138413 -12.28839772 -23.08172912 -16.31194823 0 0 Z " fill="#112457" transform="translate(504.796875,685.9765625)"/>
<path d="M0 0 C1.79957153 -0.02670776 1.79957153 -0.02670776 3.63549805 -0.05395508 C18.60236982 -0.04062567 35.46014207 2.70040064 46.69140625 13.41796875 C56.7986544 25.23005394 53.76084247 43.34739695 52.66744995 57.70953369 C52.5799649 58.83019226 52.49247986 59.95085083 52.40234375 61.10546875 C51.25934205 76.41352272 50.45210356 91.7316165 49.6875 107.0625 C49.55267251 109.72919688 49.41693101 112.3958463 49.28125 115.0625 C48.95485236 121.47899992 48.6337667 127.89573311 48.3125 134.3125 C36.4325 134.3125 24.5525 134.3125 12.3125 134.3125 C12.98292127 111.92042951 14.58305589 89.64396743 16.3125 67.3125 C15.51223389 67.72169678 14.71196777 68.13089355 13.88745117 68.55249023 C12.82502197 69.09075439 11.76259277 69.62901855 10.66796875 70.18359375 C9.09631958 70.98301392 9.09631958 70.98301392 7.49291992 71.79858398 C1.26887977 74.76129781 -5.28032821 76.64868507 -11.90625 78.4921875 C-22.91590184 81.57411681 -32.9553355 84.39665379 -40 94.125 C-41.49761963 98.89015336 -41.17655251 102.97404049 -39.5 107.5625 C-36.22693913 112.52852339 -32.47656236 115.04943185 -26.6875 116.3125 C-17.08612512 117.17164971 -8.01992623 115.30215432 1.3125 113.3125 C1.1784375 113.96992187 1.044375 114.62734375 0.90625 115.3046875 C0.45416508 117.59485455 0.04527281 119.8935942 -0.34375 122.1953125 C-0.62295588 123.60978003 -0.90425227 125.02383631 -1.1875 126.4375 C-1.29835938 127.15292969 -1.40921875 127.86835937 -1.5234375 128.60546875 C-2.16879732 131.63413106 -2.72764537 133.64312582 -5.33081055 135.45849609 C-12.34826699 138.22476445 -20.08402234 137.7536157 -27.5 137.6875 C-28.78970703 137.69910156 -30.07941406 137.71070313 -31.40820312 137.72265625 C-43.93405588 137.68464152 -56.26894697 135.99052011 -65.87890625 127.33984375 C-74.01312154 118.84610513 -77.14040104 108.90406447 -76.953125 97.27734375 C-75.9340405 85.90256231 -69.74022372 78.77983256 -61.546875 71.37890625 C-45.93246725 59.12214212 -23.03464778 56.11025567 -4.26416016 51.74951172 C2.72733308 50.08408913 8.91647469 47.76424683 14 42.5625 C15.78033057 38.15406239 15.596426 34.85239519 14.3125 30.3125 C11.96156671 25.98678275 9.25449706 24.57474514 4.67895508 22.9453125 C0.2959441 21.77325385 -4.04698267 21.73993404 -8.5625 21.75 C-9.59246094 21.7502417 -10.62242187 21.7504834 -11.68359375 21.75073242 C-25.37718472 22.04425479 -39.4670447 25.06094303 -52.25 30.01171875 C-55.6875 31.3125 -55.6875 31.3125 -58.6875 31.3125 C-58.37891842 28.24959203 -58.06493707 25.18726048 -57.75 22.125 C-57.66298828 21.26068359 -57.57597656 20.39636719 -57.48632812 19.50585938 C-57.39931641 18.66474609 -57.31230469 17.82363281 -57.22265625 16.95703125 C-57.144104 16.18721924 -57.06555176 15.41740723 -56.98461914 14.62426758 C-56.66748865 12.15679953 -56.20129214 9.74595507 -55.6875 7.3125 C-36.93800362 3.1690957 -19.22502818 0.18135671 0 0 Z " fill="#122458" transform="translate(741.6875,676.6875)"/>
<path d="M0 0 C33.66 0 67.32 0 102 0 C102 30.43671366 102 30.43671366 96.98828125 35.5859375 C96.39893799 36.20235107 95.80959473 36.81876465 95.20239258 37.45385742 C94.57872803 38.08783447 93.95506348 38.72181152 93.3125 39.375 C92.03041656 40.71144054 90.74915586 42.04867088 89.46875 43.38671875 C88.8603125 44.01755371 88.251875 44.64838867 87.625 45.29833984 C85.79587783 47.21375173 84.03812935 49.17849524 82.3125 51.1875 C79.44315317 54.52175366 76.47997676 57.76483875 73.5 61 C70.46105508 64.30022784 67.43843789 67.60949474 64.5 71 C61.56155935 74.39050844 58.53883698 77.69966982 55.5 81 C52.42184079 84.3437503 49.35916579 87.6966793 46.375 91.125 C42.30474738 95.798253 38.14576017 100.39359982 34 105 C54.79 105.33 75.58 105.66 97 106 C97 121 97 121 96 131 C61.35 131 26.7 131 -9 131 C-9 102 -9 102 -4 97 C-3.41476562 96.42636719 -2.82953125 95.85273437 -2.2265625 95.26171875 C1.39620306 91.70080528 4.79958714 88.01370728 8.1171875 84.16796875 C10.2157532 81.75157049 12.354397 79.37470976 14.5 77 C17.76704335 73.37976277 20.99520776 69.73016435 24.1953125 66.05078125 C26.22958141 63.73911203 28.3022231 61.4646857 30.375 59.1875 C33.42858867 55.81059018 36.34429205 52.36782868 39.1875 48.8125 C43.65709919 43.27114967 48.48432919 38.10576445 53.39135742 32.95043945 C53.97377197 32.33644287 54.55618652 31.72244629 55.15625 31.08984375 C55.94225586 30.26794556 55.94225586 30.26794556 56.74414062 29.42944336 C58.10415176 28.00367301 58.10415176 28.00367301 59 26 C39.2 26 19.4 26 -1 26 C-0.67 17.42 -0.34 8.84 0 0 Z " fill="#122457" transform="translate(547,680)"/>
<path d="M0 0 C33.66 0 67.32 0 102 0 C102 30.43671366 102 30.43671366 96.98828125 35.5859375 C96.39893799 36.20235107 95.80959473 36.81876465 95.20239258 37.45385742 C94.57872803 38.08783447 93.95506348 38.72181152 93.3125 39.375 C92.03041656 40.71144054 90.74915586 42.04867088 89.46875 43.38671875 C88.8603125 44.01755371 88.251875 44.64838867 87.625 45.29833984 C85.79587783 47.21375173 84.03812935 49.17849524 82.3125 51.1875 C79.44315317 54.52175366 76.47997676 57.76483875 73.5 61 C70.46105508 64.30022784 67.43843789 67.60949474 64.5 71 C61.56155935 74.39050844 58.53883698 77.69966982 55.5 81 C52.42184079 84.3437503 49.35916579 87.6966793 46.375 91.125 C42.30474738 95.798253 38.14576017 100.39359982 34 105 C54.79 105.33 75.58 105.66 97 106 C97 121 97 121 96 131 C61.35 131 26.7 131 -9 131 C-9 102 -9 102 -4 97 C-3.41476563 96.42636719 -2.82953125 95.85273437 -2.2265625 95.26171875 C1.39620306 91.70080528 4.79958714 88.01370728 8.1171875 84.16796875 C10.2157532 81.75157049 12.354397 79.37470976 14.5 77 C17.76704335 73.37976277 20.99520776 69.73016435 24.1953125 66.05078125 C26.22958141 63.73911203 28.3022231 61.4646857 30.375 59.1875 C33.42858867 55.81059018 36.34429205 52.36782868 39.1875 48.8125 C43.65709919 43.27114967 48.48432919 38.10576445 53.39135742 32.95043945 C53.97377197 32.33644287 54.55618652 31.72244629 55.15625 31.08984375 C55.94225586 30.26794556 55.94225586 30.26794556 56.74414062 29.42944336 C58.10415176 28.00367301 58.10415176 28.00367301 59 26 C39.2 26 19.4 26 -1 26 C-0.67 17.42 -0.34 8.84 0 0 Z " fill="#122458" transform="translate(181,680)"/>
<path d="M0 0 C7.72241568 0.03608652 15.4448543 0.06503437 23.1673003 0.09375555 C36.9259087 0.14510282 50.68448999 0.20167802 64.44306265 0.26180107 C77.76531769 0.32000568 91.08757966 0.37558614 104.40985952 0.42781669 C105.65286622 0.43269127 105.65286622 0.43269127 106.92098416 0.43766433 C111.08041911 0.45396038 115.23985424 0.47020674 119.39928947 0.48642844 C153.6118307 0.61992025 187.82433107 0.76200489 222.03681265 0.90999443 C220.18696588 4.79734597 217.75802658 8.04453375 215.09931265 11.40999443 C214.67585562 11.95913505 214.25239859 12.50827568 213.81610952 13.07405693 C212.87664299 14.26949793 211.9042892 15.43959695 210.90595804 16.58633644 C208.9291551 18.93286221 208.9291551 18.93286221 207.26443087 21.88688118 C204.01746182 26.55431234 201.08426536 30.11166436 195.41380225 31.59713489 C187.84209734 32.63436543 180.2055394 32.44532854 172.58079575 32.30278188 C169.07926501 32.25063062 165.57797528 32.26851938 162.07616507 32.27760917 C156.0193756 32.28388129 149.96414533 32.24645102 143.90774809 32.17875511 C135.15165712 32.08094721 126.39631489 32.04994977 117.6397369 32.03489921 C103.43092986 32.00867916 89.22295268 31.92894055 75.01459585 31.81526786 C61.21808841 31.70500539 47.42180691 31.62012106 33.62494741 31.56917411 C32.77355664 31.56602143 31.92216586 31.56286875 31.04497536 31.55962053 C26.77350938 31.54395932 22.5020418 31.528795 18.23057316 31.51387769 C-17.1679384 31.38961283 -52.56548613 31.17837596 -87.96318735 30.90999443 C-87.11524915 26.5321433 -84.73019173 24.29086168 -81.6155311 21.26936943 C-81.14474131 20.80160087 -80.67395151 20.33383232 -80.18889536 19.85188896 C-78.43432942 18.11297493 -76.66672605 16.38725554 -74.90068735 14.65999443 C-70.96131235 10.78249443 -67.02193735 6.90499443 -62.96318735 2.90999443 C-87.21818735 2.41499443 -87.21818735 2.41499443 -111.96318735 1.90999443 C-111.96318735 1.57999443 -111.96318735 1.24999443 -111.96318735 0.90999443 C-74.63688348 -0.0319112 -37.33429023 -0.17566831 0 0 Z " fill="#273D7E" transform="translate(427.96318735182285,469.0900055728853)"/>
<path d="M0 0 C1.68022074 0.00959692 1.68022074 0.00959692 3.39438534 0.01938772 C31.6797198 0.18131761 59.96491952 0.36104035 88.25 0.5625 C88.26190336 3.25001331 88.27053601 5.93747281 88.27734375 8.625 C88.28100952 9.37716797 88.28467529 10.12933594 88.28845215 10.90429688 C88.30025611 17.13678776 88.16937999 23.38789859 87.25 29.5625 C85.25482405 31.55767595 81.24332215 30.72162493 78.51077271 30.72744751 C77.27581972 30.73591521 77.27581972 30.73591521 76.0159182 30.74455398 C73.22562464 30.76240036 70.43534914 30.77302402 67.64501953 30.78369141 C65.64323421 30.79488922 63.64145114 30.80649594 61.63967037 30.81848049 C56.1331029 30.85002124 50.62652267 30.87502022 45.1199162 30.89864087 C40.4392607 30.91934095 35.75862408 30.94331109 31.07798392 30.96719462 C17.15059985 31.03798932 3.22318143 31.09797221 -10.70426559 31.15483475 C-17.27691765 31.18170939 -23.84956143 31.21020961 -30.42220432 31.23923129 C-101.84624272 31.5538846 -173.26402995 31.6170191 -244.6875 31.125 C-245.61104877 31.11864312 -246.53459753 31.11228624 -247.48613262 31.10573673 C-270.24095692 30.94829376 -292.99556967 30.76934414 -315.75 30.5625 C-315.75 30.2325 -315.75 29.9025 -315.75 29.5625 C-314.44855639 29.59071933 -314.44855639 29.59071933 -313.120821 29.61950874 C-291.89057791 30.07069594 -270.66254579 30.37414837 -249.42791939 30.51846504 C-239.15783495 30.59173026 -228.89268815 30.71274342 -218.625 30.95117188 C-209.66238954 31.15916817 -200.70410275 31.27248478 -191.73900211 31.27783382 C-187.00091478 31.28381883 -182.27336493 31.33326305 -177.53787613 31.4966774 C-173.05344235 31.64991826 -168.58466582 31.6738714 -164.09824944 31.60970116 C-162.47668949 31.60728781 -160.85424332 31.64730389 -159.23528862 31.73921776 C-152.56807223 32.09632319 -149.7785687 30.85687139 -142.75 28.5625 C-134.17 19.9825 -125.59 11.4025 -116.75 2.5625 C-216.245 2.0675 -216.245 2.0675 -317.75 1.5625 C-317.75 1.2325 -317.75 0.9025 -317.75 0.5625 C-287.95846231 0.35329083 -258.16679676 0.16824003 -228.375 0 C-226.68634103 -0.00957426 -226.68634103 -0.00957426 -224.96356773 -0.01934195 C-149.97249716 -0.44292786 -74.99099243 -0.4300563 0 0 Z " fill="#2A4080" transform="translate(597.75,353.4375)"/>
<path d="M0 0 C75.57 0 151.14 0 229 0 C227.02 2.31 225.04 4.62 223 7 C221.80317227 8.72323054 220.62200018 10.45750527 219.46125793 12.20524597 C212.81739714 21.09578784 206.08831411 27.83724919 194.84974772 29.56302351 C182.84789913 30.87534901 170.72295158 30.45940543 158.67719245 30.1292727 C153.01635786 29.99675537 147.35521579 29.98556476 141.69306946 29.96073914 C131.00303296 29.89582063 120.31758063 29.72400492 109.62955076 29.51239985 C97.44856868 29.27654399 85.26735144 29.16193387 73.08464944 29.05679572 C48.05390471 28.83809732 23.02721068 28.46944409 -2 28 C-2.05455703 25.02058002 -2.09393851 22.04218469 -2.125 19.0625 C-2.14175781 18.23169922 -2.15851563 17.40089844 -2.17578125 16.54492188 C-2.18222656 15.71669922 -2.18867188 14.88847656 -2.1953125 14.03515625 C-2.20578613 13.2862915 -2.21625977 12.53742676 -2.22705078 11.76586914 C-1.90047846 7.78765644 -0.8658984 3.89654279 0 0 Z " fill="#1C2855" transform="translate(282,326)"/>
<path d="M0 0 C38.94767305 -0.03017558 77.89534737 -0.05060362 116.84303015 -0.06185675 C119.05582965 -0.06249807 121.26862914 -0.06315689 123.48142862 -0.06381607 C267.89169384 -0.10615512 267.89169384 -0.10615512 338.4375 0.5 C339.13577235 0.50597372 339.83404469 0.51194743 340.55347681 0.51810217 C357.03585173 0.65946001 373.51803822 0.81646136 390 1 C390.64156166 3.23019951 391.28196185 5.46073317 391.921875 7.69140625 C392.45699707 9.55454468 392.45699707 9.55454468 393.00292969 11.45532227 C394.90921741 18.2323525 396.03895815 23.93473467 396 31 C371.93769746 31.21482738 347.87519744 31.39807481 323.8125 31.5625 C322.41803736 31.57207426 322.41803736 31.57207426 320.99540377 31.58184195 C246.55696938 32.09063393 172.12633695 31.93165421 97.6875 31.5625 C96.39291131 31.55610205 95.09832261 31.5497041 93.76450396 31.54311228 C60.50957591 31.37843959 27.25474648 31.19793595 -6 31 C-6 30.67 -6 30.34 -6 30 C-4.25018168 30.02821933 -4.25018168 30.02821933 -2.4650135 30.05700874 C25.34140266 30.49953816 53.14677686 30.80489433 80.95640587 30.9455163 C84.39281789 30.96301054 87.82922287 30.98164171 91.265625 31.00097656 C91.94963694 31.00480602 92.63364888 31.00863548 93.33838846 31.01258098 C104.35752347 31.07697181 115.3734935 31.23305937 126.39107655 31.42416729 C137.73010972 31.61876723 149.06608767 31.71027432 160.40708649 31.71533382 C166.7648937 31.72133769 173.1148702 31.77157032 179.47076035 31.9341774 C185.47741743 32.08636317 191.47235548 32.11169852 197.48046684 32.04720116 C199.66304939 32.04477108 201.84626307 32.08544017 204.02693748 32.17671776 C212.11826825 32.49649371 216.61050417 31.23172809 225 29 C233.58 20.42 242.16 11.84 251 3 C126.755 2.505 126.755 2.505 0 2 C0 1.34 0 0.68 0 0 Z " fill="#2E4280" transform="translate(288,295)"/>
<path d="M0 0 C12.54 0 25.08 0 38 0 C37.0493666 19.097546 37.0493666 19.097546 36.62269592 27.18592834 C35.48779648 48.8071671 34.73473818 70.40944429 34.32641602 92.05664062 C34.07989942 105.05336229 33.6586077 118.01601953 33 131 C20.13 131 7.26 131 -6 131 C-6 120 -6 120 -5 115 C-4.80731247 112.52342454 -4.65155124 110.06203368 -4.53515625 107.58203125 C-4.49760223 106.83652008 -4.46004822 106.09100891 -4.4213562 105.32290649 C-4.2972394 102.81963473 -4.17955326 100.31611142 -4.0625 97.8125 C-4.02053497 96.94239288 -3.97856995 96.07228577 -3.93533325 95.17581177 C-2.98675378 75.44300553 -2.32866868 55.69948794 -1.69750977 35.9543457 C-1.658284 34.75127777 -1.61905823 33.54820984 -1.5786438 32.3086853 C-1.50602854 30.07529374 -1.43533414 27.84183833 -1.36715698 25.60830688 C-1.08780073 17.04911617 -0.53499958 8.55999328 0 0 Z " fill="#122458" transform="translate(312,680)"/>
<path d="M0 0 C56.43 0 112.86 0 171 0 C169.02 2.31 167.04 4.62 165 7 C163.64869403 8.73310778 162.29973838 10.46805197 160.95368958 12.20524597 C152.87382322 21.93778636 146.04191135 28.92882194 132.94100475 30.23280811 C126.60900094 30.47261684 120.3338937 30.38910724 114.00451255 30.1292727 C110.1937737 29.9959076 106.38249063 29.98550286 102.56977844 29.96073914 C95.38481902 29.89605051 88.20675457 29.72460398 81.02480203 29.51239985 C72.83440223 29.27577464 64.64363164 29.16175138 56.45065248 29.05679572 C39.629763 28.83862802 22.8157674 28.47049259 6 28 C5.51703342 26.58996616 5.03748194 25.17876234 4.55932617 23.76708984 C4.29190109 22.9813559 4.02447601 22.19562195 3.74894714 21.38607788 C2.63815986 17.84721004 1.9508646 14.27379436 1.3125 10.625 C1.18294922 9.92761719 1.05339844 9.23023438 0.91992188 8.51171875 C0.39717041 5.62967097 0 2.93530982 0 0 Z " fill="#1C2855" transform="translate(282,384)"/>
<path d="M0 0 C1.85238281 0.02900391 1.85238281 0.02900391 3.7421875 0.05859375 C30.10279256 1.12204114 56.75831194 9.91705218 80.375 21.1875 C82.02556396 21.97241821 82.02556396 21.97241821 83.70947266 22.77319336 C85.25707275 23.52548218 85.25707275 23.52548218 86.8359375 24.29296875 C87.75938965 24.7418042 88.6828418 25.19063965 89.63427734 25.65307617 C92 27 92 27 95 30 C26.03 30 -42.94 30 -114 30 C-110.59135479 26.59135479 -108.77766255 25.14992654 -104.6328125 23.16015625 C-103.58988037 22.65693848 -102.54694824 22.1537207 -101.47241211 21.63525391 C-100.36776611 21.11624512 -99.26312012 20.59723633 -98.125 20.0625 C-96.41872437 19.2569165 -96.41872437 19.2569165 -94.67797852 18.43505859 C-64.61509327 4.39726168 -33.02566259 -0.95938343 0 0 Z " fill="#222D59" transform="translate(493,151)"/>
<path d="M0 0 C67.98 0 135.96 0 206 0 C202.82567956 3.17432044 199.65684392 4.87950855 195.6875 6.8125 C194.974729 7.1628833 194.26195801 7.5132666 193.52758789 7.87426758 C174.77479028 17.00608277 156.28094481 22.79052649 135.79052734 26.49511719 C133.56152056 26.89840555 131.33661122 27.32431902 129.11328125 27.7578125 C110.88067177 30.82175398 90.13725704 30.32328623 72 27 C71.23075195 26.86577637 70.46150391 26.73155273 69.66894531 26.59326172 C47.89678327 22.76085191 26.89569778 16.00101142 7.3125 5.625 C6.6827124 5.29137451 6.0529248 4.95774902 5.40405273 4.61401367 C1.13328466 2.26656932 1.13328466 2.26656932 0 0 Z " fill="#233A7D" transform="translate(380,529)"/>
<path d="M0 0 C4.68075669 -0.08675849 9.36087792 -0.11925137 14.04234397 -0.13992077 C16.18933966 -0.16219845 18.33624836 -0.20876372 20.48211133 -0.28196794 C36.15076688 -0.80447917 36.15076688 -0.80447917 40.41507733 2.5796538 C43.76105184 6.36247404 45.71274684 10.60052182 47.68756545 15.20871001 C48.53885278 16.67662945 49.41009888 18.13352378 50.3164717 19.56808501 C50.95455763 20.68699126 51.59264357 21.80589751 52.25006545 22.95871001 C52.59102248 23.54652251 52.93197951 24.13433501 53.28326857 24.73996001 C55.68756545 28.95836419 55.68756545 28.95836419 55.68756545 31.20871001 C0.14086951 32.02879352 -55.39403305 32.29732704 -110.94524705 32.08761626 C-111.68139297 32.08485181 -112.41753888 32.08208736 -113.17599225 32.07923913 C-131.99211409 32.00827911 -150.80816957 31.92422978 -169.62421429 31.83535451 C-180.52922669 31.78397253 -191.43425103 31.73626395 -202.33929002 31.69088775 C-203.12003193 31.68763803 -203.90077383 31.68438831 -204.70517458 31.68104012 C-208.62635145 31.66473706 -212.54752855 31.64849215 -216.46870577 31.632276 C-248.41665784 31.5000806 -280.36455708 31.35788333 -312.31243455 31.20871001 C-312.31243455 30.87871001 -312.31243455 30.54871001 -312.31243455 30.20871001 C-311.74676354 30.21646677 -311.18109252 30.22422353 -310.59827995 30.23221534 C-276.96141458 30.69011206 -243.32621204 31.00996963 -209.6865556 31.15422631 C-205.63427219 31.17172131 -201.58199474 31.19035244 -197.52971971 31.20968658 C-196.72309256 31.21351603 -195.91646542 31.21734549 -195.08539502 31.22129099 C-182.07804697 31.28574354 -169.07337214 31.44191061 -156.06733628 31.63287731 C-142.68995473 31.82722087 -129.31450291 31.92091362 -115.93569922 31.92404383 C-107.69916487 31.92905817 -99.4708613 32.00956922 -91.23630278 32.19144271 C-85.56472091 32.30913285 -79.89780043 32.32773472 -74.22528715 32.27357604 C-70.96322583 32.24520192 -67.71843887 32.27032622 -64.45788896 32.38542777 C-62.6516065 32.44565336 -62.6516065 32.44565336 -60.80883348 32.50709563 C-59.25205542 32.57977015 -59.25205542 32.57977015 -57.6638273 32.65391284 C-33.98739791 30.94968313 -34.49419255 23.39046801 -14.31243455 3.20871001 C-107.04243455 2.87871001 -199.77243455 2.54871001 -295.31243455 2.20871001 C-295.31243455 1.87871001 -295.31243455 1.54871001 -295.31243455 1.20871001 C-259.9836288 1.05720242 -224.65480237 0.91217783 -189.32593627 0.77546242 C-185.12433265 0.7591977 -180.92272925 0.74288107 -176.72112596 0.72653228 C-175.88490689 0.72327936 -175.04868781 0.72002643 -174.18712877 0.71667493 C-160.77051705 0.66436091 -147.35392616 0.60787247 -133.93733849 0.54975181 C-120.09898136 0.48990035 -106.26061084 0.43474198 -92.42221856 0.38365448 C-84.67965542 0.35494402 -76.93711223 0.32422118 -69.19457948 0.28817588 C-66.22223805 0.27457524 -63.24989578 0.26117241 -60.27755296 0.24787933 C-59.55187952 0.24459283 -58.82620609 0.24130633 -58.07854255 0.23792025 C-50.32062153 0.20361175 -42.56300162 0.18135249 -34.80500543 0.19635707 C-34.13540525 0.19760825 -33.46580507 0.19885942 -32.77591398 0.20014851 C-29.46415588 0.20668695 -26.1524054 0.21452212 -22.84065318 0.22358191 C-15.2239141 0.23550106 -7.6150748 0.15747581 0 0 Z " fill="#364883" transform="translate(611.3124345541,236.7912899851799)"/>
<path d="M0 0 C31.35 0 62.7 0 95 0 C93.02 2.31 91.04 4.62 89 7 C87.86850155 8.74248573 86.76050429 10.50060264 85.68359375 12.27734375 C79.32785604 21.27629351 73.06777758 27.29648316 62.0234375 29.28613281 C55.00295641 30.2373756 48.01362206 30.45313116 40.9375 30.5625 C39.16788406 30.63571976 39.16788406 30.63571976 37.36251831 30.7104187 C18.72066103 31.32164567 18.72066103 31.32164567 12.76104736 26.00115967 C8.37809358 20.53750017 5.64613578 14.4336772 3 8 C2.41081787 6.84056885 1.82163574 5.6811377 1.21459961 4.48657227 C0 2 0 2 0 0 Z " fill="#1C2855" transform="translate(300,442)"/>
<path d="M0 0 C4.91875371 2.8482311 8.18962787 6.91835141 11.0625 11.75 C12.59965201 18.35975366 12.50248613 24.57787886 9.0859375 30.55078125 C5.17275963 35.83029217 0.25822713 40.17927566 -6.3125 41.4375 C-12.74499456 42.03310135 -18.13576183 40.89138757 -23.26953125 36.92578125 C-28.60956888 31.92300916 -31.38751884 26.90820876 -31.75 19.5 C-31.53161443 13.50349619 -29.77766425 9.06622965 -25.6640625 4.6796875 C-18.44453639 -1.84625969 -9.19223757 -4.11882953 0 0 Z " fill="#F8F8FA" transform="translate(829.3125,650.5625)"/>
<path d="M0 0 C20.94459834 0 20.94459834 0 26.90625 4.41015625 C28.77088058 7.12052998 28.52317888 9.6455548 28.4296875 12.83984375 C28 15 28 15 25.625 17.5 C24.10342264 18.36947277 22.56746434 19.21626783 21 20 C21.763125 20.268125 22.52625 20.53625 23.3125 20.8125 C25.98215202 21.99211368 27.20111001 22.75783053 29 25 C29.68888272 28.06552808 29.58473948 30.91928922 29 34 C26.23605818 37.60847959 24.08866546 38.95566727 20 41 C13.4 41 6.8 41 0 41 C0 27.47 0 13.94 0 0 Z " fill="#373435" transform="translate(195,847)"/>
<path d="M0 0 C12.54 0 25.08 0 38 0 C37.67 8.25 37.34 16.5 37 25 C24.79 25 12.58 25 0 25 C0 16.75 0 8.5 0 0 Z " fill="#16275A" transform="translate(313,633)"/>
<path d="M0 0 C0.99 0 1.98 0 3 0 C3 14.19 3 28.38 3 43 C2.34 43 1.68 43 1 43 C1 41.68 1 40.36 1 39 C0.2575 39.66 -0.485 40.32 -1.25 41 C-5.99679163 44.17208033 -11.53475619 43.75884872 -17 43 C-21.23686634 40.71209218 -22.53014456 38.47292216 -24 34 C-24.6331296 28.11778428 -24.83267993 22.78871986 -22.3125 17.375 C-18.62355007 13.58634873 -16.45952265 12.16478482 -11.125 11.5625 C-6.58160934 11.70933962 -3.73131741 13.51245506 0 16 C0 10.72 0 5.44 0 0 Z " fill="#FAFAFB" transform="translate(767,845)"/>
<path d="M0 0 C0.99 0 1.98 0 3 0 C3 14.19 3 28.38 3 43 C2.34 43 1.68 43 1 43 C1 41.68 1 40.36 1 39 C0.2575 39.66 -0.485 40.32 -1.25 41 C-5.99679163 44.17208033 -11.53475619 43.75884872 -17 43 C-21.23686634 40.71209218 -22.53014456 38.47292216 -24 34 C-24.6331296 28.11778428 -24.83267993 22.78871986 -22.3125 17.375 C-18.62355007 13.58634873 -16.45952265 12.16478482 -11.125 11.5625 C-6.58160934 11.70933962 -3.73131741 13.51245506 0 16 C0 10.72 0 5.44 0 0 Z " fill="#FAFAFB" transform="translate(390,845)"/>
<path d="M0 0 C4.2417585 2.09182611 7.32326377 4.49179411 9 9 C10.31608874 20.84479866 10.31608874 20.84479866 7.25 25.625 C2.35090939 30.79626231 2.35090939 30.79626231 -1.875 31.43359375 C-2.90625 31.43488281 -3.9375 31.43617188 -5 31.4375 C-6.03125 31.45683594 -7.0625 31.47617187 -8.125 31.49609375 C-11 31 -11 31 -15 27 C-15.33 32.61 -15.66 38.22 -16 44 C-16.66 44 -17.32 44 -18 44 C-18 29.81 -18 15.62 -18 1 C-17.34 1 -16.68 1 -16 1 C-16 2.32 -16 3.64 -16 5 C-15.34 5 -14.68 5 -14 5 C-14 4.34 -14 3.68 -14 3 C-9.43470781 0.26082469 -5.28497174 -1.09976291 0 0 Z " fill="#FAFAFA" transform="translate(609,857)"/>
<path d="M0 0 C4.30188345 2.45821911 6.3410526 4.16948572 7.78515625 9.046875 C8.65066554 16.43389615 8.33885907 22.06200843 3.78515625 28.046875 C-1.10329141 31.30584011 -6.50636951 30.73413603 -12.21484375 30.046875 C-15.73845324 28.47360287 -17.63375847 26.2352751 -19.33984375 22.74609375 C-20.32085604 19.71984602 -20.51518535 17.22427034 -20.52734375 14.046875 C-20.54410156 13.03625 -20.56085938 12.025625 -20.578125 10.984375 C-20.1589101 7.59459432 -19.23673222 5.77877546 -17.21484375 3.046875 C-11.74006025 -0.92502675 -6.50179143 -2.79794904 0 0 Z " fill="#F9F9FA" transform="translate(313.21484375,857.953125)"/>
<path d="M0 0 C4.91875371 2.8482311 8.18962787 6.91835141 11.0625 11.75 C12.59965201 18.35975366 12.50248613 24.57787886 9.0859375 30.55078125 C5.17275963 35.83029217 0.25822713 40.17927566 -6.3125 41.4375 C-12.74499456 42.03310135 -18.13576183 40.89138757 -23.26953125 36.92578125 C-28.60956888 31.92300916 -31.38751884 26.90820876 -31.75 19.5 C-31.53161443 13.50349619 -29.77766425 9.06622965 -25.6640625 4.6796875 C-18.44453639 -1.84625969 -9.19223757 -4.11882953 0 0 Z M-26.3125 11.1875 C-28.04991427 16.83409637 -28.08806482 22.06518409 -26.25 27.6875 C-23.13693568 32.10604291 -19.49077004 35.71140999 -14.3125 37.4375 C-8.22280402 38.27828643 -4.07655813 37.40726785 0.9609375 33.875 C4.45655796 30.96461916 7.4175555 27.72817192 7.9609375 23.1171875 C8.21038058 16.22872079 7.44476302 11.59524689 2.6875 6.4375 C-2.38508073 2.29661777 -6.8618679 1.69361817 -13.3671875 1.921875 C-19.36739723 2.97230959 -22.82969483 6.39864289 -26.3125 11.1875 Z " fill="#263564" transform="translate(829.3125,650.5625)"/>
<path d="M0 0 C3.3249149 2.06615171 6.23445396 4.46890792 8 8 C8 10.64 8 13.28 8 16 C0.41 16 -7.18 16 -15 16 C-13.76372149 23.48784028 -13.76372149 23.48784028 -10.86328125 26.484375 C-7.23897543 28.40283429 -4.17610845 28.44847621 -0.1875 28.25 C0.50537109 28.23195313 1.19824219 28.21390625 1.91210938 28.1953125 C3.60867664 28.14851064 5.30452476 28.07677624 7 28 C7 28.66 7 29.32 7 30 C2.10097708 32.44951146 -4.65534039 31.61001874 -10 31 C-13.73197424 29.11369887 -16.13559515 26.7288097 -18 23 C-19.3345802 11.44374873 -19.3345802 11.44374873 -16.54296875 6.33203125 C-11.94357014 1.01609475 -7.21749258 -1.43822064 0 0 Z " fill="#2F2C2D" transform="translate(728,857)"/>
<path d="M0 0 C3.3249149 2.06615171 6.23445396 4.46890792 8 8 C8 10.64 8 13.28 8 16 C0.41 16 -7.18 16 -15 16 C-13.76372149 23.48784028 -13.76372149 23.48784028 -10.86328125 26.484375 C-7.23897543 28.40283429 -4.17610845 28.44847621 -0.1875 28.25 C0.50537109 28.23195313 1.19824219 28.21390625 1.91210938 28.1953125 C3.60867664 28.14851064 5.30452476 28.07677624 7 28 C7 28.66 7 29.32 7 30 C2.10097708 32.44951146 -4.65534039 31.61001874 -10 31 C-13.73197424 29.11369887 -16.13559515 26.7288097 -18 23 C-19.3345802 11.44374873 -19.3345802 11.44374873 -16.54296875 6.33203125 C-11.94357014 1.01609475 -7.21749258 -1.43822064 0 0 Z " fill="#2F2C2D" transform="translate(644,857)"/>
<path d="M0 0 C3.3249149 2.06615171 6.23445396 4.46890792 8 8 C8 10.64 8 13.28 8 16 C0.41 16 -7.18 16 -15 16 C-13.76372149 23.48784028 -13.76372149 23.48784028 -10.86328125 26.484375 C-7.23897543 28.40283429 -4.17610845 28.44847621 -0.1875 28.25 C0.50537109 28.23195313 1.19824219 28.21390625 1.91210938 28.1953125 C3.60867664 28.14851064 5.30452476 28.07677624 7 28 C7 28.66 7 29.32 7 30 C2.10097708 32.44951146 -4.65534039 31.61001874 -10 31 C-13.73197424 29.11369887 -16.13559515 26.7288097 -18 23 C-19.3345802 11.44374873 -19.3345802 11.44374873 -16.54296875 6.33203125 C-11.94357014 1.01609475 -7.21749258 -1.43822064 0 0 Z " fill="#2F2C2D" transform="translate(543,857)"/>
<path d="M0 0 C3.3249149 2.06615171 6.23445396 4.46890792 8 8 C8 10.64 8 13.28 8 16 C0.41 16 -7.18 16 -15 16 C-13.76372149 23.48784028 -13.76372149 23.48784028 -10.86328125 26.484375 C-7.23897543 28.40283429 -4.17610845 28.44847621 -0.1875 28.25 C0.50537109 28.23195313 1.19824219 28.21390625 1.91210938 28.1953125 C3.60867664 28.14851064 5.30452476 28.07677624 7 28 C7 28.66 7 29.32 7 30 C2.10097708 32.44951146 -4.65534039 31.61001874 -10 31 C-13.73197424 29.11369887 -16.13559515 26.7288097 -18 23 C-19.3345802 11.44374873 -19.3345802 11.44374873 -16.54296875 6.33203125 C-11.94357014 1.01609475 -7.21749258 -1.43822064 0 0 Z " fill="#2F2C2D" transform="translate(494,857)"/>
<path d="M0 0 C3.3249149 2.06615171 6.23445396 4.46890792 8 8 C8 10.64 8 13.28 8 16 C0.41 16 -7.18 16 -15 16 C-13.76372149 23.48784028 -13.76372149 23.48784028 -10.86328125 26.484375 C-7.23897543 28.40283429 -4.17610845 28.44847621 -0.1875 28.25 C0.50537109 28.23195313 1.19824219 28.21390625 1.91210938 28.1953125 C3.60867664 28.14851064 5.30452476 28.07677624 7 28 C7 28.66 7 29.32 7 30 C2.10097708 32.44951146 -4.65534039 31.61001874 -10 31 C-13.73197424 29.11369887 -16.13559515 26.7288097 -18 23 C-19.3345802 11.44374873 -19.3345802 11.44374873 -16.54296875 6.33203125 C-11.94357014 1.01609475 -7.21749258 -1.43822064 0 0 Z " fill="#2F2C2D" transform="translate(250,857)"/>
<path d="M0 0 C2.68125 -0.103125 5.3625 -0.20625 8.125 -0.3125 C9.37434326 -0.38078003 9.37434326 -0.38078003 10.64892578 -0.45043945 C14.67536587 -0.52489641 17.28883997 -0.22930416 20.51953125 2.296875 C23 5 23 5 23.5625 8.5625 C22.97698407 12.14065289 22.67021052 13.59681053 20 16 C13.35275332 18.74687694 7.10127141 18.13398625 0 18 C0 12.06 0 6.12 0 0 Z " fill="#F4F5F5" transform="translate(198,868)"/>
<path d="M0 0 C15.31479538 -0.43756558 15.31479538 -0.43756558 21 3 C22.43735246 5.87470493 22.38172649 7.81894588 22 11 C17.21209427 15.66190821 13.79944958 16.13896543 7.375 16.0625 C4.94125 16.041875 2.5075 16.02125 0 16 C0 10.72 0 5.44 0 0 Z " fill="#F4F4F4" transform="translate(198,850)"/>
<path d="M0 0 C0.99 0 1.98 0 3 0 C3 14.19 3 28.38 3 43 C2.34 43 1.68 43 1 43 C1 41.68 1 40.36 1 39 C0.2575 39.66 -0.485 40.32 -1.25 41 C-5.99679163 44.17208033 -11.53475619 43.75884872 -17 43 C-21.23686634 40.71209218 -22.53014456 38.47292216 -24 34 C-24.6331296 28.11778428 -24.83267993 22.78871986 -22.3125 17.375 C-18.62355007 13.58634873 -16.45952265 12.16478482 -11.125 11.5625 C-6.58160934 11.70933962 -3.73131741 13.51245506 0 16 C0 10.72 0 5.44 0 0 Z M-20 19 C-21.09697531 22.29092594 -21.2371983 24.91112159 -21.3125 28.375 C-21.34988281 29.49648438 -21.38726563 30.61796875 -21.42578125 31.7734375 C-20.91371636 35.65385586 -19.70908823 37.23562425 -17 40 C-13.30846481 41.8457676 -9.02978061 41.48175083 -5 41 C-1.90200019 38.80873184 -1.19647888 37.58943664 0 34 C0.96760452 25.23078933 0.96760452 25.23078933 -1.875 17.1875 C-5.69000362 14.51699747 -8.0483188 14.25574675 -12.62109375 14.53515625 C-15.96509883 15.18858253 -17.75772351 16.46839751 -20 19 Z " fill="#333032" transform="translate(767,845)"/>
<path d="M0 0 C0.99 0 1.98 0 3 0 C3 14.19 3 28.38 3 43 C2.34 43 1.68 43 1 43 C1 41.68 1 40.36 1 39 C0.2575 39.66 -0.485 40.32 -1.25 41 C-5.99679163 44.17208033 -11.53475619 43.75884872 -17 43 C-21.23686634 40.71209218 -22.53014456 38.47292216 -24 34 C-24.6331296 28.11778428 -24.83267993 22.78871986 -22.3125 17.375 C-18.62355007 13.58634873 -16.45952265 12.16478482 -11.125 11.5625 C-6.58160934 11.70933962 -3.73131741 13.51245506 0 16 C0 10.72 0 5.44 0 0 Z M-20 19 C-21.09697531 22.29092594 -21.2371983 24.91112159 -21.3125 28.375 C-21.34988281 29.49648438 -21.38726562 30.61796875 -21.42578125 31.7734375 C-20.91371636 35.65385586 -19.70908823 37.23562425 -17 40 C-13.30846481 41.8457676 -9.02978061 41.48175083 -5 41 C-1.90200019 38.80873184 -1.19647888 37.58943664 0 34 C0.96760452 25.23078933 0.96760452 25.23078933 -1.875 17.1875 C-5.69000362 14.51699747 -8.0483188 14.25574675 -12.62109375 14.53515625 C-15.96509883 15.18858253 -17.75772351 16.46839751 -20 19 Z " fill="#333032" transform="translate(390,845)"/>
<path d="M0 0 C4.2417585 2.09182611 7.32326377 4.49179411 9 9 C10.31608874 20.84479866 10.31608874 20.84479866 7.25 25.625 C2.35090939 30.79626231 2.35090939 30.79626231 -1.875 31.43359375 C-2.90625 31.43488281 -3.9375 31.43617188 -5 31.4375 C-6.03125 31.45683594 -7.0625 31.47617187 -8.125 31.49609375 C-11 31 -11 31 -15 27 C-15.33 32.61 -15.66 38.22 -16 44 C-16.66 44 -17.32 44 -18 44 C-18 29.81 -18 15.62 -18 1 C-17.34 1 -16.68 1 -16 1 C-16 2.32 -16 3.64 -16 5 C-15.34 5 -14.68 5 -14 5 C-14 4.34 -14 3.68 -14 3 C-9.43470781 0.26082469 -5.28497174 -1.09976291 0 0 Z M-15 8 C-15.71447097 11.62936548 -15.71447097 11.62936548 -15.5 15.5 C-15.4896875 16.7890625 -15.479375 18.078125 -15.46875 19.40625 C-14.98678806 23.10129152 -14.23839976 25.05935718 -12 28 C-9.67404054 29.16297973 -8.21276769 29.16600691 -5.625 29.1875 C-4.85414063 29.20167969 -4.08328125 29.21585938 -3.2890625 29.23046875 C-0.64257727 28.96401375 0.80217463 28.50591738 3 27 C7.01856334 21.74215182 6.79019265 16.35589737 6 10 C4.97139403 7.31755697 4.02037677 6.13582688 2 4 C-0.67703231 3.1076559 -2.59383084 2.74839658 -5.375 2.625 C-6.50035156 2.55152344 -6.50035156 2.55152344 -7.6484375 2.4765625 C-11.32912725 3.29585224 -12.74686316 5.04030457 -15 8 Z " fill="#2F2C2D" transform="translate(609,857)"/>
<path d="M0 0 C10.16 0 10.16 0 14 3 C15 4 15 4 15.25 6.8125 C15 10 15 10 12 14 C13.65 16.97 15.3 19.94 17 23 C15.35 23 13.7 23 12 23 C8 16.25 8 16.25 8 14 C6.68 14 5.36 14 4 14 C4 16.97 4 19.94 4 23 C2.68 23 1.36 23 0 23 C0 15.41 0 7.82 0 0 Z " fill="#202F60" transform="translate(813,659)"/>
<path d="M0 0 C4.30188345 2.45821911 6.3410526 4.16948572 7.78515625 9.046875 C8.65066554 16.43389615 8.33885907 22.06200843 3.78515625 28.046875 C-1.10329141 31.30584011 -6.50636951 30.73413603 -12.21484375 30.046875 C-15.73845324 28.47360287 -17.63375847 26.2352751 -19.33984375 22.74609375 C-20.32085604 19.71984602 -20.51518535 17.22427034 -20.52734375 14.046875 C-20.54410156 13.03625 -20.56085938 12.025625 -20.578125 10.984375 C-20.1589101 7.59459432 -19.23673222 5.77877546 -17.21484375 3.046875 C-11.74006025 -0.92502675 -6.50179143 -2.79794904 0 0 Z M-14.27734375 4.421875 C-18.11558727 9.6220759 -17.97343467 14.72253548 -17.21484375 21.046875 C-15.59528332 24.27995272 -13.49118085 26.40870645 -10.21484375 28.046875 C-7.15583201 28.46756424 -4.26726049 28.53715955 -1.21484375 28.046875 C1.80924989 25.77560166 1.80924989 25.77560166 3.78515625 23.046875 C4.11515625 22.716875 4.44515625 22.386875 4.78515625 22.046875 C4.96442477 19.80161032 5.0532709 17.54884761 5.09765625 15.296875 C5.13503906 14.06453125 5.17242187 12.8321875 5.2109375 11.5625 C4.71700958 7.48419607 3.65285095 5.9198901 0.78515625 3.046875 C-4.2214743 0.54355972 -9.9786501 1.08819421 -14.27734375 4.421875 Z " fill="#312E2F" transform="translate(313.21484375,857.953125)"/>
<path d="M0 0 C1.32 0 2.64 0 4 0 C5.29456387 3.20717178 6.58512709 6.41593903 7.875 9.625 C8.23980469 10.52863281 8.60460937 11.43226563 8.98046875 12.36328125 C9.33496094 13.24628906 9.68945312 14.12929688 10.0546875 15.0390625 C10.37937012 15.84553223 10.70405273 16.65200195 11.03857422 17.48291016 C12.11296134 20.29574186 13.06539986 23.13801434 14 26 C14.28198242 25.2479126 14.56396484 24.4958252 14.85449219 23.72094727 C16.13682865 20.32842689 17.4430191 16.94559803 18.75 13.5625 C19.1934375 12.37849609 19.636875 11.19449219 20.09375 9.97460938 C20.53203125 8.84990234 20.9703125 7.72519531 21.421875 6.56640625 C21.81987305 5.52427979 22.21787109 4.48215332 22.62792969 3.40844727 C24 1 24 1 26.16113281 0.15209961 C26.76795898 0.10190674 27.37478516 0.05171387 28 0 C26.55177256 3.87687003 25.10002408 7.75232134 23.640625 11.625 C22.65432658 14.24449928 21.68627333 16.8675898 20.734375 19.5 C13.01689189 40.49155405 13.01689189 40.49155405 8 43 C5.3276379 43.13415472 2.67749512 43.04318541 0 43 C0 42.34 0 41.68 0 41 C1.0725 41 2.145 41 3.25 41 C6.93924471 40.41002414 6.93924471 40.41002414 8.35546875 38.328125 C10.37969368 34.44044391 11.40207797 31.42955899 11 27 C10.1047971 24.2468538 10.1047971 24.2468538 8.8125 21.4375 C8.13380859 19.87515625 8.13380859 19.87515625 7.44140625 18.28125 C6.96574219 17.1984375 6.49007813 16.115625 6 15 C5.07835116 12.81459444 4.16147586 10.62716796 3.25 8.4375 C2.84265625 7.46683594 2.4353125 6.49617187 2.015625 5.49609375 C1.28019662 3.68863708 0.61707005 1.85121016 0 0 Z " fill="#3B393B" transform="translate(261,858)"/>
<path d="M0 0 C0.66 0 1.32 0 2 0 C2 5.61 2 11.22 2 17 C2.66 17 3.32 17 4 17 C4 16.34 4 15.68 4 15 C8.70649604 12.17610238 12.60577491 11.00265818 18 12 C23.5 15 23.5 15 25 18 C25.084915 19.8863912 25.107193 21.77578515 25.09765625 23.6640625 C25.09443359 24.78554688 25.09121094 25.90703125 25.08789062 27.0625 C25.07951172 28.238125 25.07113281 29.41375 25.0625 30.625 C25.05798828 31.80835938 25.05347656 32.99171875 25.04882812 34.2109375 C25.03701467 37.14067507 25.02054258 40.07031272 25 43 C24.01 43 23.02 43 22 43 C21.98018066 42.25314941 21.96036133 41.50629883 21.93994141 40.73681641 C21.84491789 37.36584395 21.73514741 33.99551071 21.625 30.625 C21.5940625 29.449375 21.563125 28.27375 21.53125 27.0625 C21.49257813 25.94101562 21.45390625 24.81953125 21.4140625 23.6640625 C21.36693115 22.10872803 21.36693115 22.10872803 21.31884766 20.52197266 C21.24045528 17.83190165 21.24045528 17.83190165 19 16 C14.09252531 15.33009076 9.48657966 14.93815738 5.375 17.875 C3.30221524 21.07839464 2.84348744 22.99729775 2.68359375 26.7890625 C2.64169922 27.73007812 2.59980469 28.67109375 2.55664062 29.640625 C2.49766602 31.11789062 2.49766602 31.11789062 2.4375 32.625 C2.39431641 33.61757813 2.35113281 34.61015625 2.30664062 35.6328125 C2.20038931 38.08839838 2.09835036 40.54408703 2 43 C1.34 43 0.68 43 0 43 C0 28.81 0 14.62 0 0 Z " fill="#252122" transform="translate(441,845)"/>
<path d="M0 0 C5.5 3 5.5 3 7 6 C7.084915 7.8863912 7.107193 9.77578515 7.09765625 11.6640625 C7.09443359 12.78554688 7.09121094 13.90703125 7.08789062 15.0625 C7.07951172 16.238125 7.07113281 17.41375 7.0625 18.625 C7.05798828 19.80835938 7.05347656 20.99171875 7.04882812 22.2109375 C7.03701467 25.14067507 7.02054258 28.07031272 7 31 C6.01 31 5.02 31 4 31 C3.98018066 30.25314941 3.96036133 29.50629883 3.93994141 28.73681641 C3.84491789 25.36584395 3.73514741 21.99551071 3.625 18.625 C3.5940625 17.449375 3.563125 16.27375 3.53125 15.0625 C3.49257813 13.94101562 3.45390625 12.81953125 3.4140625 11.6640625 C3.36693115 10.10872803 3.36693115 10.10872803 3.31884766 8.52197266 C3.24045528 5.83190165 3.24045528 5.83190165 1 4 C-3.90747469 3.33009076 -8.51342034 2.93815738 -12.625 5.875 C-14.69778476 9.07839464 -15.15651256 10.99729775 -15.31640625 14.7890625 C-15.35830078 15.73007812 -15.40019531 16.67109375 -15.44335938 17.640625 C-15.50233398 19.11789062 -15.50233398 19.11789062 -15.5625 20.625 C-15.60568359 21.61757813 -15.64886719 22.61015625 -15.69335938 23.6328125 C-15.79961069 26.08839838 -15.90164964 28.54408703 -16 31 C-16.66 31 -17.32 31 -18 31 C-18 21.1 -18 11.2 -18 1 C-17.34 1 -16.68 1 -16 1 C-15.67 1.99 -15.34 2.98 -15 4 C-14.01 3.34 -13.02 2.68 -12 2 C-7.7113997 -0.42587492 -4.89397387 -0.621457 0 0 Z " fill="#3D3B3D" transform="translate(349,857)"/>
<path d="M0 0 C2.85179471 0.35962898 3.89395384 0.88985856 5.921875 2.99609375 C6.52515625 3.80175781 7.1284375 4.60742188 7.75 5.4375 C8.36359375 6.24058594 8.9771875 7.04367187 9.609375 7.87109375 C11 10 11 10 11 12 C14.91939465 8.19588166 18.49102731 4.18423892 22 0 C22.99 0.33 23.98 0.66 25 1 C20.05 7.435 20.05 7.435 15 14 C18.57616322 19.40582812 22.20107972 24.74855137 26 30 C24.68 30 23.36 30 22 30 C20.22331107 28.02328648 18.74918047 26.16819586 17.25 24 C16.83878906 23.42765625 16.42757812 22.8553125 16.00390625 22.265625 C14.99087007 20.85208615 13.9938627 19.4270849 13 18 C10.11044796 20.85017144 7.30400335 23.70920533 4.6875 26.8125 C4.17574219 27.41707031 3.66398438 28.02164063 3.13671875 28.64453125 C2.76160156 29.09183594 2.38648438 29.53914062 2 30 C1.01 29.67 0.02 29.34 -1 29 C-0.26652344 28.10796875 0.46695313 27.2159375 1.22265625 26.296875 C2.16993788 25.11511772 3.11651616 23.9327964 4.0625 22.75 C4.79049805 21.87021484 4.79049805 21.87021484 5.53320312 20.97265625 C7.10808681 19.04172136 7.10808681 19.04172136 9 16 C8.51002083 12.05284086 6.47057548 9.86822852 3.9375 6.875 C0 2.21089631 0 2.21089631 0 0 Z " fill="#373536" transform="translate(557,858)"/>
<path d="M0 0 C2.375 0.6875 2.375 0.6875 4 2 C5.75372726 5.33208179 6 7.15277837 6 11 C-0.6 11 -7.2 11 -14 11 C-12.44019067 1.64114401 -9.0257149 -1.00285721 0 0 Z " fill="#F3F3F4" transform="translate(727,860)"/>
<path d="M0 0 C2.375 0.6875 2.375 0.6875 4 2 C5.75372726 5.33208179 6 7.15277837 6 11 C-0.6 11 -7.2 11 -14 11 C-12.44019067 1.64114401 -9.0257149 -1.00285721 0 0 Z " fill="#F3F3F4" transform="translate(643,860)"/>
<path d="M0 0 C2.375 0.6875 2.375 0.6875 4 2 C5.75372726 5.33208179 6 7.15277837 6 11 C-0.6 11 -7.2 11 -14 11 C-12.44019067 1.64114401 -9.0257149 -1.00285721 0 0 Z " fill="#F3F3F4" transform="translate(542,860)"/>
<path d="M0 0 C2.375 0.6875 2.375 0.6875 4 2 C5.75372726 5.33208179 6 7.15277837 6 11 C-0.6 11 -7.2 11 -14 11 C-12.44019067 1.64114401 -9.0257149 -1.00285721 0 0 Z " fill="#F3F3F4" transform="translate(493,860)"/>
<path d="M0 0 C2.375 0.6875 2.375 0.6875 4 2 C5.75372726 5.33208179 6 7.15277837 6 11 C-0.6 11 -7.2 11 -14 11 C-12.44019067 1.64114401 -9.0257149 -1.00285721 0 0 Z " fill="#F3F3F4" transform="translate(249,860)"/>
<path d="M0 0 C0.7528125 0.00644531 1.505625 0.01289062 2.28125 0.01953125 C4.45990143 0.18446437 6.40204811 0.59149094 8.5 1.1875 C8.5 2.1775 8.5 3.1675 8.5 4.1875 C7.69175781 4.15269531 6.88351562 4.11789062 6.05078125 4.08203125 C4.44783203 4.04142578 4.44783203 4.04142578 2.8125 4 C1.75675781 3.96519531 0.70101562 3.93039062 -0.38671875 3.89453125 C-3.91836599 4.22686945 -5.68255429 5.07071504 -8.5 7.1875 C-11.60577027 11.8461554 -11.11853384 16.73114795 -10.5 22.1875 C-8.69196596 25.26115786 -7.63960536 26.61769732 -4.5 28.1875 C-2.2927077 28.25842842 -0.08332548 28.27165025 2.125 28.25 C3.90777344 28.23646484 3.90777344 28.23646484 5.7265625 28.22265625 C7.09941406 28.20525391 7.09941406 28.20525391 8.5 28.1875 C8.5 29.1775 8.5 30.1675 8.5 31.1875 C-6.54030338 32.04858607 -6.54030338 32.04858607 -10.3125 28.875 C-14.84268738 23.30934122 -15.04068303 19.71926461 -14.953125 12.65625 C-14.39611986 8.39227965 -13.22174371 6.37951152 -10.203125 3.421875 C-6.783831 0.94367109 -4.24750579 -0.08000439 0 0 Z " fill="#343132" transform="translate(674.5,856.8125)"/>
<path d="M0 0 C0.66 0 1.32 0 2 0 C2 2.31 2 4.62 2 7 C4.97 7 7.94 7 11 7 C11 7.66 11 8.32 11 9 C8.03 9 5.06 9 2 9 C2.13814223 12.9794733 2.28679674 16.95848415 2.4375 20.9375 C2.47681641 22.07380859 2.51613281 23.21011719 2.55664062 24.38085938 C2.61948242 26.00024414 2.61948242 26.00024414 2.68359375 27.65234375 C2.72025146 28.65257568 2.75690918 29.65280762 2.79467773 30.68334961 C2.74671841 32.96069188 2.74671841 32.96069188 4 34 C5.34747084 34.23075082 6.70377565 34.41153063 8.0625 34.5625 C9.361875 34.706875 10.66125 34.85125 12 35 C12 35.66 12 36.32 12 37 C10.3973218 37.10824843 8.79254252 37.18570645 7.1875 37.25 C6.29417969 37.29640625 5.40085937 37.3428125 4.48046875 37.390625 C2 37 2 37 0.36328125 35.328125 C-1.32038987 32.45285856 -1.34588891 30.67570473 -1.29296875 27.359375 C-1.28330078 26.28945313 -1.27363281 25.21953125 -1.26367188 24.1171875 C-1.23853516 23.00601563 -1.21339844 21.89484375 -1.1875 20.75 C-1.17396484 19.62335937 -1.16042969 18.49671875 -1.14648438 17.3359375 C-1.11115645 14.55680736 -1.0618252 11.77864637 -1 9 C-2.65 9 -4.3 9 -6 9 C-6 8.34 -6 7.68 -6 7 C-4.35 7 -2.7 7 -1 7 C-0.67 4.69 -0.34 2.38 0 0 Z " fill="#333032" transform="translate(692,851)"/>
<path d="M0 0 C0.66 0 1.32 0 2 0 C2 2.31 2 4.62 2 7 C4.97 7 7.94 7 11 7 C11 7.66 11 8.32 11 9 C8.03 9 5.06 9 2 9 C2.13814223 12.9794733 2.28679674 16.95848415 2.4375 20.9375 C2.47681641 22.07380859 2.51613281 23.21011719 2.55664062 24.38085938 C2.61948242 26.00024414 2.61948242 26.00024414 2.68359375 27.65234375 C2.72025146 28.65257568 2.75690918 29.65280762 2.79467773 30.68334961 C2.74671841 32.96069188 2.74671841 32.96069188 4 34 C5.34747084 34.23075082 6.70377565 34.41153063 8.0625 34.5625 C9.361875 34.706875 10.66125 34.85125 12 35 C12 35.66 12 36.32 12 37 C10.3973218 37.10824843 8.79254252 37.18570645 7.1875 37.25 C6.29417969 37.29640625 5.40085937 37.3428125 4.48046875 37.390625 C2 37 2 37 0.36328125 35.328125 C-1.32038987 32.45285856 -1.34588891 30.67570473 -1.29296875 27.359375 C-1.28330078 26.28945313 -1.27363281 25.21953125 -1.26367188 24.1171875 C-1.23853516 23.00601563 -1.21339844 21.89484375 -1.1875 20.75 C-1.17396484 19.62335937 -1.16042969 18.49671875 -1.14648438 17.3359375 C-1.11115645 14.55680736 -1.0618252 11.77864637 -1 9 C-2.65 9 -4.3 9 -6 9 C-6 8.34 -6 7.68 -6 7 C-4.35 7 -2.7 7 -1 7 C-0.67 4.69 -0.34 2.38 0 0 Z " fill="#333032" transform="translate(421,851)"/>
<path d="M0 0 C5.84670066 -0.51286848 8.8579961 -0.02327736 13.5546875 3.515625 C17.0404091 7.09555529 17.31803525 10.48742453 17.375 15.375 C17.28482429 20.73744897 16.87729387 24.0179144 13 28 C10.25 29.875 10.25 29.875 8 31 C7.67 30.01 7.34 29.02 7 28 C7.61875 27.938125 8.2375 27.87625 8.875 27.8125 C11.20776445 27.19207437 11.20776445 27.19207437 12.11328125 24.82421875 C13.07964774 21.74632019 13.30017299 19.22145969 13.3125 16 C13.32925781 14.989375 13.34601562 13.97875 13.36328125 12.9375 C12.94197542 9.530812 12.12324502 7.68753085 10 5 C8.05467988 4.09590529 8.05467988 4.09590529 5.9375 3.875 C3.83984375 3.5546875 3.83984375 3.5546875 2 3 C1.34 2.01 0.68 1.02 0 0 Z " fill="#343132" transform="translate(601,857)"/>
<path d="M0 0 C5.96985565 -0.53302283 9.26955506 0.23886423 14.3359375 3.41796875 C17.2007221 6.14153157 17.88436199 9.01304303 18.3359375 12.8671875 C18.42159176 19.46256516 18.20157895 23.77641536 14 29 C11.25 30.4375 11.25 30.4375 9 31 C9.40417314 28.17078804 9.7853615 27.18213014 12.01171875 25.29296875 C15.38515444 21.4025822 14.59799239 17.23986814 14.44921875 12.3046875 C14.21178292 8.81791091 14.21178292 8.81791091 11.875 5.6875 C8.79386513 3.87900779 6.50871382 3.45765832 3 3 C1.125 1.4375 1.125 1.4375 0 0 Z " fill="#363335" transform="translate(303,857)"/>
<path d="M0 0 C6.09067026 -0.42004622 9.10816881 -0.0566405 14 4 C15.3308911 6.66178221 15.11268993 8.68739396 15.09765625 11.6640625 C15.09443359 12.78554688 15.09121094 13.90703125 15.08789062 15.0625 C15.07951172 16.238125 15.07113281 17.41375 15.0625 18.625 C15.05798828 19.80835938 15.05347656 20.99171875 15.04882812 22.2109375 C15.03701467 25.14067507 15.02054258 28.07031272 15 31 C14.01 31 13.02 31 12 31 C11.98018066 30.25314941 11.96036133 29.50629883 11.93994141 28.73681641 C11.84491789 25.36584395 11.73514741 21.99551071 11.625 18.625 C11.5940625 17.449375 11.563125 16.27375 11.53125 15.0625 C11.49257813 13.94101562 11.45390625 12.81953125 11.4140625 11.6640625 C11.3826416 10.62717285 11.3512207 9.5902832 11.31884766 8.52197266 C11.24045528 5.83190165 11.24045528 5.83190165 9 4 C7.845 3.855625 6.69 3.71125 5.5 3.5625 C4.345 3.376875 3.19 3.19125 2 3 C1.34 2.01 0.68 1.02 0 0 Z " fill="#3D3B3D" transform="translate(451,857)"/>
<path d="M0 0 C0.66 0 1.32 0 2 0 C2.33 0.99 2.66 1.98 3 3 C3.495 2.505 3.99 2.01 4.5 1.5 C8.11630158 -0.66978095 10.82231616 -0.20888419 15 0 C12 2 12 2 8.4375 3.375 C4.76643951 5.11041041 4.319763 5.4038246 3 9 C2.63820497 11.41179904 2.63820497 11.41179904 2.5859375 13.984375 C2.54726563 14.91894531 2.50859375 15.85351562 2.46875 16.81640625 C2.4378125 17.78449219 2.406875 18.75257813 2.375 19.75 C2.33632813 20.73355469 2.29765625 21.71710937 2.2578125 22.73046875 C2.16371574 25.15346037 2.07807672 27.57644796 2 30 C1.34 30 0.68 30 0 30 C0 20.1 0 10.2 0 0 Z " fill="#262223" transform="translate(331,858)"/>
<path d="M0 0 C0.77085937 -0.00257813 1.54171875 -0.00515625 2.3359375 -0.0078125 C4.5578189 0.12110212 6.49118508 0.51116283 8.625 1.125 C8.625 2.115 8.625 3.105 8.625 4.125 C7.81675781 4.09019531 7.00851562 4.05539062 6.17578125 4.01953125 C4.57283203 3.97892578 4.57283203 3.97892578 2.9375 3.9375 C1.88175781 3.90269531 0.82601562 3.86789062 -0.26171875 3.83203125 C-4.46396875 4.2274751 -7.04474338 5.79474338 -10 8.75 C-11.375 10.125 -11.375 10.125 -14.375 11.125 C-12.93814642 6.09601246 -10.43263331 4.16822498 -6.375 1.125 C-4.03562093 -0.04468953 -2.60130632 -0.00864221 0 0 Z " fill="#504F51" transform="translate(674.375,856.875)"/>
<path d="M0 0 C1.32 0 2.64 0 4 0 C5.33891561 3.28942366 6.67017703 6.58189109 8 9.875 C8.3815625 10.81214844 8.763125 11.74929688 9.15625 12.71484375 C9.5171875 13.61074219 9.878125 14.50664063 10.25 15.4296875 C10.58515625 16.25710449 10.9203125 17.08452148 11.265625 17.93701172 C12 20 12 20 12 22 C11.01 22.33 10.02 22.66 9 23 C8.60167969 21.98679687 8.20335937 20.97359375 7.79296875 19.9296875 C7.25795321 18.57806929 6.72278904 17.22650991 6.1875 15.875 C5.79594727 14.87726562 5.79594727 14.87726562 5.39648438 13.859375 C4.14203027 10.7000091 2.8348309 7.6726994 1.30078125 4.6328125 C0 2 0 2 0 0 Z " fill="#413F41" transform="translate(261,858)"/>
<path d="M0 0 C3.88588602 0.26799214 6.45037648 2.16708498 9 5 C9.7260288 8.13460053 9.74698738 10.86839905 9 14 C6.5 16.5625 6.5 16.5625 4 18 C3.01 17.34 2.02 16.68 1 16 C1.66 15.62875 2.32 15.2575 3 14.875 C5.30269167 13.10654034 5.30269167 13.10654034 5.4375 10 C5.24196924 7.05649194 5.24196924 7.05649194 3.75 5.25 C1.90580604 3.9327186 0.06658163 2.92639866 -2 2 C-1.34 1.34 -0.68 0.68 0 0 Z " fill="#3F3D3E" transform="translate(214,848)"/>
<path d="M0 0 C1.8871875 0.0309375 1.8871875 0.0309375 3.8125 0.0625 C4.1425 1.0525 4.4725 2.0425 4.8125 3.0625 C4.13703125 3.08828125 3.4615625 3.1140625 2.765625 3.140625 C-2.863772 3.39237222 -2.863772 3.39237222 -7.6875 6 C-8.1825 6.680625 -8.6775 7.36125 -9.1875 8.0625 C-11.1875 10.0625 -11.1875 10.0625 -14.1875 11.0625 C-12.79256348 6.62406561 -10.66851799 4.1190036 -7.1875 1.0625 C-4.43671116 0.14557039 -2.82801087 -0.04636083 0 0 Z " fill="#343233" transform="translate(724.1875,856.9375)"/>
<path d="M0 0 C1.8871875 0.0309375 1.8871875 0.0309375 3.8125 0.0625 C4.1425 1.0525 4.4725 2.0425 4.8125 3.0625 C4.13703125 3.08828125 3.4615625 3.1140625 2.765625 3.140625 C-2.863772 3.39237222 -2.863772 3.39237222 -7.6875 6 C-8.1825 6.680625 -8.6775 7.36125 -9.1875 8.0625 C-11.1875 10.0625 -11.1875 10.0625 -14.1875 11.0625 C-12.79256348 6.62406561 -10.66851799 4.1190036 -7.1875 1.0625 C-4.43671116 0.14557039 -2.82801087 -0.04636083 0 0 Z " fill="#343233" transform="translate(640.1875,856.9375)"/>
<path d="M0 0 C1.8871875 0.0309375 1.8871875 0.0309375 3.8125 0.0625 C4.1425 1.0525 4.4725 2.0425 4.8125 3.0625 C4.13703125 3.08828125 3.4615625 3.1140625 2.765625 3.140625 C-2.863772 3.39237222 -2.863772 3.39237222 -7.6875 6 C-8.1825 6.680625 -8.6775 7.36125 -9.1875 8.0625 C-11.1875 10.0625 -11.1875 10.0625 -14.1875 11.0625 C-12.79256348 6.62406561 -10.66851799 4.1190036 -7.1875 1.0625 C-4.43671116 0.14557039 -2.82801087 -0.04636083 0 0 Z " fill="#343233" transform="translate(539.1875,856.9375)"/>
<path d="M0 0 C1.8871875 0.0309375 1.8871875 0.0309375 3.8125 0.0625 C4.1425 1.0525 4.4725 2.0425 4.8125 3.0625 C4.13703125 3.08828125 3.4615625 3.1140625 2.765625 3.140625 C-2.863772 3.39237222 -2.863772 3.39237222 -7.6875 6 C-8.1825 6.680625 -8.6775 7.36125 -9.1875 8.0625 C-11.1875 10.0625 -11.1875 10.0625 -14.1875 11.0625 C-12.79256348 6.62406561 -10.66851799 4.1190036 -7.1875 1.0625 C-4.43671116 0.14557039 -2.82801087 -0.04636083 0 0 Z " fill="#343233" transform="translate(490.1875,856.9375)"/>
<path d="M0 0 C1.8871875 0.0309375 1.8871875 0.0309375 3.8125 0.0625 C4.1425 1.0525 4.4725 2.0425 4.8125 3.0625 C4.13703125 3.08828125 3.4615625 3.1140625 2.765625 3.140625 C-2.863772 3.39237222 -2.863772 3.39237222 -7.6875 6 C-8.1825 6.680625 -8.6775 7.36125 -9.1875 8.0625 C-11.1875 10.0625 -11.1875 10.0625 -14.1875 11.0625 C-12.79256348 6.62406561 -10.66851799 4.1190036 -7.1875 1.0625 C-4.43671116 0.14557039 -2.82801087 -0.04636083 0 0 Z " fill="#343233" transform="translate(246.1875,856.9375)"/>
<path d="M0 0 C2.31 0.33 4.62 0.66 7 1 C7 2.65 7 4.3 7 6 C4.69 6.33 2.38 6.66 0 7 C0 4.69 0 2.38 0 0 Z " fill="#F9F9FB" transform="translate(817,663)"/>
<path d="M0 0 C0.99 0.33 1.98 0.66 3 1 C2.26697402 2.96474995 1.51294617 4.92167397 0.75 6.875 C0.12351562 8.51082031 0.12351562 8.51082031 -0.515625 10.1796875 C-2.08115127 13.15418742 -2.87868421 13.94622245 -6 15 C-4.36041242 9.76727367 -2.61047965 4.84803364 0 0 Z " fill="#413F41" transform="translate(286,858)"/>
<path d="M0 0 C0.33 0.99 0.66 1.98 1 3 C-1.33333333 7.66666667 -1.33333333 7.66666667 -4 9 C-6.6723621 9.13415472 -9.32250488 9.04318541 -12 9 C-12 8.34 -12 7.68 -12 7 C-10.906875 6.938125 -9.81375 6.87625 -8.6875 6.8125 C-4.86679847 6.39876705 -4.86679847 6.39876705 -3.1875 3.5 C-2.5996875 2.2625 -2.5996875 2.2625 -2 1 C-1.34 0.67 -0.68 0.34 0 0 Z " fill="#2B2829" transform="translate(273,892)"/>
<path d="M0 0 C3.96 0 7.92 0 12 0 C12 0.99 12 1.98 12 3 C7.71 2.67 3.42 2.34 -1 2 C-0.67 1.34 -0.34 0.68 0 0 Z " fill="#393738" transform="translate(671,858)"/>
<path d="M0 0 C0 0.33 0 0.66 0 1 C-1.60875 1.12375 -1.60875 1.12375 -3.25 1.25 C-7.39126781 2.07825356 -8.26347253 2.98038348 -11 6 C-13.25 6.75 -13.25 6.75 -15 7 C-14.00449135 4.3754772 -13.06036546 3.04971273 -10.875 1.25 C-7.01724826 -0.42728337 -4.18486798 -0.2127899 0 0 Z " fill="#515051" transform="translate(760,857)"/>
<path d="M0 0 C0 0.33 0 0.66 0 1 C-1.60875 1.12375 -1.60875 1.12375 -3.25 1.25 C-7.39126781 2.07825356 -8.26347253 2.98038348 -11 6 C-13.25 6.75 -13.25 6.75 -15 7 C-14.00449135 4.3754772 -13.06036546 3.04971273 -10.875 1.25 C-7.01724826 -0.42728337 -4.18486798 -0.2127899 0 0 Z " fill="#515051" transform="translate(383,857)"/>
<path d="M0 0 C1.39195915 4.17587745 -0.17676781 6.13474776 -2 10 C-2.66 9.67 -3.32 9.34 -4 9 C-3.38461538 3.46153846 -3.38461538 3.46153846 -1.4375 1.125 C-0.963125 0.75375 -0.48875 0.3825 0 0 Z " fill="#343233" transform="translate(282,871)"/>
<path d="M0 0 C7.75 -0.125 7.75 -0.125 10 1 C9.67 1.99 9.34 2.98 9 4 C3.46153846 3.38461538 3.46153846 3.38461538 1.125 1.4375 C0.75375 0.963125 0.3825 0.48875 0 0 Z " fill="#59585A" transform="translate(303,857)"/>
<path d="M0 0 C2.64 0 5.28 0 8 0 C8.33 0.99 8.66 1.98 9 3 C5.625 3.1875 5.625 3.1875 2 3 C1.34 2.01 0.68 1.02 0 0 Z " fill="#5B5B5C" transform="translate(601,857)"/>
<path d="M0 0 C2.64 0 5.28 0 8 0 C8.33 0.99 8.66 1.98 9 3 C5.625 3.1875 5.625 3.1875 2 3 C1.34 2.01 0.68 1.02 0 0 Z " fill="#626264" transform="translate(720,857)"/>
<path d="M0 0 C2.64 0 5.28 0 8 0 C8.33 0.99 8.66 1.98 9 3 C5.625 3.1875 5.625 3.1875 2 3 C1.34 2.01 0.68 1.02 0 0 Z " fill="#626264" transform="translate(636,857)"/>
<path d="M0 0 C2.64 0 5.28 0 8 0 C8.33 0.99 8.66 1.98 9 3 C5.625 3.1875 5.625 3.1875 2 3 C1.34 2.01 0.68 1.02 0 0 Z " fill="#626264" transform="translate(535,857)"/>
<path d="M0 0 C2.64 0 5.28 0 8 0 C8.33 0.99 8.66 1.98 9 3 C5.625 3.1875 5.625 3.1875 2 3 C1.34 2.01 0.68 1.02 0 0 Z " fill="#626264" transform="translate(486,857)"/>
<path d="M0 0 C2.64 0 5.28 0 8 0 C8.33 0.99 8.66 1.98 9 3 C5.625 3.1875 5.625 3.1875 2 3 C1.34 2.01 0.68 1.02 0 0 Z " fill="#626264" transform="translate(242,857)"/>
<path d="M0 0 C0.99 0.33 1.98 0.66 3 1 C1.35 2.65 -0.3 4.3 -2 6 C-2 2 -2 2 0 0 Z " fill="#312F30" transform="translate(579,858)"/>
<path d="M0 0 C0.99 0.33 1.98 0.66 3 1 C2.34 2.65 1.68 4.3 1 6 C0.01 6 -0.98 6 -2 6 C-1.34 4.02 -0.68 2.04 0 0 Z " fill="#383537" transform="translate(286,858)"/>
</svg>
