<?xml version="1.0" encoding="UTF-8"?>
<svg xmlns="http://www.w3.org/2000/svg" xmlns:xlink="http://www.w3.org/1999/xlink" width="144px" height="144px" viewBox="0 0 144 144" version="1.1">
<g id="surface1">
<path style=" stroke:none;fill-rule:nonzero;fill:rgb(99.607843%,99.607843%,99.607843%);fill-opacity:1;" d="M 0 0 C 47.519531 0 95.039062 0 144 0 C 144 47.519531 144 95.039062 144 144 C 96.480469 144 48.960938 144 0 144 C 0 96.480469 0 48.960938 0 0 Z M 0 0 "/>
<path style=" stroke:none;fill-rule:nonzero;fill:rgb(14.509805%,23.529412%,49.019608%);fill-opacity:1;" d="M 51.210938 30.199219 C 51.378906 30.199219 51.550781 30.195312 51.726562 30.195312 C 52.195312 30.195312 52.664062 30.199219 53.132812 30.203125 C 53.640625 30.207031 54.144531 30.207031 54.652344 30.207031 C 55.53125 30.207031 56.40625 30.210938 57.285156 30.214844 C 58.554688 30.226562 59.820312 30.226562 61.089844 30.230469 C 63.148438 30.230469 65.207031 30.238281 67.261719 30.25 C 69.261719 30.261719 71.261719 30.269531 73.257812 30.273438 C 73.382812 30.273438 73.503906 30.277344 73.632812 30.277344 C 74.25 30.277344 74.871094 30.277344 75.488281 30.28125 C 80.617188 30.292969 85.742188 30.3125 90.871094 30.339844 C 90.75 30.957031 90.429688 31.269531 89.988281 31.695312 C 89.914062 31.769531 89.839844 31.839844 89.761719 31.917969 C 89.527344 32.148438 89.292969 32.378906 89.054688 32.605469 C 88.820312 32.835938 88.585938 33.070312 88.347656 33.300781 C 88.203125 33.445312 88.054688 33.589844 87.910156 33.730469 C 87.527344 34.101562 87.527344 34.101562 87.242188 34.546875 C 87.328125 34.542969 87.414062 34.539062 87.503906 34.535156 C 88.40625 34.488281 89.304688 34.460938 90.210938 34.4375 C 90.546875 34.425781 90.882812 34.414062 91.21875 34.394531 C 93.929688 34.257812 93.929688 34.257812 94.628906 34.734375 C 95.136719 35.273438 95.394531 35.902344 95.660156 36.582031 C 95.785156 36.792969 95.910156 37.007812 96.042969 37.214844 C 96.136719 37.375 96.226562 37.539062 96.324219 37.707031 C 96.375 37.789062 96.421875 37.875 96.472656 37.964844 C 96.824219 38.578125 96.824219 38.578125 96.824219 38.902344 C 96.648438 38.902344 96.476562 38.902344 96.296875 38.902344 C 94.65625 38.898438 93.015625 38.898438 91.375 38.90625 C 90.53125 38.910156 89.6875 38.914062 88.84375 38.910156 C 88.03125 38.90625 87.21875 38.910156 86.402344 38.914062 C 86.09375 38.917969 85.78125 38.917969 85.472656 38.914062 C 85.035156 38.910156 84.601562 38.914062 84.167969 38.917969 C 84.039062 38.917969 83.910156 38.914062 83.78125 38.914062 C 82.890625 38.933594 82.453125 39.191406 81.820312 39.8125 C 81.742188 39.894531 81.664062 39.980469 81.582031 40.066406 C 81.457031 40.179688 81.335938 40.296875 81.210938 40.414062 C 81.109375 40.515625 81.007812 40.621094 80.902344 40.726562 C 80.789062 40.839844 80.671875 40.953125 80.558594 41.070312 C 80.441406 41.183594 80.328125 41.296875 80.210938 41.417969 C 80.09375 41.535156 79.972656 41.652344 79.851562 41.773438 C 79.742188 41.886719 79.628906 41.996094 79.511719 42.113281 C 79.410156 42.214844 79.308594 42.316406 79.207031 42.421875 C 78.957031 42.664062 78.957031 42.664062 78.824219 42.96875 C 85.289062 42.96875 91.757812 42.96875 98.417969 42.96875 C 99.296875 46.039062 99.296875 46.039062 99.289062 47.324219 C 99.164062 47.324219 99.035156 47.320312 98.902344 47.320312 C 95.796875 47.316406 92.691406 47.320312 89.585938 47.328125 C 88.082031 47.332031 86.578125 47.332031 85.078125 47.328125 C 83.769531 47.328125 82.457031 47.328125 81.148438 47.332031 C 80.457031 47.335938 79.761719 47.335938 79.070312 47.332031 C 78.417969 47.332031 77.761719 47.332031 77.109375 47.335938 C 76.871094 47.339844 76.632812 47.335938 76.394531 47.335938 C 74.902344 47.289062 74.902344 47.289062 73.613281 47.960938 C 73.457031 48.132812 73.304688 48.304688 73.160156 48.484375 C 73.039062 48.597656 72.917969 48.714844 72.792969 48.835938 C 72.6875 48.9375 72.585938 49.039062 72.480469 49.144531 C 72.367188 49.257812 72.253906 49.371094 72.136719 49.488281 C 72.023438 49.601562 71.910156 49.71875 71.792969 49.835938 C 71.671875 49.953125 71.554688 50.070312 71.433594 50.191406 C 71.320312 50.304688 71.207031 50.417969 71.09375 50.53125 C 70.941406 50.683594 70.941406 50.683594 70.785156 50.839844 C 70.539062 51.085938 70.539062 51.085938 70.402344 51.386719 C 80.03125 51.386719 89.660156 51.386719 99.582031 51.386719 C 99.582031 54.621094 99.582031 54.621094 99.433594 55.597656 C 99.164062 55.871094 98.765625 55.757812 98.402344 55.757812 C 98.273438 55.757812 98.144531 55.757812 98.011719 55.757812 C 97.878906 55.757812 97.742188 55.757812 97.601562 55.757812 C 97.144531 55.757812 96.6875 55.757812 96.226562 55.753906 C 95.898438 55.753906 95.574219 55.753906 95.246094 55.753906 C 94.539062 55.753906 93.832031 55.753906 93.128906 55.753906 C 92.011719 55.75 90.894531 55.753906 89.777344 55.753906 C 89.589844 55.753906 89.398438 55.753906 89.207031 55.753906 C 88.820312 55.753906 88.4375 55.753906 88.050781 55.757812 C 87.058594 55.757812 86.070312 55.757812 85.078125 55.757812 C 84.980469 55.757812 84.878906 55.757812 84.777344 55.757812 C 83.167969 55.761719 81.558594 55.757812 79.949219 55.753906 C 78.292969 55.753906 76.640625 55.753906 74.988281 55.757812 C 74.0625 55.761719 73.132812 55.761719 72.203125 55.757812 C 71.332031 55.753906 70.457031 55.753906 69.585938 55.757812 C 69.265625 55.761719 68.945312 55.757812 68.621094 55.757812 C 68.183594 55.753906 67.746094 55.757812 67.308594 55.761719 C 67.121094 55.757812 67.121094 55.757812 66.925781 55.753906 C 66.042969 55.769531 65.609375 56.035156 64.984375 56.648438 C 64.902344 56.734375 64.824219 56.816406 64.742188 56.902344 C 64.617188 57.023438 64.488281 57.144531 64.359375 57.265625 C 64.25 57.375 64.140625 57.484375 64.03125 57.59375 C 63.910156 57.714844 63.789062 57.835938 63.667969 57.957031 C 63.546875 58.082031 63.425781 58.203125 63.300781 58.328125 C 63.175781 58.453125 63.050781 58.578125 62.921875 58.703125 C 62.800781 58.824219 62.683594 58.941406 62.5625 59.066406 C 62.398438 59.226562 62.398438 59.226562 62.234375 59.390625 C 61.972656 59.644531 61.972656 59.644531 61.839844 59.953125 C 73.863281 59.953125 85.886719 59.953125 98.273438 59.953125 C 98.109375 61.09375 98.109375 61.09375 97.867188 61.691406 C 97.816406 61.816406 97.761719 61.945312 97.710938 62.074219 C 97.65625 62.203125 97.605469 62.332031 97.546875 62.464844 C 97.496094 62.597656 97.441406 62.726562 97.386719 62.863281 C 97.003906 63.796875 97.003906 63.796875 96.824219 64.160156 C 96.738281 64.160156 96.65625 64.160156 96.570312 64.160156 C 91.664062 64.15625 86.753906 64.15625 81.847656 64.164062 C 81.257812 64.164062 80.667969 64.167969 80.078125 64.167969 C 79.902344 64.167969 79.902344 64.167969 79.722656 64.167969 C 77.824219 64.171875 75.925781 64.167969 74.023438 64.167969 C 72.074219 64.164062 70.125 64.167969 68.175781 64.171875 C 66.972656 64.175781 65.769531 64.175781 64.570312 64.171875 C 63.742188 64.167969 62.917969 64.171875 62.09375 64.175781 C 61.617188 64.175781 61.140625 64.175781 60.667969 64.175781 C 60.148438 64.171875 59.632812 64.175781 59.117188 64.179688 C 58.890625 64.175781 58.890625 64.175781 58.664062 64.171875 C 57.710938 64.1875 57.230469 64.394531 56.554688 65.070312 C 56.476562 65.152344 56.402344 65.238281 56.324219 65.324219 C 56.199219 65.4375 56.078125 65.554688 55.953125 65.671875 C 55.851562 65.777344 55.75 65.878906 55.644531 65.984375 C 55.527344 66.097656 55.414062 66.210938 55.296875 66.328125 C 55.183594 66.441406 55.070312 66.554688 54.953125 66.675781 C 54.773438 66.851562 54.773438 66.851562 54.59375 67.03125 C 54.480469 67.144531 54.371094 67.253906 54.253906 67.371094 C 54.152344 67.472656 54.050781 67.574219 53.949219 67.679688 C 53.699219 67.921875 53.699219 67.921875 53.566406 68.226562 C 67.023438 68.226562 80.484375 68.226562 94.355469 68.226562 C 94.070312 68.792969 93.738281 69.257812 93.347656 69.75 C 93.285156 69.828125 93.226562 69.910156 93.160156 69.992188 C 93.023438 70.164062 92.882812 70.335938 92.738281 70.5 C 92.453125 70.84375 92.453125 70.84375 92.210938 71.269531 C 91.738281 71.949219 91.3125 72.464844 90.488281 72.679688 C 89.390625 72.832031 88.28125 72.804688 87.175781 72.78125 C 86.667969 72.773438 86.160156 72.777344 85.652344 72.777344 C 84.773438 72.78125 83.894531 72.773438 83.011719 72.765625 C 81.742188 72.75 80.472656 72.746094 79.199219 72.742188 C 77.136719 72.738281 75.074219 72.730469 73.011719 72.710938 C 71.011719 72.695312 69.007812 72.683594 67.003906 72.675781 C 66.820312 72.675781 66.820312 72.675781 66.628906 72.675781 C 66.011719 72.671875 65.390625 72.671875 64.769531 72.667969 C 59.632812 72.648438 54.492188 72.621094 49.355469 72.582031 C 49.476562 71.945312 49.824219 71.621094 50.277344 71.179688 C 50.351562 71.105469 50.429688 71.027344 50.511719 70.949219 C 50.757812 70.707031 51.003906 70.464844 51.25 70.222656 C 51.417969 70.058594 51.585938 69.890625 51.753906 69.726562 C 52.160156 69.320312 52.574219 68.917969 52.984375 68.515625 C 52.898438 68.519531 52.8125 68.523438 52.722656 68.523438 C 51.820312 68.550781 50.917969 68.5625 50.015625 68.566406 C 49.679688 68.570312 49.34375 68.574219 49.007812 68.585938 C 46.296875 68.667969 46.296875 68.667969 45.59375 68.179688 C 45.160156 67.714844 44.902344 67.195312 44.675781 66.609375 C 44.484375 66.148438 44.226562 65.726562 43.976562 65.296875 C 43.546875 64.511719 43.546875 64.511719 43.546875 64.015625 C 43.800781 64.027344 43.800781 64.027344 44.058594 64.035156 C 45.660156 64.097656 47.257812 64.136719 48.859375 64.15625 C 49.683594 64.164062 50.503906 64.183594 51.328125 64.21875 C 52.125 64.25 52.921875 64.265625 53.71875 64.265625 C 54.019531 64.269531 54.320312 64.28125 54.621094 64.296875 C 55.785156 64.359375 56.414062 64.183594 57.628906 63.871094 C 58.875 62.625 60.121094 61.378906 61.402344 60.097656 C 51.703125 60.023438 51.703125 60.023438 41.804688 59.953125 C 40.933594 56.683594 40.933594 56.683594 40.933594 55.597656 C 41.0625 55.597656 41.1875 55.601562 41.316406 55.605469 C 44.398438 55.671875 47.480469 55.714844 50.5625 55.734375 C 52.054688 55.746094 53.542969 55.765625 55.035156 55.796875 C 56.335938 55.828125 57.636719 55.84375 58.9375 55.847656 C 59.625 55.847656 60.3125 55.855469 61 55.878906 C 61.648438 55.898438 62.296875 55.902344 62.949219 55.894531 C 63.183594 55.894531 63.421875 55.898438 63.65625 55.914062 C 64.625 55.964844 65.027344 55.785156 66.046875 55.453125 C 67.292969 54.207031 68.539062 52.960938 69.824219 51.675781 C 55.378906 51.605469 55.378906 51.605469 40.644531 51.53125 C 40.644531 48.265625 40.644531 48.265625 40.933594 47.175781 C 41.191406 47.179688 41.191406 47.179688 41.449219 47.1875 C 45.484375 47.25 49.519531 47.292969 53.558594 47.316406 C 54.058594 47.316406 54.554688 47.320312 55.054688 47.324219 C 55.152344 47.324219 55.253906 47.324219 55.355469 47.324219 C 56.957031 47.332031 58.554688 47.355469 60.152344 47.382812 C 61.800781 47.414062 63.445312 47.425781 65.089844 47.425781 C 66.015625 47.425781 66.9375 47.433594 67.859375 47.457031 C 68.730469 47.480469 69.601562 47.484375 70.472656 47.472656 C 70.789062 47.472656 71.105469 47.480469 71.421875 47.492188 C 72.597656 47.539062 73.25 47.355469 74.46875 47.03125 C 75.714844 45.785156 76.957031 44.542969 78.242188 43.257812 C 60.207031 43.1875 60.207031 43.1875 41.804688 43.113281 C 42.101562 42.027344 42.40625 41.054688 42.851562 40.039062 C 42.902344 39.914062 42.957031 39.789062 43.011719 39.660156 C 43.140625 39.359375 43.273438 39.058594 43.402344 38.757812 C 43.527344 38.757812 43.527344 38.757812 43.652344 38.761719 C 48.535156 38.828125 53.417969 38.875 58.300781 38.894531 C 58.890625 38.898438 59.476562 38.902344 60.066406 38.902344 C 60.183594 38.902344 60.300781 38.90625 60.421875 38.90625 C 62.308594 38.914062 64.195312 38.9375 66.082031 38.964844 C 68.027344 38.992188 69.96875 39.007812 71.910156 39.007812 C 73.105469 39.007812 74.300781 39.019531 75.496094 39.046875 C 76.316406 39.0625 77.140625 39.066406 77.964844 39.058594 C 78.4375 39.054688 78.910156 39.058594 79.382812 39.074219 C 79.644531 39.082031 79.644531 39.082031 79.910156 39.089844 C 80.136719 39.101562 80.136719 39.101562 80.367188 39.113281 C 83.804688 38.867188 83.730469 37.769531 86.660156 34.839844 C 73.199219 34.789062 59.738281 34.742188 45.871094 34.695312 C 46.402344 33.894531 46.902344 33.152344 47.523438 32.433594 C 47.585938 32.359375 47.648438 32.285156 47.710938 32.210938 C 47.839844 32.058594 47.96875 31.910156 48.105469 31.761719 C 48.265625 31.582031 48.421875 31.394531 48.574219 31.203125 C 49.382812 30.269531 50.007812 30.171875 51.210938 30.199219 Z M 51.210938 30.199219 "/>
<path style=" stroke:none;fill-rule:nonzero;fill:rgb(11.372549%,16.078432%,33.725491%);fill-opacity:1;" d="M 51.210938 30.199219 C 51.378906 30.199219 51.550781 30.195312 51.726562 30.195312 C 52.195312 30.195312 52.664062 30.199219 53.132812 30.203125 C 53.640625 30.207031 54.144531 30.207031 54.652344 30.207031 C 55.53125 30.207031 56.40625 30.210938 57.285156 30.214844 C 58.554688 30.226562 59.820312 30.226562 61.089844 30.230469 C 63.148438 30.230469 65.207031 30.238281 67.261719 30.25 C 69.261719 30.261719 71.261719 30.269531 73.257812 30.273438 C 73.382812 30.273438 73.503906 30.277344 73.632812 30.277344 C 74.25 30.277344 74.871094 30.277344 75.488281 30.28125 C 80.617188 30.292969 85.742188 30.3125 90.871094 30.339844 C 90.75 30.957031 90.429688 31.269531 89.988281 31.695312 C 89.914062 31.769531 89.839844 31.839844 89.761719 31.917969 C 89.527344 32.148438 89.292969 32.378906 89.054688 32.605469 C 88.820312 32.835938 88.585938 33.070312 88.347656 33.300781 C 88.203125 33.445312 88.054688 33.589844 87.910156 33.730469 C 87.527344 34.101562 87.527344 34.101562 87.242188 34.546875 C 87.328125 34.542969 87.414062 34.539062 87.503906 34.535156 C 88.40625 34.488281 89.304688 34.460938 90.210938 34.4375 C 90.546875 34.425781 90.882812 34.414062 91.21875 34.394531 C 93.929688 34.257812 93.929688 34.257812 94.628906 34.734375 C 95.136719 35.273438 95.394531 35.902344 95.660156 36.582031 C 95.785156 36.792969 95.910156 37.007812 96.042969 37.214844 C 96.136719 37.375 96.226562 37.539062 96.324219 37.707031 C 96.375 37.789062 96.421875 37.875 96.472656 37.964844 C 96.824219 38.578125 96.824219 38.578125 96.824219 38.902344 C 96.648438 38.902344 96.476562 38.902344 96.296875 38.902344 C 94.65625 38.898438 93.015625 38.898438 91.375 38.90625 C 90.53125 38.910156 89.6875 38.914062 88.84375 38.910156 C 88.03125 38.90625 87.21875 38.910156 86.402344 38.914062 C 86.09375 38.917969 85.78125 38.917969 85.472656 38.914062 C 85.035156 38.910156 84.601562 38.914062 84.167969 38.917969 C 84.039062 38.917969 83.910156 38.914062 83.78125 38.914062 C 82.890625 38.933594 82.453125 39.191406 81.820312 39.8125 C 81.742188 39.894531 81.664062 39.980469 81.582031 40.066406 C 81.457031 40.179688 81.335938 40.296875 81.210938 40.414062 C 81.109375 40.515625 81.007812 40.621094 80.902344 40.726562 C 80.789062 40.839844 80.671875 40.953125 80.558594 41.070312 C 80.441406 41.183594 80.328125 41.296875 80.210938 41.417969 C 80.09375 41.535156 79.972656 41.652344 79.851562 41.773438 C 79.742188 41.886719 79.628906 41.996094 79.511719 42.113281 C 79.410156 42.214844 79.308594 42.316406 79.207031 42.421875 C 78.957031 42.664062 78.957031 42.664062 78.824219 42.96875 C 85.289062 42.96875 91.757812 42.96875 98.417969 42.96875 C 99.296875 46.039062 99.296875 46.039062 99.289062 47.324219 C 99.164062 47.324219 99.035156 47.320312 98.902344 47.320312 C 95.796875 47.316406 92.691406 47.320312 89.585938 47.328125 C 88.082031 47.332031 86.578125 47.332031 85.078125 47.328125 C 83.769531 47.328125 82.457031 47.328125 81.148438 47.332031 C 80.457031 47.335938 79.761719 47.335938 79.070312 47.332031 C 78.417969 47.332031 77.761719 47.332031 77.109375 47.335938 C 76.871094 47.339844 76.632812 47.335938 76.394531 47.335938 C 74.9375 47.285156 74.9375 47.285156 73.660156 47.890625 C 73.277344 48.300781 72.96875 48.75 72.652344 49.207031 C 71.84375 50.316406 70.972656 51.269531 69.59375 51.550781 C 67.746094 51.820312 65.847656 51.730469 63.984375 51.679688 C 63.160156 51.664062 62.339844 51.660156 61.515625 51.65625 C 59.964844 51.648438 58.414062 51.625 56.859375 51.597656 C 55.089844 51.5625 53.320312 51.546875 51.550781 51.53125 C 47.914062 51.503906 44.28125 51.453125 40.644531 51.386719 C 40.636719 50.957031 40.632812 50.527344 40.628906 50.097656 C 40.625 49.980469 40.621094 49.859375 40.621094 49.738281 C 40.613281 48.851562 40.730469 48.039062 40.933594 47.175781 C 41.191406 47.179688 41.191406 47.179688 41.449219 47.1875 C 45.484375 47.25 49.519531 47.292969 53.558594 47.316406 C 54.058594 47.316406 54.554688 47.320312 55.054688 47.324219 C 55.152344 47.324219 55.253906 47.324219 55.355469 47.324219 C 56.957031 47.332031 58.554688 47.355469 60.152344 47.382812 C 61.800781 47.414062 63.445312 47.425781 65.089844 47.425781 C 66.015625 47.425781 66.9375 47.433594 67.859375 47.457031 C 68.730469 47.480469 69.601562 47.484375 70.472656 47.472656 C 70.789062 47.472656 71.105469 47.480469 71.421875 47.492188 C 72.597656 47.539062 73.25 47.355469 74.46875 47.03125 C 75.714844 45.785156 76.957031 44.542969 78.242188 43.257812 C 60.207031 43.1875 60.207031 43.1875 41.804688 43.113281 C 42.101562 42.027344 42.40625 41.054688 42.851562 40.039062 C 42.902344 39.914062 42.957031 39.789062 43.011719 39.660156 C 43.140625 39.359375 43.273438 39.058594 43.402344 38.757812 C 43.527344 38.757812 43.527344 38.757812 43.652344 38.761719 C 48.535156 38.828125 53.417969 38.875 58.300781 38.894531 C 58.890625 38.898438 59.476562 38.902344 60.066406 38.902344 C 60.183594 38.902344 60.300781 38.90625 60.421875 38.90625 C 62.308594 38.914062 64.195312 38.9375 66.082031 38.964844 C 68.027344 38.992188 69.96875 39.007812 71.910156 39.007812 C 73.105469 39.007812 74.300781 39.019531 75.496094 39.046875 C 76.316406 39.0625 77.140625 39.066406 77.964844 39.058594 C 78.4375 39.054688 78.910156 39.058594 79.382812 39.074219 C 79.644531 39.082031 79.644531 39.082031 79.910156 39.089844 C 80.136719 39.101562 80.136719 39.101562 80.367188 39.113281 C 83.804688 38.867188 83.730469 37.769531 86.660156 34.839844 C 73.199219 34.789062 59.738281 34.742188 45.871094 34.695312 C 46.402344 33.894531 46.902344 33.152344 47.523438 32.433594 C 47.585938 32.359375 47.648438 32.285156 47.710938 32.210938 C 47.839844 32.058594 47.96875 31.910156 48.105469 31.761719 C 48.265625 31.582031 48.421875 31.394531 48.574219 31.203125 C 49.382812 30.269531 50.007812 30.171875 51.210938 30.199219 Z M 51.210938 30.199219 "/>
<path style=" stroke:none;fill-rule:nonzero;fill:rgb(6.666667%,14.117648%,34.117648%);fill-opacity:1;" d="M 73.277344 99.578125 C 74.265625 100.402344 74.929688 101.355469 75.195312 102.628906 C 75.230469 103.261719 75.222656 103.898438 75.222656 104.535156 C 75.222656 104.632812 75.222656 104.726562 75.222656 104.828125 C 75.21875 107.003906 75.109375 109.171875 74.996094 111.34375 C 74.992188 111.46875 74.984375 111.597656 74.976562 111.726562 C 74.972656 111.855469 74.964844 111.980469 74.957031 112.109375 C 74.863281 113.980469 74.8125 115.851562 74.757812 117.726562 C 72.984375 117.726562 71.214844 117.726562 69.386719 117.726562 C 69.523438 112.367188 69.523438 112.367188 69.613281 110.660156 C 69.671875 109.496094 69.707031 108.332031 69.722656 107.164062 C 69.726562 107.007812 69.730469 106.855469 69.734375 106.695312 C 69.746094 105.484375 69.546875 104.441406 68.726562 103.519531 C 67.59375 102.722656 66.246094 102.429688 64.886719 102.628906 C 63.539062 103.007812 62.484375 103.625 61.703125 104.792969 C 60.925781 106.183594 60.703125 107.589844 60.53125 109.160156 C 60.519531 109.269531 60.507812 109.375 60.496094 109.484375 C 60.394531 110.425781 60.34375 111.363281 60.308594 112.3125 C 60.304688 112.464844 60.296875 112.621094 60.289062 112.78125 C 60.269531 113.273438 60.25 113.769531 60.234375 114.261719 C 60.21875 114.597656 60.207031 114.933594 60.191406 115.269531 C 60.160156 116.085938 60.128906 116.90625 60.097656 117.726562 C 58.277344 117.726562 56.457031 117.726562 54.582031 117.726562 C 54.582031 116.765625 54.585938 115.84375 54.671875 114.890625 C 54.679688 114.78125 54.6875 114.671875 54.699219 114.558594 C 54.726562 114.214844 54.757812 113.871094 54.789062 113.523438 C 54.808594 113.296875 54.828125 113.066406 54.847656 112.835938 C 54.996094 111.136719 54.996094 111.136719 55.058594 110.425781 C 55.160156 109.304688 55.203125 108.183594 55.234375 107.054688 C 55.289062 105.066406 55.289062 105.066406 55.378906 104.097656 C 55.476562 103.015625 55.503906 101.933594 55.535156 100.851562 C 55.554688 100.144531 55.574219 99.4375 55.597656 98.710938 C 57.371094 98.710938 59.140625 98.710938 60.96875 98.710938 C 60.96875 99.621094 60.96875 100.53125 60.96875 101.46875 C 61.148438 101.25 61.332031 101.03125 61.519531 100.804688 C 64.246094 97.792969 69.925781 97.210938 73.277344 99.578125 Z M 73.277344 99.578125 "/>
<path style=" stroke:none;fill-rule:nonzero;fill:rgb(7.058824%,14.117648%,34.509805%);fill-opacity:1;" d="M 107.664062 98.230469 C 107.925781 98.226562 107.925781 98.226562 108.191406 98.222656 C 110.363281 98.222656 112.8125 98.621094 114.441406 100.175781 C 115.910156 101.890625 115.46875 104.519531 115.308594 106.605469 C 115.296875 106.769531 115.285156 106.929688 115.269531 107.097656 C 115.105469 109.320312 114.988281 111.542969 114.878906 113.769531 C 114.859375 114.15625 114.835938 114.542969 114.816406 114.929688 C 114.769531 115.863281 114.722656 116.792969 114.675781 117.726562 C 112.953125 117.726562 111.226562 117.726562 109.453125 117.726562 C 109.550781 114.476562 109.78125 111.242188 110.03125 108 C 109.917969 108.058594 109.800781 108.117188 109.679688 108.179688 C 109.527344 108.257812 109.371094 108.335938 109.210938 108.417969 C 108.984375 108.53125 108.984375 108.53125 108.753906 108.652344 C 107.847656 109.082031 106.898438 109.355469 105.9375 109.621094 C 104.335938 110.070312 102.878906 110.480469 101.859375 111.890625 C 101.640625 112.582031 101.6875 113.175781 101.929688 113.84375 C 102.40625 114.5625 102.949219 114.929688 103.789062 115.113281 C 105.183594 115.238281 106.5 114.964844 107.855469 114.675781 C 107.835938 114.773438 107.816406 114.867188 107.796875 114.964844 C 107.730469 115.300781 107.671875 115.632812 107.613281 115.96875 C 107.574219 116.171875 107.53125 116.378906 107.492188 116.582031 C 107.476562 116.6875 107.460938 116.789062 107.441406 116.898438 C 107.347656 117.335938 107.269531 117.628906 106.890625 117.890625 C 105.871094 118.292969 104.75 118.226562 103.671875 118.214844 C 103.484375 118.21875 103.296875 118.21875 103.105469 118.222656 C 101.285156 118.214844 99.496094 117.96875 98.101562 116.714844 C 96.921875 115.480469 96.464844 114.039062 96.492188 112.351562 C 96.640625 110.699219 97.539062 109.664062 98.730469 108.589844 C 100.996094 106.8125 104.320312 106.375 107.046875 105.742188 C 108.058594 105.5 108.957031 105.164062 109.695312 104.40625 C 109.953125 103.765625 109.929688 103.289062 109.742188 102.628906 C 109.402344 102 109.007812 101.796875 108.34375 101.558594 C 107.707031 101.390625 107.078125 101.382812 106.421875 101.386719 C 106.273438 101.386719 106.121094 101.386719 105.96875 101.386719 C 103.980469 101.429688 101.933594 101.867188 100.078125 102.585938 C 99.582031 102.773438 99.582031 102.773438 99.144531 102.773438 C 99.191406 102.328125 99.234375 101.886719 99.28125 101.441406 C 99.292969 101.316406 99.304688 101.191406 99.320312 101.058594 C 99.332031 100.9375 99.34375 100.816406 99.359375 100.691406 C 99.371094 100.578125 99.378906 100.46875 99.390625 100.351562 C 99.4375 99.992188 99.507812 99.644531 99.582031 99.289062 C 102.300781 98.6875 104.875 98.253906 107.664062 98.230469 Z M 107.664062 98.230469 "/>
<path style=" stroke:none;fill-rule:nonzero;fill:rgb(7.058824%,14.117648%,34.117648%);fill-opacity:1;" d="M 79.402344 98.710938 C 84.289062 98.710938 89.175781 98.710938 94.210938 98.710938 C 94.210938 103.128906 94.210938 103.128906 93.480469 103.875 C 93.398438 103.964844 93.3125 104.054688 93.222656 104.148438 C 93.132812 104.238281 93.042969 104.332031 92.949219 104.425781 C 92.761719 104.621094 92.578125 104.8125 92.390625 105.007812 C 92.300781 105.097656 92.214844 105.191406 92.121094 105.285156 C 91.859375 105.5625 91.601562 105.847656 91.351562 106.140625 C 90.933594 106.625 90.503906 107.09375 90.074219 107.566406 C 89.632812 108.042969 89.191406 108.523438 88.765625 109.015625 C 88.339844 109.507812 87.902344 109.988281 87.460938 110.46875 C 87.011719 110.953125 86.566406 111.441406 86.136719 111.9375 C 85.542969 112.617188 84.941406 113.28125 84.339844 113.953125 C 87.355469 114 90.375 114.046875 93.484375 114.097656 C 93.484375 116.273438 93.484375 116.273438 93.339844 117.726562 C 88.308594 117.726562 83.277344 117.726562 78.097656 117.726562 C 78.097656 113.515625 78.097656 113.515625 78.824219 112.789062 C 78.90625 112.707031 78.992188 112.625 79.078125 112.539062 C 79.605469 112.019531 80.101562 111.484375 80.582031 110.925781 C 80.886719 110.578125 81.195312 110.230469 81.507812 109.886719 C 81.980469 109.363281 82.449219 108.832031 82.914062 108.296875 C 83.210938 107.960938 83.511719 107.632812 83.8125 107.300781 C 84.253906 106.8125 84.679688 106.3125 85.089844 105.796875 C 85.742188 104.992188 86.441406 104.242188 87.152344 103.492188 C 87.238281 103.402344 87.324219 103.316406 87.410156 103.222656 C 87.523438 103.101562 87.523438 103.101562 87.640625 102.980469 C 87.835938 102.773438 87.835938 102.773438 87.96875 102.484375 C 85.09375 102.484375 82.21875 102.484375 79.257812 102.484375 C 79.304688 101.238281 79.355469 99.992188 79.402344 98.710938 Z M 79.402344 98.710938 "/>
<path style=" stroke:none;fill-rule:nonzero;fill:rgb(7.058824%,14.117648%,34.509805%);fill-opacity:1;" d="M 26.273438 98.710938 C 31.160156 98.710938 36.046875 98.710938 41.082031 98.710938 C 41.082031 103.128906 41.082031 103.128906 40.351562 103.875 C 40.269531 103.964844 40.183594 104.054688 40.09375 104.148438 C 40.003906 104.238281 39.914062 104.332031 39.820312 104.425781 C 39.632812 104.621094 39.449219 104.8125 39.261719 105.007812 C 39.171875 105.097656 39.085938 105.191406 38.992188 105.285156 C 38.726562 105.5625 38.472656 105.847656 38.222656 106.140625 C 37.804688 106.625 37.375 107.09375 36.945312 107.566406 C 36.503906 108.042969 36.0625 108.523438 35.636719 109.015625 C 35.210938 109.507812 34.773438 109.988281 34.332031 110.46875 C 33.882812 110.953125 33.4375 111.441406 33.007812 111.9375 C 32.414062 112.617188 31.8125 113.28125 31.210938 113.953125 C 34.226562 114 37.246094 114.046875 40.355469 114.097656 C 40.355469 116.273438 40.355469 116.273438 40.210938 117.726562 C 35.179688 117.726562 30.148438 117.726562 24.96875 117.726562 C 24.96875 113.515625 24.96875 113.515625 25.695312 112.789062 C 25.777344 112.707031 25.863281 112.625 25.949219 112.539062 C 26.476562 112.019531 26.972656 111.484375 27.453125 110.925781 C 27.757812 110.578125 28.066406 110.230469 28.378906 109.886719 C 28.851562 109.363281 29.320312 108.832031 29.785156 108.296875 C 30.082031 107.960938 30.382812 107.632812 30.683594 107.300781 C 31.125 106.8125 31.550781 106.3125 31.960938 105.796875 C 32.613281 104.992188 33.3125 104.242188 34.023438 103.492188 C 34.109375 103.402344 34.195312 103.316406 34.28125 103.222656 C 34.394531 103.101562 34.394531 103.101562 34.511719 102.980469 C 34.707031 102.773438 34.707031 102.773438 34.839844 102.484375 C 31.964844 102.484375 29.089844 102.484375 26.128906 102.484375 C 26.175781 101.238281 26.226562 99.992188 26.273438 98.710938 Z M 26.273438 98.710938 "/>
<path style=" stroke:none;fill-rule:nonzero;fill:rgb(15.294118%,23.921569%,49.411765%);fill-opacity:1;" d="M 62.125 68.09375 C 63.246094 68.097656 64.367188 68.101562 65.488281 68.105469 C 67.484375 68.113281 69.480469 68.121094 71.476562 68.132812 C 73.414062 68.140625 75.347656 68.148438 77.28125 68.15625 C 77.460938 68.15625 77.460938 68.15625 77.644531 68.15625 C 78.25 68.160156 78.851562 68.160156 79.457031 68.164062 C 84.421875 68.183594 89.386719 68.203125 94.355469 68.226562 C 94.085938 68.789062 93.734375 69.261719 93.347656 69.75 C 93.285156 69.828125 93.226562 69.910156 93.160156 69.992188 C 93.023438 70.164062 92.882812 70.335938 92.738281 70.5 C 92.453125 70.84375 92.453125 70.84375 92.210938 71.269531 C 91.738281 71.949219 91.3125 72.464844 90.488281 72.679688 C 89.390625 72.832031 88.28125 72.804688 87.175781 72.78125 C 86.667969 72.773438 86.160156 72.777344 85.652344 72.777344 C 84.773438 72.78125 83.894531 72.773438 83.011719 72.765625 C 81.742188 72.75 80.472656 72.746094 79.199219 72.742188 C 77.136719 72.738281 75.074219 72.730469 73.011719 72.710938 C 71.011719 72.695312 69.007812 72.683594 67.003906 72.675781 C 66.882812 72.675781 66.757812 72.675781 66.628906 72.675781 C 66.011719 72.671875 65.390625 72.671875 64.769531 72.667969 C 59.632812 72.648438 54.492188 72.621094 49.355469 72.582031 C 49.476562 71.945312 49.824219 71.621094 50.277344 71.179688 C 50.34375 71.113281 50.414062 71.046875 50.484375 70.976562 C 50.738281 70.722656 50.996094 70.472656 51.25 70.222656 C 51.824219 69.660156 52.394531 69.097656 52.984375 68.515625 C 49.464844 68.445312 49.464844 68.445312 45.871094 68.371094 C 45.871094 68.324219 45.871094 68.273438 45.871094 68.226562 C 51.289062 68.089844 56.703125 68.066406 62.125 68.09375 Z M 62.125 68.09375 "/>
<path style=" stroke:none;fill-rule:nonzero;fill:rgb(16.470589%,25.098041%,50.196081%);fill-opacity:1;" d="M 86.769531 51.304688 C 87.015625 51.308594 87.015625 51.308594 87.261719 51.308594 C 91.367188 51.332031 95.476562 51.359375 99.582031 51.386719 C 99.582031 51.777344 99.582031 52.167969 99.585938 52.558594 C 99.585938 52.667969 99.585938 52.777344 99.585938 52.886719 C 99.589844 53.792969 99.570312 54.699219 99.433594 55.597656 C 99.144531 55.886719 98.5625 55.765625 98.167969 55.765625 C 97.988281 55.765625 97.988281 55.765625 97.804688 55.769531 C 97.398438 55.769531 96.996094 55.773438 96.589844 55.773438 C 96.300781 55.777344 96.007812 55.777344 95.71875 55.777344 C 94.917969 55.785156 94.121094 55.789062 93.320312 55.789062 C 92.640625 55.792969 91.960938 55.796875 91.28125 55.800781 C 89.257812 55.8125 87.238281 55.820312 85.214844 55.828125 C 84.261719 55.832031 83.308594 55.835938 82.355469 55.839844 C 71.984375 55.886719 61.617188 55.894531 51.25 55.824219 C 51.117188 55.824219 50.984375 55.820312 50.84375 55.820312 C 47.542969 55.796875 44.238281 55.773438 40.933594 55.742188 C 40.933594 55.695312 40.933594 55.644531 40.933594 55.597656 C 41.125 55.601562 41.125 55.601562 41.316406 55.605469 C 44.398438 55.671875 47.480469 55.714844 50.5625 55.734375 C 52.054688 55.746094 53.542969 55.765625 55.035156 55.796875 C 56.335938 55.828125 57.636719 55.84375 58.9375 55.847656 C 59.625 55.847656 60.3125 55.855469 61 55.878906 C 61.648438 55.898438 62.296875 55.902344 62.949219 55.894531 C 63.183594 55.894531 63.421875 55.898438 63.65625 55.914062 C 64.625 55.964844 65.027344 55.785156 66.046875 55.453125 C 67.292969 54.207031 68.539062 52.960938 69.824219 51.675781 C 55.378906 51.605469 55.378906 51.605469 40.644531 51.53125 C 40.644531 51.484375 40.644531 51.4375 40.644531 51.386719 C 44.96875 51.355469 49.292969 51.328125 53.617188 51.304688 C 53.863281 51.304688 53.863281 51.304688 54.113281 51.300781 C 65 51.242188 75.882812 51.242188 86.769531 51.304688 Z M 86.769531 51.304688 "/>
<path style=" stroke:none;fill-rule:nonzero;fill:rgb(10.980392%,15.686275%,33.333334%);fill-opacity:1;" d="M 40.933594 47.324219 C 51.90625 47.324219 62.875 47.324219 74.175781 47.324219 C 73.890625 47.65625 73.601562 47.992188 73.304688 48.339844 C 73.132812 48.589844 72.960938 48.839844 72.792969 49.09375 C 71.828125 50.386719 70.851562 51.363281 69.21875 51.613281 C 67.476562 51.804688 65.71875 51.742188 63.96875 51.695312 C 63.148438 51.675781 62.324219 51.675781 61.503906 51.671875 C 59.953125 51.664062 58.402344 51.636719 56.847656 51.605469 C 55.082031 51.574219 53.3125 51.554688 51.542969 51.539062 C 47.910156 51.507812 44.277344 51.457031 40.644531 51.386719 C 40.636719 50.953125 40.632812 50.523438 40.628906 50.089844 C 40.625 49.96875 40.621094 49.847656 40.621094 49.722656 C 40.617188 49.605469 40.617188 49.484375 40.617188 49.359375 C 40.617188 49.25 40.613281 49.140625 40.613281 49.03125 C 40.660156 48.453125 40.808594 47.886719 40.933594 47.324219 Z M 40.933594 47.324219 "/>
<path style=" stroke:none;fill-rule:nonzero;fill:rgb(18.039216%,25.882354%,50.196081%);fill-opacity:1;" d="M 41.804688 42.824219 C 47.460938 42.816406 53.113281 42.816406 58.765625 42.8125 C 59.089844 42.8125 59.410156 42.8125 59.730469 42.8125 C 80.695312 42.808594 80.695312 42.808594 90.933594 42.894531 C 91.035156 42.894531 91.136719 42.898438 91.242188 42.898438 C 93.632812 42.917969 96.027344 42.941406 98.417969 42.96875 C 98.511719 43.292969 98.605469 43.617188 98.699219 43.9375 C 98.777344 44.210938 98.777344 44.210938 98.855469 44.484375 C 99.132812 45.46875 99.296875 46.296875 99.289062 47.324219 C 95.796875 47.355469 92.304688 47.378906 88.8125 47.402344 C 88.609375 47.40625 88.609375 47.40625 88.402344 47.40625 C 77.597656 47.480469 66.792969 47.457031 55.988281 47.402344 C 55.800781 47.402344 55.609375 47.402344 55.417969 47.402344 C 50.589844 47.378906 45.761719 47.351562 40.933594 47.324219 C 40.933594 47.273438 40.933594 47.226562 40.933594 47.175781 C 41.191406 47.179688 41.191406 47.179688 41.449219 47.1875 C 45.484375 47.25 49.519531 47.292969 53.558594 47.316406 C 54.058594 47.316406 54.554688 47.320312 55.054688 47.324219 C 55.152344 47.324219 55.253906 47.324219 55.355469 47.324219 C 56.957031 47.332031 58.554688 47.355469 60.152344 47.382812 C 61.800781 47.414062 63.445312 47.425781 65.089844 47.425781 C 66.015625 47.425781 66.9375 47.433594 67.859375 47.457031 C 68.730469 47.480469 69.601562 47.484375 70.472656 47.472656 C 70.789062 47.472656 71.105469 47.480469 71.421875 47.492188 C 72.597656 47.539062 73.25 47.355469 74.46875 47.03125 C 75.714844 45.785156 76.957031 44.542969 78.242188 43.257812 C 60.207031 43.1875 60.207031 43.1875 41.804688 43.113281 C 41.804688 43.015625 41.804688 42.921875 41.804688 42.824219 Z M 41.804688 42.824219 "/>
<path style=" stroke:none;fill-rule:nonzero;fill:rgb(7.058824%,14.117648%,34.509805%);fill-opacity:1;" d="M 45.289062 98.710938 C 47.109375 98.710938 48.929688 98.710938 50.804688 98.710938 C 50.667969 101.480469 50.667969 101.480469 50.605469 102.65625 C 50.441406 105.792969 50.332031 108.929688 50.273438 112.074219 C 50.238281 113.960938 50.175781 115.839844 50.082031 117.726562 C 48.210938 117.726562 46.34375 117.726562 44.417969 117.726562 C 44.417969 116.128906 44.417969 116.128906 44.566406 115.402344 C 44.59375 115.042969 44.613281 114.6875 44.632812 114.328125 C 44.636719 114.21875 44.644531 114.109375 44.648438 114 C 44.667969 113.636719 44.683594 113.273438 44.699219 112.910156 C 44.707031 112.78125 44.710938 112.65625 44.71875 112.527344 C 44.855469 109.660156 44.953125 106.796875 45.042969 103.929688 C 45.050781 103.753906 45.054688 103.578125 45.0625 103.398438 C 45.070312 103.074219 45.082031 102.75 45.09375 102.425781 C 45.132812 101.183594 45.210938 99.953125 45.289062 98.710938 Z M 45.289062 98.710938 "/>
<path style=" stroke:none;fill-rule:nonzero;fill:rgb(10.980392%,15.686275%,33.333334%);fill-opacity:1;" d="M 40.933594 55.742188 C 49.125 55.742188 57.320312 55.742188 65.757812 55.742188 C 65.46875 56.078125 65.183594 56.414062 64.886719 56.757812 C 64.691406 57.007812 64.496094 57.261719 64.300781 57.511719 C 63.125 58.925781 62.136719 59.941406 60.234375 60.128906 C 59.3125 60.164062 58.402344 60.152344 57.484375 60.117188 C 56.929688 60.097656 56.378906 60.09375 55.824219 60.089844 C 54.78125 60.082031 53.738281 60.058594 52.695312 60.027344 C 51.507812 59.992188 50.320312 59.976562 49.128906 59.960938 C 46.6875 59.929688 44.246094 59.875 41.804688 59.804688 C 41.738281 59.601562 41.667969 59.398438 41.597656 59.191406 C 41.558594 59.078125 41.519531 58.964844 41.480469 58.847656 C 41.320312 58.332031 41.21875 57.8125 41.125 57.285156 C 41.105469 57.183594 41.089844 57.082031 41.070312 56.976562 C 40.992188 56.558594 40.933594 56.167969 40.933594 55.742188 Z M 40.933594 55.742188 "/>
<path style=" stroke:none;fill-rule:nonzero;fill:rgb(13.333334%,17.647059%,34.901962%);fill-opacity:1;" d="M 71.566406 21.917969 C 71.832031 21.921875 71.832031 21.921875 72.109375 21.929688 C 75.933594 22.082031 79.804688 23.359375 83.230469 24.996094 C 83.472656 25.109375 83.472656 25.109375 83.714844 25.226562 C 83.941406 25.335938 83.941406 25.335938 84.167969 25.445312 C 84.304688 25.511719 84.4375 25.574219 84.574219 25.644531 C 84.917969 25.839844 84.917969 25.839844 85.355469 26.273438 C 75.34375 26.273438 65.332031 26.273438 55.015625 26.273438 C 55.511719 25.78125 55.773438 25.570312 56.375 25.28125 C 56.527344 25.207031 56.679688 25.136719 56.835938 25.058594 C 56.996094 24.984375 57.15625 24.910156 57.320312 24.832031 C 57.566406 24.714844 57.566406 24.714844 57.820312 24.59375 C 62.183594 22.558594 66.769531 21.78125 71.566406 21.917969 Z M 71.566406 21.917969 "/>
<path style=" stroke:none;fill-rule:nonzero;fill:rgb(13.725491%,22.745098%,49.019608%);fill-opacity:1;" d="M 55.160156 76.789062 C 65.03125 76.789062 74.898438 76.789062 85.066406 76.789062 C 84.605469 77.25 84.144531 77.5 83.566406 77.777344 C 83.464844 77.832031 83.359375 77.882812 83.253906 77.933594 C 80.53125 79.257812 77.847656 80.097656 74.871094 80.636719 C 74.550781 80.695312 74.226562 80.757812 73.902344 80.820312 C 71.257812 81.265625 68.246094 81.191406 65.613281 80.710938 C 65.5 80.691406 65.390625 80.671875 65.273438 80.652344 C 62.113281 80.09375 59.066406 79.113281 56.222656 77.605469 C 56.132812 77.558594 56.039062 77.511719 55.945312 77.460938 C 55.324219 77.121094 55.324219 77.121094 55.160156 76.789062 Z M 55.160156 76.789062 "/>
<path style=" stroke:none;fill-rule:nonzero;fill:rgb(21.176471%,28.235295%,51.372552%);fill-opacity:1;" d="M 88.738281 34.371094 C 89.417969 34.359375 90.097656 34.355469 90.777344 34.351562 C 91.089844 34.347656 91.402344 34.34375 91.710938 34.332031 C 93.988281 34.257812 93.988281 34.257812 94.605469 34.746094 C 95.089844 35.296875 95.375 35.910156 95.660156 36.582031 C 95.785156 36.792969 95.910156 37.003906 96.042969 37.214844 C 96.136719 37.375 96.226562 37.539062 96.324219 37.707031 C 96.375 37.789062 96.421875 37.875 96.472656 37.964844 C 96.824219 38.578125 96.824219 38.578125 96.824219 38.902344 C 88.757812 39.023438 80.699219 39.0625 72.632812 39.03125 C 72.527344 39.03125 72.421875 39.03125 72.308594 39.03125 C 69.578125 39.019531 66.847656 39.007812 64.117188 38.996094 C 62.53125 38.988281 60.949219 38.980469 59.367188 38.972656 C 59.253906 38.972656 59.140625 38.972656 59.023438 38.972656 C 58.453125 38.96875 57.886719 38.96875 57.316406 38.964844 C 52.679688 38.945312 48.039062 38.925781 43.402344 38.902344 C 43.402344 38.855469 43.402344 38.808594 43.402344 38.757812 C 43.484375 38.757812 43.566406 38.761719 43.652344 38.761719 C 48.535156 38.828125 53.417969 38.875 58.300781 38.894531 C 58.890625 38.898438 59.476562 38.902344 60.066406 38.902344 C 60.183594 38.902344 60.300781 38.90625 60.421875 38.90625 C 62.308594 38.914062 64.195312 38.9375 66.082031 38.964844 C 68.027344 38.992188 69.96875 39.007812 71.910156 39.007812 C 73.105469 39.007812 74.300781 39.019531 75.496094 39.046875 C 76.316406 39.0625 77.140625 39.066406 77.964844 39.058594 C 78.4375 39.054688 78.910156 39.058594 79.382812 39.074219 C 79.644531 39.082031 79.644531 39.082031 79.910156 39.089844 C 80.136719 39.101562 80.136719 39.101562 80.367188 39.113281 C 83.804688 38.867188 83.730469 37.769531 86.660156 34.839844 C 73.199219 34.789062 59.738281 34.742188 45.871094 34.695312 C 45.871094 34.644531 45.871094 34.597656 45.871094 34.546875 C 51 34.527344 56.128906 34.503906 61.257812 34.484375 C 61.867188 34.484375 62.476562 34.480469 63.085938 34.476562 C 63.207031 34.476562 63.328125 34.476562 63.453125 34.476562 C 65.402344 34.46875 67.347656 34.460938 69.296875 34.453125 C 71.304688 34.445312 73.3125 34.4375 75.324219 34.429688 C 76.445312 34.425781 77.570312 34.421875 78.695312 34.414062 C 79.125 34.414062 79.558594 34.410156 79.988281 34.410156 C 80.09375 34.410156 80.199219 34.40625 80.308594 34.40625 C 81.433594 34.402344 82.558594 34.398438 83.6875 34.402344 C 83.785156 34.402344 83.882812 34.402344 83.980469 34.402344 C 84.460938 34.402344 84.941406 34.402344 85.421875 34.40625 C 86.527344 34.40625 87.632812 34.394531 88.738281 34.371094 Z M 88.738281 34.371094 "/>
<path style=" stroke:none;fill-rule:nonzero;fill:rgb(10.980392%,15.686275%,33.333334%);fill-opacity:1;" d="M 43.546875 64.160156 C 48.097656 64.160156 52.648438 64.160156 57.339844 64.160156 C 57.050781 64.496094 56.765625 64.832031 56.46875 65.175781 C 56.304688 65.429688 56.144531 65.6875 55.988281 65.945312 C 55.0625 67.25 54.15625 68.125 52.550781 68.414062 C 51.53125 68.550781 50.519531 68.582031 49.492188 68.597656 C 49.234375 68.609375 49.234375 68.609375 48.972656 68.621094 C 46.265625 68.707031 46.265625 68.707031 45.402344 67.9375 C 44.765625 67.140625 44.367188 66.257812 43.984375 65.324219 C 43.898438 65.152344 43.8125 64.984375 43.726562 64.8125 C 43.546875 64.453125 43.546875 64.453125 43.546875 64.160156 Z M 43.546875 64.160156 "/>
<path style=" stroke:none;fill-rule:nonzero;fill:rgb(97.254902%,97.254902%,98.039216%);fill-opacity:1;" d="M 120.382812 94.4375 C 121.097656 94.851562 121.574219 95.441406 121.988281 96.140625 C 122.214844 97.101562 122.199219 98.003906 121.703125 98.871094 C 121.136719 99.636719 120.421875 100.269531 119.46875 100.453125 C 118.535156 100.539062 117.75 100.371094 117.007812 99.796875 C 116.230469 99.070312 115.828125 98.34375 115.773438 97.265625 C 115.808594 96.398438 116.0625 95.753906 116.660156 95.117188 C 117.707031 94.167969 119.050781 93.839844 120.382812 94.4375 Z M 120.382812 94.4375 "/>
<path style=" stroke:none;fill-rule:nonzero;fill:rgb(21.568628%,20.392157%,20.784314%);fill-opacity:1;" d="M 28.304688 122.953125 C 31.347656 122.953125 31.347656 122.953125 32.210938 123.59375 C 32.484375 123.984375 32.445312 124.351562 32.433594 124.816406 C 32.371094 125.128906 32.371094 125.128906 32.027344 125.492188 C 31.804688 125.617188 31.582031 125.742188 31.355469 125.855469 C 31.464844 125.894531 31.578125 125.933594 31.691406 125.972656 C 32.078125 126.144531 32.253906 126.253906 32.515625 126.582031 C 32.617188 127.027344 32.601562 127.441406 32.515625 127.886719 C 32.113281 128.410156 31.804688 128.605469 31.210938 128.902344 C 30.25 128.902344 29.292969 128.902344 28.304688 128.902344 C 28.304688 126.9375 28.304688 124.976562 28.304688 122.953125 Z M 28.304688 122.953125 "/>
<path style=" stroke:none;fill-rule:nonzero;fill:rgb(8.627451%,15.294118%,35.294119%);fill-opacity:1;" d="M 45.433594 91.886719 C 47.253906 91.886719 49.074219 91.886719 50.953125 91.886719 C 50.902344 93.085938 50.855469 94.28125 50.804688 95.515625 C 49.035156 95.515625 47.261719 95.515625 45.433594 95.515625 C 45.433594 94.320312 45.433594 93.121094 45.433594 91.886719 Z M 45.433594 91.886719 "/>
<path style=" stroke:none;fill-rule:nonzero;fill:rgb(98.039216%,98.039216%,98.431373%);fill-opacity:1;" d="M 111.339844 122.660156 C 111.480469 122.660156 111.625 122.660156 111.773438 122.660156 C 111.773438 124.722656 111.773438 126.78125 111.773438 128.902344 C 111.679688 128.902344 111.582031 128.902344 111.484375 128.902344 C 111.484375 128.710938 111.484375 128.519531 111.484375 128.324219 C 111.375 128.417969 111.269531 128.515625 111.15625 128.613281 C 110.46875 129.074219 109.664062 129.011719 108.871094 128.902344 C 108.257812 128.570312 108.066406 128.246094 107.855469 127.597656 C 107.761719 126.742188 107.734375 125.96875 108.101562 125.183594 C 108.636719 124.632812 108.949219 124.425781 109.722656 124.339844 C 110.382812 124.359375 110.796875 124.621094 111.339844 124.984375 C 111.339844 124.21875 111.339844 123.449219 111.339844 122.660156 Z M 111.339844 122.660156 "/>
<path style=" stroke:none;fill-rule:nonzero;fill:rgb(98.039216%,98.039216%,98.431373%);fill-opacity:1;" d="M 56.613281 122.660156 C 56.757812 122.660156 56.898438 122.660156 57.046875 122.660156 C 57.046875 124.722656 57.046875 126.78125 57.046875 128.902344 C 56.953125 128.902344 56.855469 128.902344 56.757812 128.902344 C 56.757812 128.710938 56.757812 128.519531 56.757812 128.324219 C 56.648438 128.417969 56.542969 128.515625 56.429688 128.613281 C 55.742188 129.074219 54.9375 129.011719 54.144531 128.902344 C 53.53125 128.570312 53.34375 128.246094 53.128906 127.597656 C 53.039062 126.742188 53.007812 125.96875 53.375 125.183594 C 53.910156 124.632812 54.222656 124.425781 54.996094 124.339844 C 55.65625 124.359375 56.070312 124.621094 56.613281 124.984375 C 56.613281 124.21875 56.613281 123.449219 56.613281 122.660156 Z M 56.613281 122.660156 "/>
<path style=" stroke:none;fill-rule:nonzero;fill:rgb(98.039216%,98.039216%,98.039216%);fill-opacity:1;" d="M 88.402344 124.402344 C 89.019531 124.707031 89.464844 125.054688 89.710938 125.710938 C 89.902344 127.429688 89.902344 127.429688 89.457031 128.121094 C 88.746094 128.875 88.746094 128.875 88.132812 128.964844 C 87.980469 128.964844 87.832031 128.964844 87.675781 128.964844 C 87.527344 128.96875 87.378906 128.972656 87.222656 128.976562 C 86.804688 128.902344 86.804688 128.902344 86.226562 128.324219 C 86.179688 129.136719 86.128906 129.953125 86.082031 130.789062 C 85.984375 130.789062 85.890625 130.789062 85.789062 130.789062 C 85.789062 128.730469 85.789062 126.671875 85.789062 124.546875 C 85.886719 124.546875 85.980469 124.546875 86.082031 124.546875 C 86.082031 124.738281 86.082031 124.929688 86.082031 125.128906 C 86.175781 125.128906 86.273438 125.128906 86.371094 125.128906 C 86.371094 125.035156 86.371094 124.9375 86.371094 124.839844 C 87.035156 124.441406 87.636719 124.242188 88.402344 124.402344 Z M 88.402344 124.402344 "/>
<path style=" stroke:none;fill-rule:nonzero;fill:rgb(97.647059%,97.647059%,98.039216%);fill-opacity:1;" d="M 45.464844 124.542969 C 46.089844 124.898438 46.386719 125.148438 46.597656 125.855469 C 46.722656 126.925781 46.675781 127.742188 46.015625 128.613281 C 45.304688 129.085938 44.523438 129.003906 43.695312 128.902344 C 43.183594 128.675781 42.90625 128.351562 42.660156 127.84375 C 42.515625 127.402344 42.488281 127.042969 42.488281 126.582031 C 42.484375 126.433594 42.480469 126.289062 42.480469 126.136719 C 42.539062 125.644531 42.675781 125.378906 42.96875 124.984375 C 43.761719 124.40625 44.523438 124.136719 45.464844 124.542969 Z M 45.464844 124.542969 "/>
<path style=" stroke:none;fill-rule:nonzero;fill:rgb(14.901961%,20.784314%,39.215687%);fill-opacity:1;" d="M 120.382812 94.4375 C 121.097656 94.851562 121.574219 95.441406 121.988281 96.140625 C 122.214844 97.101562 122.199219 98.003906 121.703125 98.871094 C 121.136719 99.636719 120.421875 100.269531 119.46875 100.453125 C 118.535156 100.539062 117.75 100.371094 117.007812 99.796875 C 116.230469 99.070312 115.828125 98.34375 115.773438 97.265625 C 115.808594 96.398438 116.0625 95.753906 116.660156 95.117188 C 117.707031 94.167969 119.050781 93.839844 120.382812 94.4375 Z M 116.566406 96.058594 C 116.3125 96.878906 116.308594 97.640625 116.574219 98.457031 C 117.027344 99.097656 117.554688 99.621094 118.304688 99.871094 C 119.191406 99.992188 119.792969 99.867188 120.523438 99.355469 C 121.03125 98.929688 121.460938 98.460938 121.539062 97.792969 C 121.574219 96.792969 121.464844 96.121094 120.773438 95.371094 C 120.039062 94.769531 119.386719 94.683594 118.445312 94.714844 C 117.574219 94.867188 117.070312 95.367188 116.566406 96.058594 Z M 116.566406 96.058594 "/>
<path style=" stroke:none;fill-rule:nonzero;fill:rgb(18.431373%,17.254902%,17.647059%);fill-opacity:1;" d="M 105.675781 124.402344 C 106.160156 124.703125 106.582031 125.050781 106.839844 125.566406 C 106.839844 125.949219 106.839844 126.332031 106.839844 126.726562 C 105.738281 126.726562 104.636719 126.726562 103.5 126.726562 C 103.679688 127.8125 103.679688 127.8125 104.101562 128.246094 C 104.625 128.527344 105.070312 128.53125 105.648438 128.503906 C 105.75 128.5 105.851562 128.5 105.953125 128.496094 C 106.203125 128.488281 106.449219 128.480469 106.695312 128.46875 C 106.695312 128.5625 106.695312 128.660156 106.695312 128.757812 C 105.980469 129.113281 105 128.992188 104.226562 128.902344 C 103.683594 128.628906 103.335938 128.285156 103.066406 127.742188 C 102.871094 126.0625 102.871094 126.0625 103.277344 125.324219 C 103.945312 124.550781 104.628906 124.195312 105.675781 124.402344 Z M 105.675781 124.402344 "/>
<path style=" stroke:none;fill-rule:nonzero;fill:rgb(18.431373%,17.254902%,17.647059%);fill-opacity:1;" d="M 93.484375 124.402344 C 93.964844 124.703125 94.390625 125.050781 94.644531 125.566406 C 94.644531 125.949219 94.644531 126.332031 94.644531 126.726562 C 93.542969 126.726562 92.441406 126.726562 91.304688 126.726562 C 91.484375 127.8125 91.484375 127.8125 91.90625 128.246094 C 92.433594 128.527344 92.878906 128.53125 93.457031 128.503906 C 93.558594 128.5 93.65625 128.5 93.761719 128.496094 C 94.007812 128.488281 94.253906 128.480469 94.5 128.46875 C 94.5 128.5625 94.5 128.660156 94.5 128.757812 C 93.789062 129.113281 92.808594 128.992188 92.03125 128.902344 C 91.492188 128.628906 91.140625 128.285156 90.871094 127.742188 C 90.675781 126.0625 90.675781 126.0625 91.082031 125.324219 C 91.75 124.550781 92.4375 124.195312 93.484375 124.402344 Z M 93.484375 124.402344 "/>
<path style=" stroke:none;fill-rule:nonzero;fill:rgb(18.431373%,17.254902%,17.647059%);fill-opacity:1;" d="M 78.824219 124.402344 C 79.304688 124.703125 79.726562 125.050781 79.984375 125.566406 C 79.984375 125.949219 79.984375 126.332031 79.984375 126.726562 C 78.882812 126.726562 77.78125 126.726562 76.644531 126.726562 C 76.824219 127.8125 76.824219 127.8125 77.246094 128.246094 C 77.773438 128.527344 78.214844 128.53125 78.796875 128.503906 C 78.894531 128.5 78.996094 128.5 79.101562 128.496094 C 79.347656 128.488281 79.59375 128.480469 79.839844 128.46875 C 79.839844 128.5625 79.839844 128.660156 79.839844 128.757812 C 79.128906 129.113281 78.148438 128.992188 77.371094 128.902344 C 76.828125 128.628906 76.480469 128.285156 76.210938 127.742188 C 76.015625 126.0625 76.015625 126.0625 76.421875 125.324219 C 77.089844 124.550781 77.773438 124.195312 78.824219 124.402344 Z M 78.824219 124.402344 "/>
<path style=" stroke:none;fill-rule:nonzero;fill:rgb(18.431373%,17.254902%,17.647059%);fill-opacity:1;" d="M 71.710938 124.402344 C 72.191406 124.703125 72.613281 125.050781 72.871094 125.566406 C 72.871094 125.949219 72.871094 126.332031 72.871094 126.726562 C 71.769531 126.726562 70.667969 126.726562 69.53125 126.726562 C 69.710938 127.8125 69.710938 127.8125 70.132812 128.246094 C 70.660156 128.527344 71.101562 128.53125 71.683594 128.503906 C 71.78125 128.5 71.882812 128.5 71.988281 128.496094 C 72.234375 128.488281 72.480469 128.480469 72.726562 128.46875 C 72.726562 128.5625 72.726562 128.660156 72.726562 128.757812 C 72.015625 129.113281 71.035156 128.992188 70.257812 128.902344 C 69.714844 128.628906 69.367188 128.285156 69.097656 127.742188 C 68.902344 126.0625 68.902344 126.0625 69.308594 125.324219 C 69.976562 124.550781 70.660156 124.195312 71.710938 124.402344 Z M 71.710938 124.402344 "/>
<path style=" stroke:none;fill-rule:nonzero;fill:rgb(18.431373%,17.254902%,17.647059%);fill-opacity:1;" d="M 36.289062 124.402344 C 36.773438 124.703125 37.195312 125.050781 37.453125 125.566406 C 37.453125 125.949219 37.453125 126.332031 37.453125 126.726562 C 36.351562 126.726562 35.25 126.726562 34.113281 126.726562 C 34.292969 127.8125 34.292969 127.8125 34.714844 128.246094 C 35.238281 128.527344 35.683594 128.53125 36.261719 128.503906 C 36.363281 128.5 36.464844 128.5 36.566406 128.496094 C 36.8125 128.488281 37.058594 128.480469 37.304688 128.46875 C 37.304688 128.5625 37.304688 128.660156 37.304688 128.757812 C 36.59375 129.113281 35.613281 128.992188 34.839844 128.902344 C 34.296875 128.628906 33.949219 128.285156 33.675781 127.742188 C 33.484375 126.0625 33.484375 126.0625 33.890625 125.324219 C 34.554688 124.550781 35.242188 124.195312 36.289062 124.402344 Z M 36.289062 124.402344 "/>
<path style=" stroke:none;fill-rule:nonzero;fill:rgb(95.686275%,96.078432%,96.078432%);fill-opacity:1;" d="M 28.742188 126 C 29.132812 125.984375 29.519531 125.96875 29.921875 125.953125 C 30.101562 125.945312 30.101562 125.945312 30.289062 125.933594 C 30.871094 125.921875 31.25 125.964844 31.71875 126.332031 C 32.082031 126.726562 32.082031 126.726562 32.164062 127.242188 C 32.078125 127.761719 32.03125 127.972656 31.644531 128.324219 C 30.679688 128.722656 29.773438 128.632812 28.742188 128.613281 C 28.742188 127.75 28.742188 126.886719 28.742188 126 Z M 28.742188 126 "/>
<path style=" stroke:none;fill-rule:nonzero;fill:rgb(95.686275%,95.686275%,95.686275%);fill-opacity:1;" d="M 28.742188 123.386719 C 30.964844 123.324219 30.964844 123.324219 31.789062 123.824219 C 32 124.238281 31.992188 124.523438 31.933594 124.984375 C 31.242188 125.660156 30.746094 125.730469 29.8125 125.71875 C 29.460938 125.714844 29.105469 125.710938 28.742188 125.710938 C 28.742188 124.941406 28.742188 124.175781 28.742188 123.386719 Z M 28.742188 123.386719 "/>
<path style=" stroke:none;fill-rule:nonzero;fill:rgb(20%,18.82353%,19.607843%);fill-opacity:1;" d="M 111.339844 122.660156 C 111.480469 122.660156 111.625 122.660156 111.773438 122.660156 C 111.773438 124.722656 111.773438 126.78125 111.773438 128.902344 C 111.679688 128.902344 111.582031 128.902344 111.484375 128.902344 C 111.484375 128.710938 111.484375 128.519531 111.484375 128.324219 C 111.375 128.417969 111.269531 128.515625 111.15625 128.613281 C 110.46875 129.074219 109.664062 129.011719 108.871094 128.902344 C 108.257812 128.570312 108.066406 128.246094 107.855469 127.597656 C 107.761719 126.742188 107.734375 125.96875 108.101562 125.183594 C 108.636719 124.632812 108.949219 124.425781 109.722656 124.339844 C 110.382812 124.359375 110.796875 124.621094 111.339844 124.984375 C 111.339844 124.21875 111.339844 123.449219 111.339844 122.660156 Z M 108.433594 125.417969 C 108.277344 125.898438 108.257812 126.277344 108.246094 126.78125 C 108.238281 126.941406 108.234375 127.105469 108.226562 127.273438 C 108.304688 127.835938 108.476562 128.066406 108.871094 128.46875 C 109.40625 128.734375 110.027344 128.683594 110.613281 128.613281 C 111.0625 128.292969 111.164062 128.117188 111.339844 127.597656 C 111.480469 126.324219 111.480469 126.324219 111.066406 125.15625 C 110.511719 124.769531 110.171875 124.730469 109.507812 124.769531 C 109.019531 124.867188 108.761719 125.050781 108.433594 125.417969 Z M 108.433594 125.417969 "/>
<path style=" stroke:none;fill-rule:nonzero;fill:rgb(20%,18.82353%,19.607843%);fill-opacity:1;" d="M 56.613281 122.660156 C 56.757812 122.660156 56.898438 122.660156 57.046875 122.660156 C 57.046875 124.722656 57.046875 126.78125 57.046875 128.902344 C 56.953125 128.902344 56.855469 128.902344 56.757812 128.902344 C 56.757812 128.710938 56.757812 128.519531 56.757812 128.324219 C 56.648438 128.417969 56.542969 128.515625 56.429688 128.613281 C 55.742188 129.074219 54.9375 129.011719 54.144531 128.902344 C 53.53125 128.570312 53.34375 128.246094 53.128906 127.597656 C 53.039062 126.742188 53.007812 125.96875 53.375 125.183594 C 53.910156 124.632812 54.222656 124.425781 54.996094 124.339844 C 55.65625 124.359375 56.070312 124.621094 56.613281 124.984375 C 56.613281 124.21875 56.613281 123.449219 56.613281 122.660156 Z M 53.710938 125.417969 C 53.550781 125.898438 53.53125 126.277344 53.519531 126.78125 C 53.515625 126.941406 53.507812 127.105469 53.503906 127.273438 C 53.578125 127.835938 53.75 128.066406 54.144531 128.46875 C 54.679688 128.734375 55.300781 128.683594 55.886719 128.613281 C 56.335938 128.292969 56.4375 128.117188 56.613281 127.597656 C 56.753906 126.324219 56.753906 126.324219 56.339844 125.15625 C 55.785156 124.769531 55.445312 124.730469 54.78125 124.769531 C 54.296875 124.867188 54.035156 125.050781 53.710938 125.417969 Z M 53.710938 125.417969 "/>
<path style=" stroke:none;fill-rule:nonzero;fill:rgb(18.431373%,17.254902%,17.647059%);fill-opacity:1;" d="M 88.402344 124.402344 C 89.019531 124.707031 89.464844 125.054688 89.710938 125.710938 C 89.902344 127.429688 89.902344 127.429688 89.457031 128.121094 C 88.746094 128.875 88.746094 128.875 88.132812 128.964844 C 87.980469 128.964844 87.832031 128.964844 87.675781 128.964844 C 87.527344 128.96875 87.378906 128.972656 87.222656 128.976562 C 86.804688 128.902344 86.804688 128.902344 86.226562 128.324219 C 86.179688 129.136719 86.128906 129.953125 86.082031 130.789062 C 85.984375 130.789062 85.890625 130.789062 85.789062 130.789062 C 85.789062 128.730469 85.789062 126.671875 85.789062 124.546875 C 85.886719 124.546875 85.980469 124.546875 86.082031 124.546875 C 86.082031 124.738281 86.082031 124.929688 86.082031 125.128906 C 86.175781 125.128906 86.273438 125.128906 86.371094 125.128906 C 86.371094 125.035156 86.371094 124.9375 86.371094 124.839844 C 87.035156 124.441406 87.636719 124.242188 88.402344 124.402344 Z M 86.226562 125.566406 C 86.121094 126.089844 86.121094 126.089844 86.152344 126.652344 C 86.15625 126.839844 86.15625 127.027344 86.15625 127.21875 C 86.226562 127.757812 86.335938 128.039062 86.660156 128.46875 C 87 128.636719 87.210938 128.636719 87.585938 128.640625 C 87.699219 128.640625 87.808594 128.644531 87.925781 128.644531 C 88.308594 128.609375 88.519531 128.542969 88.839844 128.324219 C 89.421875 127.558594 89.390625 126.777344 89.273438 125.855469 C 89.125 125.464844 88.988281 125.292969 88.695312 124.984375 C 88.304688 124.855469 88.027344 124.800781 87.621094 124.785156 C 87.460938 124.773438 87.460938 124.773438 87.292969 124.761719 C 86.757812 124.882812 86.554688 125.136719 86.226562 125.566406 Z M 86.226562 125.566406 "/>
<path style=" stroke:none;fill-rule:nonzero;fill:rgb(12.54902%,18.431373%,37.64706%);fill-opacity:1;" d="M 118.015625 95.660156 C 119.492188 95.660156 119.492188 95.660156 120.046875 96.097656 C 120.195312 96.242188 120.195312 96.242188 120.230469 96.648438 C 120.195312 97.113281 120.195312 97.113281 119.757812 97.695312 C 119.996094 98.125 120.238281 98.554688 120.484375 99 C 120.246094 99 120.003906 99 119.757812 99 C 119.175781 98.019531 119.175781 98.019531 119.175781 97.695312 C 118.984375 97.695312 118.792969 97.695312 118.597656 97.695312 C 118.597656 98.125 118.597656 98.554688 118.597656 99 C 118.40625 99 118.214844 99 118.015625 99 C 118.015625 97.898438 118.015625 96.796875 118.015625 95.660156 Z M 118.015625 95.660156 "/>
<path style=" stroke:none;fill-rule:nonzero;fill:rgb(19.215687%,18.039216%,18.431373%);fill-opacity:1;" d="M 45.464844 124.542969 C 46.089844 124.898438 46.386719 125.148438 46.597656 125.855469 C 46.722656 126.925781 46.675781 127.742188 46.015625 128.613281 C 45.304688 129.085938 44.523438 129.003906 43.695312 128.902344 C 43.183594 128.675781 42.90625 128.351562 42.660156 127.84375 C 42.515625 127.402344 42.488281 127.042969 42.488281 126.582031 C 42.484375 126.433594 42.480469 126.289062 42.480469 126.136719 C 42.539062 125.644531 42.675781 125.378906 42.96875 124.984375 C 43.761719 124.40625 44.523438 124.136719 45.464844 124.542969 Z M 43.394531 125.183594 C 42.835938 125.9375 42.859375 126.679688 42.96875 127.597656 C 43.203125 128.066406 43.507812 128.375 43.984375 128.613281 C 44.429688 128.675781 44.847656 128.683594 45.289062 128.613281 C 45.730469 128.28125 45.730469 128.28125 46.015625 127.886719 C 46.0625 127.839844 46.113281 127.792969 46.160156 127.742188 C 46.1875 127.414062 46.199219 127.089844 46.207031 126.761719 C 46.210938 126.582031 46.21875 126.40625 46.222656 126.21875 C 46.152344 125.628906 45.996094 125.402344 45.582031 124.984375 C 44.855469 124.621094 44.019531 124.699219 43.394531 125.183594 Z M 43.394531 125.183594 "/>
<path style=" stroke:none;fill-rule:nonzero;fill:rgb(23.137255%,22.352941%,23.137255%);fill-opacity:1;" d="M 37.886719 124.546875 C 38.078125 124.546875 38.269531 124.546875 38.46875 124.546875 C 38.65625 125.015625 38.84375 125.480469 39.03125 125.945312 C 39.082031 126.078125 39.136719 126.207031 39.191406 126.34375 C 39.242188 126.472656 39.292969 126.597656 39.347656 126.730469 C 39.394531 126.847656 39.441406 126.964844 39.488281 127.085938 C 39.644531 127.496094 39.785156 127.90625 39.917969 128.324219 C 39.960938 128.214844 40 128.105469 40.042969 127.992188 C 40.230469 127.5 40.417969 127.007812 40.609375 126.515625 C 40.671875 126.34375 40.738281 126.171875 40.804688 125.996094 C 40.867188 125.832031 40.929688 125.667969 40.996094 125.5 C 41.054688 125.351562 41.113281 125.199219 41.171875 125.042969 C 41.371094 124.695312 41.371094 124.695312 41.683594 124.570312 C 41.773438 124.5625 41.859375 124.554688 41.953125 124.546875 C 41.742188 125.109375 41.53125 125.671875 41.320312 126.234375 C 41.175781 126.617188 41.035156 126.996094 40.898438 127.378906 C 39.777344 130.425781 39.777344 130.425781 39.046875 130.789062 C 38.660156 130.808594 38.277344 130.796875 37.886719 130.789062 C 37.886719 130.695312 37.886719 130.597656 37.886719 130.5 C 38.042969 130.5 38.199219 130.5 38.359375 130.5 C 38.894531 130.414062 38.894531 130.414062 39.101562 130.113281 C 39.394531 129.546875 39.542969 129.109375 39.484375 128.46875 C 39.355469 128.066406 39.355469 128.066406 39.167969 127.660156 C 39.066406 127.433594 39.066406 127.433594 38.96875 127.203125 C 38.898438 127.046875 38.828125 126.886719 38.757812 126.726562 C 38.625 126.410156 38.492188 126.089844 38.359375 125.773438 C 38.300781 125.632812 38.242188 125.492188 38.179688 125.347656 C 38.074219 125.082031 37.976562 124.816406 37.886719 124.546875 Z M 37.886719 124.546875 "/>
<path style=" stroke:none;fill-rule:nonzero;fill:rgb(14.509805%,12.941177%,13.333334%);fill-opacity:1;" d="M 64.015625 122.660156 C 64.113281 122.660156 64.207031 122.660156 64.304688 122.660156 C 64.304688 123.476562 64.304688 124.289062 64.304688 125.128906 C 64.402344 125.128906 64.5 125.128906 64.597656 125.128906 C 64.597656 125.035156 64.597656 124.9375 64.597656 124.839844 C 65.28125 124.429688 65.847656 124.257812 66.628906 124.402344 C 67.425781 124.839844 67.425781 124.839844 67.644531 125.273438 C 67.65625 125.546875 67.660156 125.824219 67.660156 126.097656 C 67.660156 126.257812 67.660156 126.421875 67.65625 126.589844 C 67.65625 126.761719 67.65625 126.929688 67.652344 127.105469 C 67.652344 127.277344 67.652344 127.449219 67.652344 127.628906 C 67.652344 128.050781 67.648438 128.476562 67.644531 128.902344 C 67.5 128.902344 67.359375 128.902344 67.210938 128.902344 C 67.207031 128.792969 67.203125 128.6875 67.199219 128.574219 C 67.1875 128.085938 67.171875 127.597656 67.15625 127.105469 C 67.152344 126.9375 67.144531 126.765625 67.140625 126.589844 C 67.136719 126.425781 67.128906 126.265625 67.125 126.097656 C 67.117188 125.871094 67.117188 125.871094 67.109375 125.640625 C 67.097656 125.25 67.097656 125.25 66.773438 124.984375 C 66.0625 124.886719 65.394531 124.828125 64.796875 125.257812 C 64.496094 125.722656 64.429688 126 64.40625 126.550781 C 64.398438 126.6875 64.394531 126.824219 64.386719 126.964844 C 64.378906 127.179688 64.378906 127.179688 64.371094 127.398438 C 64.363281 127.542969 64.359375 127.683594 64.351562 127.832031 C 64.335938 128.191406 64.320312 128.546875 64.304688 128.902344 C 64.210938 128.902344 64.113281 128.902344 64.015625 128.902344 C 64.015625 126.84375 64.015625 124.785156 64.015625 122.660156 Z M 64.015625 122.660156 "/>
<path style=" stroke:none;fill-rule:nonzero;fill:rgb(23.921569%,23.137255%,23.921569%);fill-opacity:1;" d="M 50.660156 124.402344 C 51.460938 124.839844 51.460938 124.839844 51.675781 125.273438 C 51.691406 125.546875 51.691406 125.824219 51.691406 126.097656 C 51.691406 126.257812 51.691406 126.421875 51.691406 126.589844 C 51.6875 126.761719 51.6875 126.929688 51.6875 127.105469 C 51.6875 127.277344 51.683594 127.449219 51.683594 127.628906 C 51.683594 128.050781 51.679688 128.476562 51.675781 128.902344 C 51.535156 128.902344 51.390625 128.902344 51.242188 128.902344 C 51.238281 128.792969 51.234375 128.6875 51.234375 128.574219 C 51.21875 128.085938 51.203125 127.597656 51.1875 127.105469 C 51.183594 126.9375 51.179688 126.765625 51.175781 126.589844 C 51.167969 126.425781 51.164062 126.265625 51.15625 126.097656 C 51.148438 125.871094 51.148438 125.871094 51.144531 125.640625 C 51.132812 125.25 51.132812 125.25 50.804688 124.984375 C 50.09375 124.886719 49.425781 124.828125 48.828125 125.257812 C 48.527344 125.722656 48.460938 126 48.4375 126.550781 C 48.433594 126.6875 48.425781 126.824219 48.417969 126.964844 C 48.410156 127.179688 48.410156 127.179688 48.402344 127.398438 C 48.394531 127.542969 48.390625 127.683594 48.382812 127.832031 C 48.367188 128.191406 48.351562 128.546875 48.339844 128.902344 C 48.242188 128.902344 48.148438 128.902344 48.046875 128.902344 C 48.046875 127.464844 48.046875 126.027344 48.046875 124.546875 C 48.144531 124.546875 48.238281 124.546875 48.339844 124.546875 C 48.386719 124.691406 48.433594 124.835938 48.484375 124.984375 C 48.628906 124.886719 48.769531 124.792969 48.917969 124.695312 C 49.542969 124.339844 49.949219 124.3125 50.660156 124.402344 Z M 50.660156 124.402344 "/>
<path style=" stroke:none;fill-rule:nonzero;fill:rgb(21.568628%,20.784314%,21.176471%);fill-opacity:1;" d="M 80.855469 124.546875 C 81.269531 124.601562 81.421875 124.675781 81.714844 124.984375 C 81.800781 125.101562 81.890625 125.21875 81.980469 125.335938 C 82.070312 125.453125 82.15625 125.570312 82.25 125.691406 C 82.453125 126 82.453125 126 82.453125 126.289062 C 83.019531 125.738281 83.539062 125.15625 84.046875 124.546875 C 84.191406 124.597656 84.335938 124.644531 84.484375 124.695312 C 83.765625 125.628906 83.765625 125.628906 83.03125 126.582031 C 83.550781 127.367188 84.078125 128.140625 84.628906 128.902344 C 84.4375 128.902344 84.246094 128.902344 84.046875 128.902344 C 83.789062 128.617188 83.578125 128.347656 83.359375 128.03125 C 83.300781 127.949219 83.238281 127.867188 83.179688 127.78125 C 83.03125 127.574219 82.886719 127.367188 82.742188 127.160156 C 82.324219 127.574219 81.914062 127.988281 81.535156 128.441406 C 81.460938 128.527344 81.386719 128.617188 81.308594 128.707031 C 81.253906 128.769531 81.203125 128.835938 81.144531 128.902344 C 81 128.855469 80.859375 128.808594 80.710938 128.757812 C 80.816406 128.628906 80.921875 128.5 81.03125 128.367188 C 81.167969 128.195312 81.308594 128.023438 81.445312 127.851562 C 81.550781 127.722656 81.550781 127.722656 81.65625 127.59375 C 81.886719 127.3125 81.886719 127.3125 82.160156 126.871094 C 82.089844 126.296875 81.792969 125.980469 81.425781 125.546875 C 80.855469 124.871094 80.855469 124.871094 80.855469 124.546875 Z M 80.855469 124.546875 "/>
<path style=" stroke:none;fill-rule:nonzero;fill:rgb(95.294118%,95.294118%,95.686275%);fill-opacity:1;" d="M 105.53125 124.839844 C 105.878906 124.9375 105.878906 124.9375 106.113281 125.128906 C 106.367188 125.613281 106.402344 125.878906 106.402344 126.433594 C 105.445312 126.433594 104.488281 126.433594 103.5 126.433594 C 103.726562 125.078125 104.222656 124.691406 105.53125 124.839844 Z M 105.53125 124.839844 "/>
<path style=" stroke:none;fill-rule:nonzero;fill:rgb(95.294118%,95.294118%,95.686275%);fill-opacity:1;" d="M 93.339844 124.839844 C 93.683594 124.9375 93.683594 124.9375 93.917969 125.128906 C 94.175781 125.613281 94.210938 125.878906 94.210938 126.433594 C 93.25 126.433594 92.292969 126.433594 91.304688 126.433594 C 91.53125 125.078125 92.027344 124.691406 93.339844 124.839844 Z M 93.339844 124.839844 "/>
<path style=" stroke:none;fill-rule:nonzero;fill:rgb(95.294118%,95.294118%,95.686275%);fill-opacity:1;" d="M 78.675781 124.839844 C 79.023438 124.9375 79.023438 124.9375 79.257812 125.128906 C 79.511719 125.613281 79.546875 125.878906 79.546875 126.433594 C 78.589844 126.433594 77.632812 126.433594 76.644531 126.433594 C 76.871094 125.078125 77.367188 124.691406 78.675781 124.839844 Z M 78.675781 124.839844 "/>
<path style=" stroke:none;fill-rule:nonzero;fill:rgb(95.294118%,95.294118%,95.686275%);fill-opacity:1;" d="M 71.566406 124.839844 C 71.910156 124.9375 71.910156 124.9375 72.144531 125.128906 C 72.398438 125.613281 72.433594 125.878906 72.433594 126.433594 C 71.476562 126.433594 70.519531 126.433594 69.53125 126.433594 C 69.757812 125.078125 70.253906 124.691406 71.566406 124.839844 Z M 71.566406 124.839844 "/>
<path style=" stroke:none;fill-rule:nonzero;fill:rgb(95.294118%,95.294118%,95.686275%);fill-opacity:1;" d="M 36.144531 124.839844 C 36.488281 124.9375 36.488281 124.9375 36.726562 125.128906 C 36.980469 125.613281 37.015625 125.878906 37.015625 126.433594 C 36.058594 126.433594 35.101562 126.433594 34.113281 126.433594 C 34.339844 125.078125 34.835938 124.691406 36.144531 124.839844 Z M 36.144531 124.839844 "/>
<path style=" stroke:none;fill-rule:nonzero;fill:rgb(20.392157%,19.215687%,19.607843%);fill-opacity:1;" d="M 97.910156 124.375 C 98.019531 124.375 98.128906 124.378906 98.242188 124.378906 C 98.558594 124.402344 98.839844 124.460938 99.144531 124.546875 C 99.144531 124.691406 99.144531 124.835938 99.144531 124.984375 C 99.027344 124.980469 98.910156 124.972656 98.789062 124.96875 C 98.558594 124.960938 98.558594 124.960938 98.320312 124.957031 C 98.167969 124.953125 98.011719 124.945312 97.855469 124.941406 C 97.34375 124.988281 97.085938 125.113281 96.675781 125.417969 C 96.226562 126.09375 96.296875 126.804688 96.386719 127.597656 C 96.648438 128.042969 96.800781 128.238281 97.257812 128.46875 C 97.578125 128.476562 97.898438 128.480469 98.21875 128.476562 C 98.480469 128.476562 98.480469 128.476562 98.742188 128.472656 C 98.941406 128.46875 98.941406 128.46875 99.144531 128.46875 C 99.144531 128.613281 99.144531 128.753906 99.144531 128.902344 C 96.960938 129.027344 96.960938 129.027344 96.414062 128.566406 C 95.757812 127.757812 95.726562 127.238281 95.742188 126.214844 C 95.820312 125.59375 95.992188 125.300781 96.429688 124.871094 C 96.925781 124.511719 97.292969 124.363281 97.910156 124.375 Z M 97.910156 124.375 "/>
<path style=" stroke:none;fill-rule:nonzero;fill:rgb(20%,18.82353%,19.607843%);fill-opacity:1;" d="M 100.453125 123.53125 C 100.546875 123.53125 100.644531 123.53125 100.742188 123.53125 C 100.742188 123.867188 100.742188 124.203125 100.742188 124.546875 C 101.171875 124.546875 101.605469 124.546875 102.046875 124.546875 C 102.046875 124.644531 102.046875 124.738281 102.046875 124.839844 C 101.617188 124.839844 101.1875 124.839844 100.742188 124.839844 C 100.761719 125.417969 100.785156 125.992188 100.804688 126.570312 C 100.8125 126.738281 100.816406 126.902344 100.824219 127.070312 C 100.832031 127.304688 100.832031 127.304688 100.839844 127.546875 C 100.847656 127.691406 100.851562 127.835938 100.855469 127.984375 C 100.851562 128.316406 100.851562 128.316406 101.03125 128.46875 C 101.226562 128.5 101.425781 128.527344 101.621094 128.550781 C 101.8125 128.570312 102 128.589844 102.195312 128.613281 C 102.195312 128.707031 102.195312 128.804688 102.195312 128.902344 C 101.960938 128.917969 101.726562 128.929688 101.496094 128.941406 C 101.367188 128.945312 101.234375 128.953125 101.101562 128.960938 C 100.742188 128.902344 100.742188 128.902344 100.503906 128.660156 C 100.261719 128.242188 100.257812 127.984375 100.265625 127.503906 C 100.265625 127.347656 100.265625 127.191406 100.269531 127.03125 C 100.273438 126.871094 100.277344 126.710938 100.277344 126.542969 C 100.28125 126.378906 100.28125 126.21875 100.285156 126.046875 C 100.289062 125.644531 100.296875 125.242188 100.304688 124.839844 C 100.066406 124.839844 99.828125 124.839844 99.582031 124.839844 C 99.582031 124.742188 99.582031 124.648438 99.582031 124.546875 C 99.820312 124.546875 100.058594 124.546875 100.304688 124.546875 C 100.355469 124.214844 100.402344 123.878906 100.453125 123.53125 Z M 100.453125 123.53125 "/>
<path style=" stroke:none;fill-rule:nonzero;fill:rgb(20%,18.82353%,19.607843%);fill-opacity:1;" d="M 61.113281 123.53125 C 61.207031 123.53125 61.304688 123.53125 61.402344 123.53125 C 61.402344 123.867188 61.402344 124.203125 61.402344 124.546875 C 61.835938 124.546875 62.265625 124.546875 62.710938 124.546875 C 62.710938 124.644531 62.710938 124.738281 62.710938 124.839844 C 62.277344 124.839844 61.847656 124.839844 61.402344 124.839844 C 61.421875 125.417969 61.445312 125.992188 61.464844 126.570312 C 61.472656 126.738281 61.476562 126.902344 61.484375 127.070312 C 61.492188 127.304688 61.492188 127.304688 61.503906 127.546875 C 61.507812 127.691406 61.511719 127.835938 61.519531 127.984375 C 61.511719 128.316406 61.511719 128.316406 61.695312 128.46875 C 61.890625 128.5 62.085938 128.527344 62.285156 128.550781 C 62.472656 128.570312 62.660156 128.589844 62.855469 128.613281 C 62.855469 128.707031 62.855469 128.804688 62.855469 128.902344 C 62.621094 128.917969 62.390625 128.929688 62.15625 128.941406 C 62.027344 128.945312 61.898438 128.953125 61.761719 128.960938 C 61.402344 128.902344 61.402344 128.902344 61.164062 128.660156 C 60.921875 128.242188 60.917969 127.984375 60.925781 127.503906 C 60.925781 127.347656 60.929688 127.191406 60.929688 127.03125 C 60.933594 126.871094 60.9375 126.710938 60.941406 126.542969 C 60.941406 126.378906 60.945312 126.21875 60.945312 126.046875 C 60.953125 125.644531 60.957031 125.242188 60.96875 124.839844 C 60.726562 124.839844 60.488281 124.839844 60.242188 124.839844 C 60.242188 124.742188 60.242188 124.648438 60.242188 124.546875 C 60.480469 124.546875 60.722656 124.546875 60.96875 124.546875 C 61.015625 124.214844 61.0625 123.878906 61.113281 123.53125 Z M 61.113281 123.53125 "/>
<path style=" stroke:none;fill-rule:nonzero;fill:rgb(20.392157%,19.215687%,19.607843%);fill-opacity:1;" d="M 87.242188 124.402344 C 88.089844 124.328125 88.527344 124.398438 89.210938 124.914062 C 89.714844 125.433594 89.753906 125.925781 89.765625 126.636719 C 89.75 127.414062 89.691406 127.890625 89.128906 128.46875 C 88.730469 128.738281 88.730469 128.738281 88.402344 128.902344 C 88.355469 128.757812 88.308594 128.617188 88.257812 128.46875 C 88.347656 128.457031 88.4375 128.449219 88.53125 128.441406 C 88.867188 128.351562 88.867188 128.351562 89 128.007812 C 89.140625 127.558594 89.171875 127.195312 89.175781 126.726562 C 89.175781 126.578125 89.179688 126.433594 89.183594 126.28125 C 89.121094 125.785156 89 125.519531 88.695312 125.128906 C 88.410156 124.996094 88.410156 124.996094 88.105469 124.964844 C 87.800781 124.917969 87.800781 124.917969 87.53125 124.839844 C 87.4375 124.695312 87.339844 124.550781 87.242188 124.402344 Z M 87.242188 124.402344 "/>
<path style=" stroke:none;fill-rule:nonzero;fill:rgb(21.176471%,20%,20.784314%);fill-opacity:1;" d="M 43.984375 124.402344 C 44.851562 124.324219 45.328125 124.4375 46.066406 124.898438 C 46.480469 125.292969 46.578125 125.710938 46.644531 126.269531 C 46.65625 127.226562 46.625 127.855469 46.015625 128.613281 C 45.617188 128.820312 45.617188 128.820312 45.289062 128.902344 C 45.347656 128.492188 45.40625 128.347656 45.726562 128.074219 C 46.21875 127.511719 46.101562 126.90625 46.082031 126.1875 C 46.046875 125.683594 46.046875 125.683594 45.707031 125.230469 C 45.261719 124.964844 44.929688 124.90625 44.417969 124.839844 C 44.148438 124.613281 44.148438 124.613281 43.984375 124.402344 Z M 43.984375 124.402344 "/>
<path style=" stroke:none;fill-rule:nonzero;fill:rgb(23.921569%,23.137255%,23.921569%);fill-opacity:1;" d="M 65.46875 124.402344 C 66.351562 124.34375 66.789062 124.394531 67.5 124.984375 C 67.691406 125.371094 67.660156 125.664062 67.660156 126.097656 C 67.660156 126.257812 67.660156 126.421875 67.65625 126.589844 C 67.65625 126.761719 67.65625 126.929688 67.652344 127.105469 C 67.652344 127.277344 67.652344 127.449219 67.652344 127.628906 C 67.652344 128.050781 67.648438 128.476562 67.644531 128.902344 C 67.5 128.902344 67.359375 128.902344 67.210938 128.902344 C 67.207031 128.792969 67.203125 128.6875 67.199219 128.574219 C 67.1875 128.085938 67.171875 127.597656 67.15625 127.105469 C 67.152344 126.9375 67.144531 126.765625 67.140625 126.589844 C 67.136719 126.425781 67.128906 126.265625 67.125 126.097656 C 67.121094 125.945312 67.117188 125.796875 67.109375 125.640625 C 67.097656 125.25 67.097656 125.25 66.773438 124.984375 C 66.605469 124.964844 66.4375 124.941406 66.265625 124.921875 C 66.097656 124.894531 65.929688 124.867188 65.757812 124.839844 C 65.664062 124.695312 65.566406 124.550781 65.46875 124.402344 Z M 65.46875 124.402344 "/>
<path style=" stroke:none;fill-rule:nonzero;fill:rgb(14.901961%,13.333334%,13.725491%);fill-opacity:1;" d="M 48.046875 124.546875 C 48.144531 124.546875 48.238281 124.546875 48.339844 124.546875 C 48.386719 124.691406 48.433594 124.835938 48.484375 124.984375 C 48.554688 124.910156 48.628906 124.839844 48.703125 124.765625 C 49.226562 124.449219 49.621094 124.519531 50.226562 124.546875 C 49.789062 124.839844 49.789062 124.839844 49.273438 125.039062 C 48.742188 125.289062 48.675781 125.332031 48.484375 125.855469 C 48.429688 126.203125 48.429688 126.203125 48.421875 126.578125 C 48.417969 126.714844 48.414062 126.851562 48.40625 126.988281 C 48.402344 127.128906 48.398438 127.269531 48.394531 127.414062 C 48.386719 127.558594 48.382812 127.699219 48.375 127.847656 C 48.363281 128.199219 48.351562 128.550781 48.339844 128.902344 C 48.242188 128.902344 48.148438 128.902344 48.046875 128.902344 C 48.046875 127.464844 48.046875 126.027344 48.046875 124.546875 Z M 48.046875 124.546875 "/>
<path style=" stroke:none;fill-rule:nonzero;fill:rgb(31.37255%,30.980393%,31.764707%);fill-opacity:1;" d="M 97.894531 124.386719 C 98.003906 124.382812 98.117188 124.382812 98.230469 124.382812 C 98.554688 124.402344 98.835938 124.460938 99.144531 124.546875 C 99.144531 124.691406 99.144531 124.835938 99.144531 124.984375 C 99.027344 124.980469 98.910156 124.972656 98.789062 124.96875 C 98.558594 124.960938 98.558594 124.960938 98.320312 124.957031 C 98.167969 124.953125 98.011719 124.945312 97.855469 124.941406 C 97.246094 125 96.871094 125.226562 96.441406 125.65625 C 96.242188 125.855469 96.242188 125.855469 95.804688 126 C 96.015625 125.269531 96.378906 124.988281 96.96875 124.546875 C 97.308594 124.378906 97.515625 124.382812 97.894531 124.386719 Z M 97.894531 124.386719 "/>
<path style=" stroke:none;fill-rule:nonzero;fill:rgb(25.490198%,24.705882%,25.490198%);fill-opacity:1;" d="M 37.886719 124.546875 C 38.078125 124.546875 38.269531 124.546875 38.46875 124.546875 C 38.660156 125.027344 38.855469 125.503906 39.046875 125.980469 C 39.105469 126.117188 39.160156 126.253906 39.214844 126.394531 C 39.269531 126.523438 39.320312 126.652344 39.375 126.789062 C 39.421875 126.910156 39.472656 127.027344 39.523438 127.152344 C 39.628906 127.453125 39.628906 127.453125 39.628906 127.742188 C 39.484375 127.789062 39.339844 127.835938 39.195312 127.886719 C 39.136719 127.738281 39.078125 127.59375 39.019531 127.441406 C 38.941406 127.246094 38.863281 127.050781 38.785156 126.851562 C 38.726562 126.707031 38.726562 126.707031 38.671875 126.558594 C 38.488281 126.101562 38.296875 125.664062 38.074219 125.222656 C 37.886719 124.839844 37.886719 124.839844 37.886719 124.546875 Z M 37.886719 124.546875 "/>
<path style=" stroke:none;fill-rule:nonzero;fill:rgb(24.705882%,23.921569%,24.313726%);fill-opacity:1;" d="M 31.066406 123.097656 C 31.628906 123.136719 32 123.410156 32.371094 123.824219 C 32.476562 124.277344 32.480469 124.675781 32.371094 125.128906 C 32.007812 125.5 32.007812 125.5 31.644531 125.710938 C 31.5 125.613281 31.359375 125.519531 31.210938 125.417969 C 31.304688 125.367188 31.402344 125.3125 31.5 125.257812 C 31.835938 125 31.835938 125 31.855469 124.546875 C 31.824219 124.121094 31.824219 124.121094 31.609375 123.859375 C 31.339844 123.667969 31.074219 123.523438 30.773438 123.386719 C 30.871094 123.292969 30.964844 123.195312 31.066406 123.097656 Z M 31.066406 123.097656 "/>
<path style=" stroke:none;fill-rule:nonzero;fill:rgb(20.392157%,19.607843%,20%);fill-opacity:1;" d="M 105.125 124.394531 C 105.398438 124.398438 105.398438 124.398438 105.675781 124.402344 C 105.726562 124.546875 105.773438 124.691406 105.824219 124.839844 C 105.722656 124.84375 105.625 124.847656 105.527344 124.851562 C 104.707031 124.886719 104.707031 124.886719 104.007812 125.265625 C 103.9375 125.363281 103.863281 125.460938 103.789062 125.566406 C 103.5 125.855469 103.5 125.855469 103.066406 126 C 103.265625 125.355469 103.574219 124.992188 104.082031 124.546875 C 104.480469 124.414062 104.714844 124.386719 105.125 124.394531 Z M 105.125 124.394531 "/>
<path style=" stroke:none;fill-rule:nonzero;fill:rgb(20.392157%,19.607843%,20%);fill-opacity:1;" d="M 92.929688 124.394531 C 93.203125 124.398438 93.203125 124.398438 93.484375 124.402344 C 93.53125 124.546875 93.578125 124.691406 93.628906 124.839844 C 93.53125 124.84375 93.433594 124.847656 93.332031 124.851562 C 92.515625 124.886719 92.515625 124.886719 91.816406 125.265625 C 91.742188 125.363281 91.671875 125.460938 91.597656 125.566406 C 91.304688 125.855469 91.304688 125.855469 90.871094 126 C 91.074219 125.355469 91.382812 124.992188 91.886719 124.546875 C 92.285156 124.414062 92.519531 124.386719 92.929688 124.394531 Z M 92.929688 124.394531 "/>
<path style=" stroke:none;fill-rule:nonzero;fill:rgb(20.392157%,19.607843%,20%);fill-opacity:1;" d="M 78.269531 124.394531 C 78.542969 124.398438 78.542969 124.398438 78.824219 124.402344 C 78.871094 124.546875 78.917969 124.691406 78.96875 124.839844 C 78.871094 124.84375 78.773438 124.847656 78.671875 124.851562 C 77.851562 124.886719 77.851562 124.886719 77.152344 125.265625 C 77.082031 125.363281 77.007812 125.460938 76.933594 125.566406 C 76.644531 125.855469 76.644531 125.855469 76.210938 126 C 76.414062 125.355469 76.71875 124.992188 77.226562 124.546875 C 77.625 124.414062 77.859375 124.386719 78.269531 124.394531 Z M 78.269531 124.394531 "/>
<path style=" stroke:none;fill-rule:nonzero;fill:rgb(20.392157%,19.607843%,20%);fill-opacity:1;" d="M 71.15625 124.394531 C 71.429688 124.398438 71.429688 124.398438 71.710938 124.402344 C 71.757812 124.546875 71.804688 124.691406 71.855469 124.839844 C 71.757812 124.84375 71.660156 124.847656 71.558594 124.851562 C 70.742188 124.886719 70.742188 124.886719 70.039062 125.265625 C 69.96875 125.363281 69.898438 125.460938 69.824219 125.566406 C 69.53125 125.855469 69.53125 125.855469 69.097656 126 C 69.300781 125.355469 69.609375 124.992188 70.113281 124.546875 C 70.511719 124.414062 70.746094 124.386719 71.15625 124.394531 Z M 71.15625 124.394531 "/>
<path style=" stroke:none;fill-rule:nonzero;fill:rgb(20.392157%,19.607843%,20%);fill-opacity:1;" d="M 35.738281 124.394531 C 36.011719 124.398438 36.011719 124.398438 36.289062 124.402344 C 36.339844 124.546875 36.386719 124.691406 36.433594 124.839844 C 36.335938 124.84375 36.238281 124.847656 36.136719 124.851562 C 35.320312 124.886719 35.320312 124.886719 34.621094 125.265625 C 34.550781 125.363281 34.476562 125.460938 34.402344 125.566406 C 34.113281 125.855469 34.113281 125.855469 33.675781 126 C 33.878906 125.355469 34.1875 124.992188 34.695312 124.546875 C 35.09375 124.414062 35.328125 124.386719 35.738281 124.394531 Z M 35.738281 124.394531 "/>
<path style=" stroke:none;fill-rule:nonzero;fill:rgb(97.647059%,97.647059%,98.431373%);fill-opacity:1;" d="M 118.597656 96.242188 C 118.933594 96.289062 119.265625 96.335938 119.613281 96.386719 C 119.613281 96.625 119.613281 96.867188 119.613281 97.113281 C 119.277344 97.160156 118.941406 97.207031 118.597656 97.257812 C 118.597656 96.921875 118.597656 96.585938 118.597656 96.242188 Z M 118.597656 96.242188 "/>
<path style=" stroke:none;fill-rule:nonzero;fill:rgb(25.490198%,24.705882%,25.490198%);fill-opacity:1;" d="M 41.515625 124.546875 C 41.660156 124.597656 41.804688 124.644531 41.953125 124.695312 C 41.84375 124.980469 41.734375 125.261719 41.625 125.546875 C 41.535156 125.785156 41.535156 125.785156 41.441406 126.027344 C 41.214844 126.457031 41.097656 126.574219 40.644531 126.726562 C 40.882812 125.964844 41.136719 125.253906 41.515625 124.546875 Z M 41.515625 124.546875 "/>
<path style=" stroke:none;fill-rule:nonzero;fill:rgb(16.862746%,15.686275%,16.078432%);fill-opacity:1;" d="M 39.628906 129.484375 C 39.675781 129.628906 39.726562 129.769531 39.773438 129.917969 C 39.433594 130.597656 39.433594 130.597656 39.046875 130.789062 C 38.660156 130.808594 38.277344 130.796875 37.886719 130.789062 C 37.886719 130.695312 37.886719 130.597656 37.886719 130.5 C 38.046875 130.492188 38.203125 130.480469 38.367188 130.472656 C 38.921875 130.414062 38.921875 130.414062 39.167969 129.992188 C 39.25 129.8125 39.25 129.8125 39.339844 129.628906 C 39.433594 129.582031 39.53125 129.535156 39.628906 129.484375 Z M 39.628906 129.484375 "/>
<path style=" stroke:none;fill-rule:nonzero;fill:rgb(22.352941%,21.568628%,21.960784%);fill-opacity:1;" d="M 97.402344 124.546875 C 97.976562 124.546875 98.554688 124.546875 99.144531 124.546875 C 99.144531 124.691406 99.144531 124.835938 99.144531 124.984375 C 98.523438 124.9375 97.898438 124.886719 97.257812 124.839844 C 97.304688 124.742188 97.355469 124.648438 97.402344 124.546875 Z M 97.402344 124.546875 "/>
<path style=" stroke:none;fill-rule:nonzero;fill:rgb(31.764707%,31.37255%,31.764707%);fill-opacity:1;" d="M 110.324219 124.402344 C 110.324219 124.449219 110.324219 124.5 110.324219 124.546875 C 110.089844 124.566406 110.089844 124.566406 109.851562 124.585938 C 109.25 124.703125 109.121094 124.835938 108.726562 125.273438 C 108.398438 125.382812 108.398438 125.382812 108.144531 125.417969 C 108.289062 125.039062 108.425781 124.847656 108.742188 124.585938 C 109.304688 124.339844 109.714844 124.371094 110.324219 124.402344 Z M 110.324219 124.402344 "/>
<path style=" stroke:none;fill-rule:nonzero;fill:rgb(31.764707%,31.37255%,31.764707%);fill-opacity:1;" d="M 55.597656 124.402344 C 55.597656 124.449219 55.597656 124.5 55.597656 124.546875 C 55.363281 124.566406 55.363281 124.566406 55.125 124.585938 C 54.523438 124.703125 54.398438 124.835938 54 125.273438 C 53.671875 125.382812 53.671875 125.382812 53.417969 125.417969 C 53.5625 125.039062 53.699219 124.847656 54.019531 124.585938 C 54.578125 124.339844 54.988281 124.371094 55.597656 124.402344 Z M 55.597656 124.402344 "/>
<path style=" stroke:none;fill-rule:nonzero;fill:rgb(20.392157%,19.607843%,20%);fill-opacity:1;" d="M 40.933594 126.433594 C 41.136719 127.042969 40.910156 127.324219 40.644531 127.886719 C 40.550781 127.839844 40.453125 127.792969 40.355469 127.742188 C 40.445312 126.9375 40.445312 126.9375 40.726562 126.597656 C 40.796875 126.542969 40.863281 126.492188 40.933594 126.433594 Z M 40.933594 126.433594 "/>
<path style=" stroke:none;fill-rule:nonzero;fill:rgb(34.901962%,34.509805%,35.294119%);fill-opacity:1;" d="M 43.984375 124.402344 C 45.109375 124.386719 45.109375 124.386719 45.433594 124.546875 C 45.386719 124.691406 45.339844 124.835938 45.289062 124.984375 C 44.488281 124.894531 44.488281 124.894531 44.148438 124.613281 C 44.09375 124.542969 44.039062 124.472656 43.984375 124.402344 Z M 43.984375 124.402344 "/>
<path style=" stroke:none;fill-rule:nonzero;fill:rgb(35.686275%,35.686275%,36.078432%);fill-opacity:1;" d="M 87.242188 124.402344 C 87.625 124.402344 88.007812 124.402344 88.402344 124.402344 C 88.449219 124.546875 88.5 124.691406 88.546875 124.839844 C 88.058594 124.867188 88.058594 124.867188 87.53125 124.839844 C 87.4375 124.695312 87.339844 124.550781 87.242188 124.402344 Z M 87.242188 124.402344 "/>
<path style=" stroke:none;fill-rule:nonzero;fill:rgb(38.431373%,38.431373%,39.215687%);fill-opacity:1;" d="M 104.515625 124.402344 C 104.898438 124.402344 105.28125 124.402344 105.675781 124.402344 C 105.726562 124.546875 105.773438 124.691406 105.824219 124.839844 C 105.332031 124.867188 105.332031 124.867188 104.804688 124.839844 C 104.710938 124.695312 104.613281 124.550781 104.515625 124.402344 Z M 104.515625 124.402344 "/>
<path style=" stroke:none;fill-rule:nonzero;fill:rgb(38.431373%,38.431373%,39.215687%);fill-opacity:1;" d="M 92.324219 124.402344 C 92.707031 124.402344 93.089844 124.402344 93.484375 124.402344 C 93.53125 124.546875 93.578125 124.691406 93.628906 124.839844 C 93.140625 124.867188 93.140625 124.867188 92.613281 124.839844 C 92.515625 124.695312 92.421875 124.550781 92.324219 124.402344 Z M 92.324219 124.402344 "/>
<path style=" stroke:none;fill-rule:nonzero;fill:rgb(38.431373%,38.431373%,39.215687%);fill-opacity:1;" d="M 77.660156 124.402344 C 78.042969 124.402344 78.429688 124.402344 78.824219 124.402344 C 78.871094 124.546875 78.917969 124.691406 78.96875 124.839844 C 78.476562 124.867188 78.476562 124.867188 77.953125 124.839844 C 77.855469 124.695312 77.761719 124.550781 77.660156 124.402344 Z M 77.660156 124.402344 "/>
<path style=" stroke:none;fill-rule:nonzero;fill:rgb(38.431373%,38.431373%,39.215687%);fill-opacity:1;" d="M 70.546875 124.402344 C 70.929688 124.402344 71.316406 124.402344 71.710938 124.402344 C 71.757812 124.546875 71.804688 124.691406 71.855469 124.839844 C 71.363281 124.867188 71.363281 124.867188 70.839844 124.839844 C 70.742188 124.695312 70.648438 124.550781 70.546875 124.402344 Z M 70.546875 124.402344 "/>
<path style=" stroke:none;fill-rule:nonzero;fill:rgb(38.431373%,38.431373%,39.215687%);fill-opacity:1;" d="M 35.128906 124.402344 C 35.511719 124.402344 35.894531 124.402344 36.289062 124.402344 C 36.339844 124.546875 36.386719 124.691406 36.433594 124.839844 C 35.945312 124.867188 35.945312 124.867188 35.417969 124.839844 C 35.324219 124.695312 35.226562 124.550781 35.128906 124.402344 Z M 35.128906 124.402344 "/>
<path style=" stroke:none;fill-rule:nonzero;fill:rgb(19.215687%,18.431373%,18.82353%);fill-opacity:1;" d="M 84.046875 124.546875 C 84.191406 124.597656 84.335938 124.644531 84.484375 124.695312 C 84.246094 124.933594 84.003906 125.171875 83.757812 125.417969 C 83.757812 124.839844 83.757812 124.839844 84.046875 124.546875 Z M 84.046875 124.546875 "/>
<path style=" stroke:none;fill-rule:nonzero;fill:rgb(21.960784%,20.784314%,21.568628%);fill-opacity:1;" d="M 41.515625 124.546875 C 41.660156 124.597656 41.804688 124.644531 41.953125 124.695312 C 41.855469 124.933594 41.761719 125.171875 41.660156 125.417969 C 41.519531 125.417969 41.375 125.417969 41.226562 125.417969 C 41.320312 125.132812 41.417969 124.84375 41.515625 124.546875 Z M 41.515625 124.546875 "/>
</g>
</svg>
