<?xml version="1.0" standalone="no"?>
<!DOCTYPE svg PUBLIC "-//W3C//DTD SVG 20010904//EN"
 "http://www.w3.org/TR/2001/REC-SVG-20010904/DTD/svg10.dtd">
<svg version="1.0" xmlns="http://www.w3.org/2000/svg"
 width="992.000000pt" height="992.000000pt" viewBox="0 0 992.000000 992.000000"
 preserveAspectRatio="xMidYMid meet">

<g transform="translate(0.000000,992.000000) scale(0.100000,-0.100000)"
fill="#000000" stroke="none">
<path d="M4685 8400 c-264 -19 -530 -92 -765 -210 -173 -88 -267 -79 910 -79
957 0 1043 1 1025 16 -42 33 -285 143 -395 178 -252 81 -516 113 -775 95z"/>
<path d="M3353 7768 c-69 -73 -183 -215 -183 -229 0 -5 542 -9 1407 -9 l1408
0 -138 -138 c-75 -75 -137 -141 -137 -145 0 -4 214 -7 475 -7 355 0 475 3 475
12 0 16 -74 150 -122 221 l-39 57 -249 0 c-138 0 -250 3 -250 7 0 4 59 67 131
139 76 76 129 136 125 143 -5 8 -397 11 -1425 11 l-1418 0 -60 -62z"/>
<path d="M2966 7180 c-31 -69 -76 -197 -76 -217 0 -11 220 -13 1257 -13 l1258
0 -138 -138 c-75 -75 -137 -141 -137 -145 0 -4 385 -7 855 -7 677 0 855 3 855
13 0 16 -35 182 -49 235 l-12 42 -679 0 c-374 0 -680 3 -680 7 0 4 62 70 137
145 l138 138 -1351 0 -1351 0 -27 -60z"/>
<path d="M2816 6638 c-3 -13 -9 -78 -12 -145 l-7 -123 1014 0 1014 0 -138
-138 c-75 -75 -137 -141 -137 -145 0 -4 515 -7 1144 -7 l1144 0 6 23 c3 12 9
77 12 145 l7 122 -1011 0 c-557 0 -1012 3 -1012 7 0 4 62 70 137 145 l138 138
-1146 0 -1147 0 -6 -22z"/>
<path d="M2825 6043 c4 -21 18 -86 32 -145 l25 -108 681 0 682 0 -138 -138
c-75 -75 -137 -141 -137 -145 0 -4 607 -7 1349 -7 l1348 0 23 53 c12 28 37 94
56 145 l34 92 -1260 0 c-693 0 -1260 3 -1260 7 0 4 62 70 137 145 l138 138
-858 0 -858 0 6 -37z"/>
<path d="M3000 5493 c0 -10 65 -127 117 -210 l45 -73 251 0 252 0 -134 -134
c-77 -77 -131 -138 -127 -145 5 -8 397 -11 1425 -11 l1418 0 69 73 c69 71 174
199 174 211 0 3 -632 6 -1405 6 -773 0 -1405 3 -1405 7 0 4 62 70 137 145
l138 138 -478 0 c-262 0 -477 -3 -477 -7z"/>
<path d="M3800 4624 c0 -12 293 -145 392 -178 221 -73 519 -114 733 -101 242
14 491 71 696 159 102 43 239 113 239 122 0 2 -463 4 -1030 4 -566 0 -1030 -2
-1030 -6z"/>
<path d="M3134 3581 c-2 -2 -4 -58 -4 -123 l0 -118 185 0 185 0 0 58 c0 31 3
86 6 122 l6 65 -187 0 c-102 0 -189 -2 -191 -4z"/>
<path d="M8127 3420 c-140 -44 -190 -230 -91 -340 45 -50 93 -71 159 -71 66 0
114 21 159 71 115 128 32 334 -140 346 -32 2 -72 -1 -87 -6z m108 -31 c55 -16
92 -44 115 -89 60 -118 -25 -260 -155 -260 -45 0 -84 16 -118 48 -41 39 -57
74 -57 127 0 99 59 162 170 184 3 0 23 -4 45 -10z"/>
<path d="M8130 3210 c0 -103 1 -110 20 -110 17 0 20 7 20 45 0 60 22 60 58 0
19 -31 34 -44 50 -45 22 0 22 0 -7 47 -29 47 -30 48 -10 66 10 10 19 30 19 46
0 43 -28 61 -93 61 l-57 0 0 -110z m108 51 c4 -26 -12 -41 -45 -41 -20 0 -23
5 -23 36 0 34 1 35 33 32 25 -2 33 -8 35 -27z"/>
<path d="M4558 3140 c-138 -23 -260 -92 -333 -187 l-38 -48 7 108 6 107 -183
0 -183 0 -12 -322 c-13 -336 -36 -712 -52 -858 -6 -47 -10 -95 -10 -107 l0
-23 184 0 185 0 5 43 c3 23 8 116 11 205 15 451 51 612 158 708 66 60 139 88
232 88 98 0 170 -28 219 -86 44 -51 56 -102 56 -237 0 -115 -27 -673 -34 -703
-4 -17 10 -18 185 -18 l189 0 0 108 c0 59 7 238 15 397 24 475 19 562 -34 649
-31 49 -96 105 -155 132 -98 44 -293 65 -418 44z"/>
<path d="M7235 3139 c-84 -8 -222 -31 -315 -52 l-55 -12 -11 -75 c-6 -41 -14
-95 -18 -119 -8 -40 -7 -43 10 -38 238 76 341 97 483 97 111 0 159 -11 199
-45 80 -67 59 -181 -43 -229 -19 -10 -131 -41 -249 -71 -300 -75 -408 -124
-500 -226 -57 -64 -81 -131 -80 -229 2 -181 108 -306 293 -346 79 -16 270 -18
358 -3 63 11 63 11 74 53 5 22 19 70 29 106 11 35 18 65 17 67 -2 1 -23 -4
-48 -11 -74 -23 -171 -29 -233 -16 -130 27 -183 137 -117 242 37 58 124 103
301 153 69 20 152 49 184 65 33 17 61 28 63 26 4 -4 -23 -485 -33 -598 l-7
-68 181 0 180 0 6 148 c10 233 25 523 37 699 12 184 4 250 -37 320 -79 135
-329 196 -669 162z"/>
<path d="M1810 3036 c0 -46 -3 -103 -6 -128 l-6 -45 307 5 c194 3 306 1 304
-5 -2 -5 -155 -179 -339 -386 -380 -427 -347 -373 -349 -574 l-1 -93 523 0
524 0 6 97 c4 54 7 112 7 128 l0 30 -322 -3 -323 -3 31 33 c17 18 171 189 342
379 l310 346 8 151 7 152 -512 0 -511 0 0 -84z"/>
<path d="M3116 2878 c-10 -347 -24 -654 -41 -870 -8 -103 -15 -189 -15 -192 0
-3 87 -6 194 -6 l193 0 7 348 c6 316 26 742 42 900 l6 62 -189 0 -190 0 -7
-242z"/>
<path d="M5470 3036 c0 -46 -3 -103 -6 -128 l-6 -45 307 5 c194 3 306 1 304
-5 -2 -5 -155 -179 -339 -386 -380 -427 -347 -373 -349 -574 l-1 -93 523 0
524 0 6 97 c4 54 7 112 7 128 l0 30 -322 -3 -323 -3 31 33 c17 18 171 189 342
379 l310 346 8 151 7 152 -512 0 -511 0 0 -84z"/>
<path d="M3901 1385 c2 -47 3 -85 1 -85 -2 0 -16 10 -32 22 -19 14 -44 21 -72
21 -89 0 -138 -54 -138 -152 0 -104 43 -151 138 -151 34 0 57 6 75 20 14 11
28 20 31 20 3 0 6 -9 6 -20 0 -11 5 -20 10 -20 6 0 10 78 10 215 0 191 -2 215
-16 215 -14 0 -16 -12 -13 -85z m-40 -78 c28 -21 39 -54 39 -117 0 -97 -26
-129 -103 -130 -41 0 -53 5 -79 30 -29 30 -30 33 -26 106 3 69 6 79 31 100 31
27 109 33 138 11z"/>
<path d="M4410 1255 c0 -137 4 -215 10 -215 6 0 10 36 10 88 0 154 23 192 116
192 78 0 84 -11 84 -158 0 -102 2 -122 15 -122 12 0 15 19 15 114 0 125 -8
159 -41 177 -36 19 -114 14 -154 -10 l-35 -20 0 84 c0 50 -4 85 -10 85 -6 0
-10 -78 -10 -215z"/>
<path d="M7671 1385 c2 -47 3 -85 1 -85 -2 0 -16 10 -32 22 -19 14 -44 21 -72
21 -89 0 -138 -54 -138 -152 0 -104 43 -151 138 -151 34 0 57 6 75 20 14 11
28 20 31 20 3 0 6 -9 6 -20 0 -11 5 -20 10 -20 6 0 10 78 10 215 0 191 -2 215
-16 215 -14 0 -16 -12 -13 -85z m-40 -78 c28 -21 39 -54 39 -117 0 -97 -26
-129 -103 -130 -41 0 -53 5 -79 30 -29 30 -30 33 -26 106 3 69 6 79 31 100 31
27 109 33 138 11z"/>
<path d="M1950 1239 l0 -201 103 4 c113 5 151 18 173 59 31 62 8 122 -57 145
-28 10 -30 13 -11 13 34 1 72 44 72 81 0 76 -45 100 -185 100 l-95 0 0 -201z
m209 166 c48 -24 56 -78 17 -114 -20 -19 -39 -24 -110 -28 l-86 -6 0 82 0 81
75 0 c47 0 87 -6 104 -15z m25 -194 c17 -16 26 -35 26 -56 0 -66 -50 -95 -167
-95 l-63 0 0 91 0 91 89 -4 c78 -3 93 -6 115 -27z"/>
<path d="M4204 1375 c-4 -25 -12 -35 -25 -35 -10 0 -21 -4 -24 -10 -4 -6 5
-10 19 -10 l26 0 0 -120 c0 -107 2 -122 20 -140 21 -21 110 -29 110 -10 0 6
-17 10 -38 10 -21 0 -43 5 -50 12 -8 8 -12 52 -12 130 l0 118 45 0 c25 0 45 5
45 10 0 6 -20 10 -45 10 -45 0 -45 0 -45 35 0 19 -4 35 -10 35 -5 0 -12 -16
-16 -35z"/>
<path d="M6914 1375 c-4 -25 -12 -35 -25 -35 -10 0 -21 -4 -24 -10 -4 -6 5
-10 19 -10 l26 0 0 -120 c0 -107 2 -122 20 -140 21 -21 110 -29 110 -10 0 6
-17 10 -38 10 -21 0 -43 5 -50 12 -8 8 -12 52 -12 130 l0 118 45 0 c25 0 45 5
45 10 0 6 -20 10 -45 10 -45 0 -45 0 -45 35 0 19 -4 35 -10 35 -5 0 -12 -16
-16 -35z"/>
<path d="M2422 1340 c-65 -15 -102 -70 -102 -153 0 -40 6 -63 23 -88 30 -45
60 -59 127 -59 69 0 100 8 100 26 0 10 -6 11 -26 4 -37 -14 -111 -12 -143 4
-30 16 -51 53 -51 91 l0 25 115 0 115 0 0 33 c-1 82 -74 136 -158 117z m83
-26 c19 -8 45 -55 45 -84 0 -19 -6 -20 -100 -20 -84 0 -100 3 -100 15 0 24 28
73 47 84 20 12 83 14 108 5z"/>
<path d="M3032 1340 c-63 -15 -102 -70 -102 -145 0 -100 41 -147 135 -153 60
-4 64 -3 101 31 36 33 38 38 42 105 4 59 1 77 -17 105 -29 48 -95 71 -159 57z
m113 -42 c53 -46 54 -157 3 -209 -23 -22 -39 -29 -69 -29 -82 0 -119 41 -119
131 0 54 19 102 47 118 34 19 110 13 138 -11z"/>
<path d="M3413 1340 c-18 -4 -44 -15 -58 -24 -24 -16 -25 -16 -25 4 0 11 -4
20 -10 20 -6 0 -10 -57 -10 -150 0 -93 4 -150 10 -150 6 0 10 36 10 88 0 154
23 192 116 192 78 0 84 -11 84 -158 0 -102 2 -122 15 -122 12 0 15 19 15 114
0 122 -8 159 -37 174 -29 15 -75 20 -110 12z"/>
<path d="M4862 1340 c-65 -15 -102 -70 -102 -153 0 -40 6 -63 23 -88 30 -45
60 -59 127 -59 69 0 100 8 100 26 0 10 -6 11 -26 4 -37 -14 -111 -12 -143 4
-30 16 -51 53 -51 91 l0 25 115 0 115 0 0 33 c-1 82 -74 136 -158 117z m83
-26 c19 -8 45 -55 45 -84 0 -19 -6 -20 -100 -20 -84 0 -100 3 -100 15 0 24 28
73 47 84 20 12 83 14 108 5z"/>
<path d="M5352 1340 c-65 -15 -102 -70 -102 -153 0 -40 6 -63 23 -88 30 -45
60 -59 127 -59 69 0 100 8 100 26 0 10 -6 11 -26 4 -37 -14 -111 -12 -143 4
-30 16 -51 53 -51 91 l0 25 115 0 115 0 0 33 c-1 82 -74 136 -158 117z m83
-26 c19 -8 45 -55 45 -84 0 -19 -6 -20 -100 -20 -84 0 -100 3 -100 15 0 24 28
73 47 84 20 12 83 14 108 5z"/>
<path d="M6004 1339 c-17 -5 -37 -16 -44 -24 -17 -21 -30 -19 -30 5 0 11 -4
20 -10 20 -6 0 -10 -78 -10 -215 0 -137 4 -215 10 -215 6 0 10 35 10 85 0 47
3 85 6 85 3 0 17 -9 31 -20 37 -29 121 -28 158 2 54 42 70 130 39 208 -24 59
-94 89 -160 69z m97 -29 c29 -16 49 -64 49 -120 0 -56 -20 -104 -49 -120 -11
-5 -40 -10 -66 -10 -35 0 -52 6 -69 23 -47 47 -42 187 7 222 24 17 99 20 128
5z"/>
<path d="M6362 1340 c-65 -15 -102 -70 -102 -153 0 -40 6 -63 23 -88 30 -45
60 -59 127 -59 69 0 100 8 100 26 0 10 -6 11 -26 4 -37 -14 -111 -12 -143 4
-30 16 -51 53 -51 91 l0 25 115 0 115 0 0 33 c-1 82 -74 136 -158 117z m83
-26 c19 -8 45 -55 45 -84 0 -19 -6 -20 -100 -20 -84 0 -100 3 -100 15 0 24 28
73 47 84 20 12 83 14 108 5z"/>
<path d="M6715 1340 c-79 -18 -115 -65 -115 -151 0 -63 27 -114 70 -136 26
-13 117 -17 144 -7 35 14 12 21 -49 17 -63 -6 -65 -5 -100 30 -32 32 -35 40
-35 91 0 102 40 140 139 135 28 -2 54 0 57 4 14 14 -69 27 -111 17z"/>
<path d="M7202 1340 c-65 -15 -102 -70 -102 -153 0 -40 6 -63 23 -88 30 -45
60 -59 127 -59 69 0 100 8 100 26 0 10 -6 11 -26 4 -37 -14 -111 -12 -143 4
-30 16 -51 53 -51 91 l0 25 115 0 115 0 0 33 c-1 82 -74 136 -158 117z m83
-26 c19 -8 45 -55 45 -84 0 -19 -6 -20 -100 -20 -84 0 -100 3 -100 15 0 24 28
73 47 84 20 12 83 14 108 5z"/>
<path d="M2675 1189 l64 -152 -27 -51 c-24 -46 -31 -51 -64 -54 -21 -2 -38 -7
-38 -13 0 -12 66 -12 90 1 11 6 49 82 93 188 101 238 99 232 83 232 -7 0 -37
-59 -69 -137 -51 -126 -56 -136 -66 -113 -6 14 -31 75 -55 135 -26 63 -51 111
-60 113 -10 2 4 -42 49 -149z"/>
<path d="M5579 1323 c6 -10 30 -43 54 -73 l45 -54 -60 -78 c-35 -47 -53 -78
-45 -78 8 0 37 29 63 65 27 35 52 64 56 65 4 0 29 -29 55 -65 27 -36 56 -64
66 -65 13 0 2 20 -43 76 -33 42 -57 81 -53 88 4 6 29 39 56 74 32 41 44 62 33
62 -8 0 -36 -27 -61 -60 -25 -33 -49 -60 -53 -60 -4 0 -27 27 -52 60 -24 33
-50 60 -58 60 -9 0 -10 -5 -3 -17z"/>
</g>
</svg>
